G04*
G04 #@! TF.GenerationSoftware,Altium Limited,Altium Designer,20.0.1 (14)*
G04*
G04 Layer_Color=16711935*
%FSLAX25Y25*%
%MOIN*%
G70*
G01*
G75*
%ADD11C,0.02000*%
%ADD12C,0.01000*%
D11*
X131000Y110000D02*
G03*
X131000Y110000I-1000J0D01*
G01*
X141000D02*
G03*
X141000Y110000I-1000J0D01*
G01*
X151000D02*
G03*
X151000Y110000I-1000J0D01*
G01*
X161000D02*
G03*
X161000Y110000I-1000J0D01*
G01*
X171000D02*
G03*
X171000Y110000I-1000J0D01*
G01*
X181000D02*
G03*
X181000Y110000I-1000J0D01*
G01*
X191000D02*
G03*
X191000Y110000I-1000J0D01*
G01*
X261000D02*
G03*
X261000Y110000I-1000J0D01*
G01*
X251000D02*
G03*
X251000Y110000I-1000J0D01*
G01*
X241000D02*
G03*
X241000Y110000I-1000J0D01*
G01*
X231000D02*
G03*
X231000Y110000I-1000J0D01*
G01*
X221000D02*
G03*
X221000Y110000I-1000J0D01*
G01*
X211000D02*
G03*
X211000Y110000I-1000J0D01*
G01*
X201000D02*
G03*
X201000Y110000I-1000J0D01*
G01*
X331000D02*
G03*
X331000Y110000I-1000J0D01*
G01*
X321000D02*
G03*
X321000Y110000I-1000J0D01*
G01*
X311000D02*
G03*
X311000Y110000I-1000J0D01*
G01*
X301000D02*
G03*
X301000Y110000I-1000J0D01*
G01*
X291000D02*
G03*
X291000Y110000I-1000J0D01*
G01*
X281000D02*
G03*
X281000Y110000I-1000J0D01*
G01*
X271000D02*
G03*
X271000Y110000I-1000J0D01*
G01*
X401000D02*
G03*
X401000Y110000I-1000J0D01*
G01*
X391000D02*
G03*
X391000Y110000I-1000J0D01*
G01*
X381000D02*
G03*
X381000Y110000I-1000J0D01*
G01*
X371000D02*
G03*
X371000Y110000I-1000J0D01*
G01*
X361000D02*
G03*
X361000Y110000I-1000J0D01*
G01*
X351000D02*
G03*
X351000Y110000I-1000J0D01*
G01*
X341000D02*
G03*
X341000Y110000I-1000J0D01*
G01*
X471000D02*
G03*
X471000Y110000I-1000J0D01*
G01*
X461000D02*
G03*
X461000Y110000I-1000J0D01*
G01*
X451000D02*
G03*
X451000Y110000I-1000J0D01*
G01*
X441000D02*
G03*
X441000Y110000I-1000J0D01*
G01*
X431000D02*
G03*
X431000Y110000I-1000J0D01*
G01*
X421000D02*
G03*
X421000Y110000I-1000J0D01*
G01*
X411000D02*
G03*
X411000Y110000I-1000J0D01*
G01*
X541000D02*
G03*
X541000Y110000I-1000J0D01*
G01*
X531000D02*
G03*
X531000Y110000I-1000J0D01*
G01*
X521000D02*
G03*
X521000Y110000I-1000J0D01*
G01*
X511000D02*
G03*
X511000Y110000I-1000J0D01*
G01*
X501000D02*
G03*
X501000Y110000I-1000J0D01*
G01*
X491000D02*
G03*
X491000Y110000I-1000J0D01*
G01*
X481000D02*
G03*
X481000Y110000I-1000J0D01*
G01*
X611000D02*
G03*
X611000Y110000I-1000J0D01*
G01*
X601000D02*
G03*
X601000Y110000I-1000J0D01*
G01*
X591000D02*
G03*
X591000Y110000I-1000J0D01*
G01*
X581000D02*
G03*
X581000Y110000I-1000J0D01*
G01*
X571000D02*
G03*
X571000Y110000I-1000J0D01*
G01*
X561000D02*
G03*
X561000Y110000I-1000J0D01*
G01*
X551000D02*
G03*
X551000Y110000I-1000J0D01*
G01*
X681000D02*
G03*
X681000Y110000I-1000J0D01*
G01*
X671000D02*
G03*
X671000Y110000I-1000J0D01*
G01*
X661000D02*
G03*
X661000Y110000I-1000J0D01*
G01*
X651000D02*
G03*
X651000Y110000I-1000J0D01*
G01*
X641000D02*
G03*
X641000Y110000I-1000J0D01*
G01*
X631000D02*
G03*
X631000Y110000I-1000J0D01*
G01*
X621000D02*
G03*
X621000Y110000I-1000J0D01*
G01*
X691000D02*
G03*
X691000Y110000I-1000J0D01*
G01*
X701000D02*
G03*
X701000Y110000I-1000J0D01*
G01*
X131000Y120000D02*
G03*
X131000Y120000I-1000J0D01*
G01*
X141000D02*
G03*
X141000Y120000I-1000J0D01*
G01*
X151000D02*
G03*
X151000Y120000I-1000J0D01*
G01*
X161000D02*
G03*
X161000Y120000I-1000J0D01*
G01*
X171000D02*
G03*
X171000Y120000I-1000J0D01*
G01*
X181000D02*
G03*
X181000Y120000I-1000J0D01*
G01*
X191000D02*
G03*
X191000Y120000I-1000J0D01*
G01*
X261000D02*
G03*
X261000Y120000I-1000J0D01*
G01*
X251000D02*
G03*
X251000Y120000I-1000J0D01*
G01*
X241000D02*
G03*
X241000Y120000I-1000J0D01*
G01*
X231000D02*
G03*
X231000Y120000I-1000J0D01*
G01*
X221000D02*
G03*
X221000Y120000I-1000J0D01*
G01*
X211000D02*
G03*
X211000Y120000I-1000J0D01*
G01*
X201000D02*
G03*
X201000Y120000I-1000J0D01*
G01*
X331000D02*
G03*
X331000Y120000I-1000J0D01*
G01*
X321000D02*
G03*
X321000Y120000I-1000J0D01*
G01*
X311000D02*
G03*
X311000Y120000I-1000J0D01*
G01*
X301000D02*
G03*
X301000Y120000I-1000J0D01*
G01*
X291000D02*
G03*
X291000Y120000I-1000J0D01*
G01*
X281000D02*
G03*
X281000Y120000I-1000J0D01*
G01*
X271000D02*
G03*
X271000Y120000I-1000J0D01*
G01*
X401000D02*
G03*
X401000Y120000I-1000J0D01*
G01*
X391000D02*
G03*
X391000Y120000I-1000J0D01*
G01*
X381000D02*
G03*
X381000Y120000I-1000J0D01*
G01*
X371000D02*
G03*
X371000Y120000I-1000J0D01*
G01*
X361000D02*
G03*
X361000Y120000I-1000J0D01*
G01*
X351000D02*
G03*
X351000Y120000I-1000J0D01*
G01*
X341000D02*
G03*
X341000Y120000I-1000J0D01*
G01*
X471000D02*
G03*
X471000Y120000I-1000J0D01*
G01*
X461000D02*
G03*
X461000Y120000I-1000J0D01*
G01*
X451000D02*
G03*
X451000Y120000I-1000J0D01*
G01*
X441000D02*
G03*
X441000Y120000I-1000J0D01*
G01*
X431000D02*
G03*
X431000Y120000I-1000J0D01*
G01*
X421000D02*
G03*
X421000Y120000I-1000J0D01*
G01*
X411000D02*
G03*
X411000Y120000I-1000J0D01*
G01*
X541000D02*
G03*
X541000Y120000I-1000J0D01*
G01*
X531000D02*
G03*
X531000Y120000I-1000J0D01*
G01*
X521000D02*
G03*
X521000Y120000I-1000J0D01*
G01*
X511000D02*
G03*
X511000Y120000I-1000J0D01*
G01*
X501000D02*
G03*
X501000Y120000I-1000J0D01*
G01*
X491000D02*
G03*
X491000Y120000I-1000J0D01*
G01*
X481000D02*
G03*
X481000Y120000I-1000J0D01*
G01*
X611000D02*
G03*
X611000Y120000I-1000J0D01*
G01*
X601000D02*
G03*
X601000Y120000I-1000J0D01*
G01*
X591000D02*
G03*
X591000Y120000I-1000J0D01*
G01*
X581000D02*
G03*
X581000Y120000I-1000J0D01*
G01*
X571000D02*
G03*
X571000Y120000I-1000J0D01*
G01*
X561000D02*
G03*
X561000Y120000I-1000J0D01*
G01*
X551000D02*
G03*
X551000Y120000I-1000J0D01*
G01*
X681000D02*
G03*
X681000Y120000I-1000J0D01*
G01*
X671000D02*
G03*
X671000Y120000I-1000J0D01*
G01*
X661000D02*
G03*
X661000Y120000I-1000J0D01*
G01*
X651000D02*
G03*
X651000Y120000I-1000J0D01*
G01*
X641000D02*
G03*
X641000Y120000I-1000J0D01*
G01*
X631000D02*
G03*
X631000Y120000I-1000J0D01*
G01*
X621000D02*
G03*
X621000Y120000I-1000J0D01*
G01*
X691000D02*
G03*
X691000Y120000I-1000J0D01*
G01*
X701000D02*
G03*
X701000Y120000I-1000J0D01*
G01*
X131000Y160000D02*
G03*
X131000Y160000I-1000J0D01*
G01*
X141000D02*
G03*
X141000Y160000I-1000J0D01*
G01*
X151000D02*
G03*
X151000Y160000I-1000J0D01*
G01*
X161000D02*
G03*
X161000Y160000I-1000J0D01*
G01*
X171000D02*
G03*
X171000Y160000I-1000J0D01*
G01*
X181000D02*
G03*
X181000Y160000I-1000J0D01*
G01*
X191000D02*
G03*
X191000Y160000I-1000J0D01*
G01*
X261000D02*
G03*
X261000Y160000I-1000J0D01*
G01*
X251000D02*
G03*
X251000Y160000I-1000J0D01*
G01*
X241000D02*
G03*
X241000Y160000I-1000J0D01*
G01*
X231000D02*
G03*
X231000Y160000I-1000J0D01*
G01*
X221000D02*
G03*
X221000Y160000I-1000J0D01*
G01*
X211000D02*
G03*
X211000Y160000I-1000J0D01*
G01*
X201000D02*
G03*
X201000Y160000I-1000J0D01*
G01*
X331000D02*
G03*
X331000Y160000I-1000J0D01*
G01*
X321000D02*
G03*
X321000Y160000I-1000J0D01*
G01*
X311000D02*
G03*
X311000Y160000I-1000J0D01*
G01*
X301000D02*
G03*
X301000Y160000I-1000J0D01*
G01*
X291000D02*
G03*
X291000Y160000I-1000J0D01*
G01*
X281000D02*
G03*
X281000Y160000I-1000J0D01*
G01*
X271000D02*
G03*
X271000Y160000I-1000J0D01*
G01*
X401000D02*
G03*
X401000Y160000I-1000J0D01*
G01*
X391000D02*
G03*
X391000Y160000I-1000J0D01*
G01*
X381000D02*
G03*
X381000Y160000I-1000J0D01*
G01*
X371000D02*
G03*
X371000Y160000I-1000J0D01*
G01*
X361000D02*
G03*
X361000Y160000I-1000J0D01*
G01*
X351000D02*
G03*
X351000Y160000I-1000J0D01*
G01*
X341000D02*
G03*
X341000Y160000I-1000J0D01*
G01*
X471000D02*
G03*
X471000Y160000I-1000J0D01*
G01*
X461000D02*
G03*
X461000Y160000I-1000J0D01*
G01*
X451000D02*
G03*
X451000Y160000I-1000J0D01*
G01*
X441000D02*
G03*
X441000Y160000I-1000J0D01*
G01*
X431000D02*
G03*
X431000Y160000I-1000J0D01*
G01*
X421000D02*
G03*
X421000Y160000I-1000J0D01*
G01*
X411000D02*
G03*
X411000Y160000I-1000J0D01*
G01*
X541000D02*
G03*
X541000Y160000I-1000J0D01*
G01*
X531000D02*
G03*
X531000Y160000I-1000J0D01*
G01*
X521000D02*
G03*
X521000Y160000I-1000J0D01*
G01*
X511000D02*
G03*
X511000Y160000I-1000J0D01*
G01*
X501000D02*
G03*
X501000Y160000I-1000J0D01*
G01*
X491000D02*
G03*
X491000Y160000I-1000J0D01*
G01*
X481000D02*
G03*
X481000Y160000I-1000J0D01*
G01*
X611000D02*
G03*
X611000Y160000I-1000J0D01*
G01*
X601000D02*
G03*
X601000Y160000I-1000J0D01*
G01*
X591000D02*
G03*
X591000Y160000I-1000J0D01*
G01*
X581000D02*
G03*
X581000Y160000I-1000J0D01*
G01*
X571000D02*
G03*
X571000Y160000I-1000J0D01*
G01*
X561000D02*
G03*
X561000Y160000I-1000J0D01*
G01*
X551000D02*
G03*
X551000Y160000I-1000J0D01*
G01*
X681000D02*
G03*
X681000Y160000I-1000J0D01*
G01*
X671000D02*
G03*
X671000Y160000I-1000J0D01*
G01*
X661000D02*
G03*
X661000Y160000I-1000J0D01*
G01*
X651000D02*
G03*
X651000Y160000I-1000J0D01*
G01*
X641000D02*
G03*
X641000Y160000I-1000J0D01*
G01*
X631000D02*
G03*
X631000Y160000I-1000J0D01*
G01*
X621000D02*
G03*
X621000Y160000I-1000J0D01*
G01*
X691000D02*
G03*
X691000Y160000I-1000J0D01*
G01*
X701000D02*
G03*
X701000Y160000I-1000J0D01*
G01*
Y150000D02*
G03*
X701000Y150000I-1000J0D01*
G01*
X691000D02*
G03*
X691000Y150000I-1000J0D01*
G01*
X621000D02*
G03*
X621000Y150000I-1000J0D01*
G01*
X631000D02*
G03*
X631000Y150000I-1000J0D01*
G01*
X641000D02*
G03*
X641000Y150000I-1000J0D01*
G01*
X651000D02*
G03*
X651000Y150000I-1000J0D01*
G01*
X661000D02*
G03*
X661000Y150000I-1000J0D01*
G01*
X671000D02*
G03*
X671000Y150000I-1000J0D01*
G01*
X681000D02*
G03*
X681000Y150000I-1000J0D01*
G01*
X551000D02*
G03*
X551000Y150000I-1000J0D01*
G01*
X561000D02*
G03*
X561000Y150000I-1000J0D01*
G01*
X571000D02*
G03*
X571000Y150000I-1000J0D01*
G01*
X581000D02*
G03*
X581000Y150000I-1000J0D01*
G01*
X591000D02*
G03*
X591000Y150000I-1000J0D01*
G01*
X601000D02*
G03*
X601000Y150000I-1000J0D01*
G01*
X611000D02*
G03*
X611000Y150000I-1000J0D01*
G01*
X481000D02*
G03*
X481000Y150000I-1000J0D01*
G01*
X491000D02*
G03*
X491000Y150000I-1000J0D01*
G01*
X501000D02*
G03*
X501000Y150000I-1000J0D01*
G01*
X511000D02*
G03*
X511000Y150000I-1000J0D01*
G01*
X521000D02*
G03*
X521000Y150000I-1000J0D01*
G01*
X531000D02*
G03*
X531000Y150000I-1000J0D01*
G01*
X541000D02*
G03*
X541000Y150000I-1000J0D01*
G01*
X411000D02*
G03*
X411000Y150000I-1000J0D01*
G01*
X421000D02*
G03*
X421000Y150000I-1000J0D01*
G01*
X431000D02*
G03*
X431000Y150000I-1000J0D01*
G01*
X441000D02*
G03*
X441000Y150000I-1000J0D01*
G01*
X451000D02*
G03*
X451000Y150000I-1000J0D01*
G01*
X461000D02*
G03*
X461000Y150000I-1000J0D01*
G01*
X471000D02*
G03*
X471000Y150000I-1000J0D01*
G01*
X341000D02*
G03*
X341000Y150000I-1000J0D01*
G01*
X351000D02*
G03*
X351000Y150000I-1000J0D01*
G01*
X361000D02*
G03*
X361000Y150000I-1000J0D01*
G01*
X371000D02*
G03*
X371000Y150000I-1000J0D01*
G01*
X381000D02*
G03*
X381000Y150000I-1000J0D01*
G01*
X391000D02*
G03*
X391000Y150000I-1000J0D01*
G01*
X401000D02*
G03*
X401000Y150000I-1000J0D01*
G01*
X271000D02*
G03*
X271000Y150000I-1000J0D01*
G01*
X281000D02*
G03*
X281000Y150000I-1000J0D01*
G01*
X291000D02*
G03*
X291000Y150000I-1000J0D01*
G01*
X301000D02*
G03*
X301000Y150000I-1000J0D01*
G01*
X311000D02*
G03*
X311000Y150000I-1000J0D01*
G01*
X321000D02*
G03*
X321000Y150000I-1000J0D01*
G01*
X331000D02*
G03*
X331000Y150000I-1000J0D01*
G01*
X201000D02*
G03*
X201000Y150000I-1000J0D01*
G01*
X211000D02*
G03*
X211000Y150000I-1000J0D01*
G01*
X221000D02*
G03*
X221000Y150000I-1000J0D01*
G01*
X231000D02*
G03*
X231000Y150000I-1000J0D01*
G01*
X241000D02*
G03*
X241000Y150000I-1000J0D01*
G01*
X251000D02*
G03*
X251000Y150000I-1000J0D01*
G01*
X261000D02*
G03*
X261000Y150000I-1000J0D01*
G01*
X191000D02*
G03*
X191000Y150000I-1000J0D01*
G01*
X181000D02*
G03*
X181000Y150000I-1000J0D01*
G01*
X171000D02*
G03*
X171000Y150000I-1000J0D01*
G01*
X161000D02*
G03*
X161000Y150000I-1000J0D01*
G01*
X151000D02*
G03*
X151000Y150000I-1000J0D01*
G01*
X141000D02*
G03*
X141000Y150000I-1000J0D01*
G01*
X131000D02*
G03*
X131000Y150000I-1000J0D01*
G01*
X701000Y140000D02*
G03*
X701000Y140000I-1000J0D01*
G01*
X691000D02*
G03*
X691000Y140000I-1000J0D01*
G01*
X621000D02*
G03*
X621000Y140000I-1000J0D01*
G01*
X631000D02*
G03*
X631000Y140000I-1000J0D01*
G01*
X641000D02*
G03*
X641000Y140000I-1000J0D01*
G01*
X651000D02*
G03*
X651000Y140000I-1000J0D01*
G01*
X661000D02*
G03*
X661000Y140000I-1000J0D01*
G01*
X671000D02*
G03*
X671000Y140000I-1000J0D01*
G01*
X681000D02*
G03*
X681000Y140000I-1000J0D01*
G01*
X551000D02*
G03*
X551000Y140000I-1000J0D01*
G01*
X561000D02*
G03*
X561000Y140000I-1000J0D01*
G01*
X571000D02*
G03*
X571000Y140000I-1000J0D01*
G01*
X581000D02*
G03*
X581000Y140000I-1000J0D01*
G01*
X591000D02*
G03*
X591000Y140000I-1000J0D01*
G01*
X601000D02*
G03*
X601000Y140000I-1000J0D01*
G01*
X611000D02*
G03*
X611000Y140000I-1000J0D01*
G01*
X481000D02*
G03*
X481000Y140000I-1000J0D01*
G01*
X491000D02*
G03*
X491000Y140000I-1000J0D01*
G01*
X501000D02*
G03*
X501000Y140000I-1000J0D01*
G01*
X511000D02*
G03*
X511000Y140000I-1000J0D01*
G01*
X521000D02*
G03*
X521000Y140000I-1000J0D01*
G01*
X531000D02*
G03*
X531000Y140000I-1000J0D01*
G01*
X541000D02*
G03*
X541000Y140000I-1000J0D01*
G01*
X411000D02*
G03*
X411000Y140000I-1000J0D01*
G01*
X421000D02*
G03*
X421000Y140000I-1000J0D01*
G01*
X431000D02*
G03*
X431000Y140000I-1000J0D01*
G01*
X441000D02*
G03*
X441000Y140000I-1000J0D01*
G01*
X451000D02*
G03*
X451000Y140000I-1000J0D01*
G01*
X461000D02*
G03*
X461000Y140000I-1000J0D01*
G01*
X471000D02*
G03*
X471000Y140000I-1000J0D01*
G01*
X341000D02*
G03*
X341000Y140000I-1000J0D01*
G01*
X351000D02*
G03*
X351000Y140000I-1000J0D01*
G01*
X361000D02*
G03*
X361000Y140000I-1000J0D01*
G01*
X371000D02*
G03*
X371000Y140000I-1000J0D01*
G01*
X381000D02*
G03*
X381000Y140000I-1000J0D01*
G01*
X391000D02*
G03*
X391000Y140000I-1000J0D01*
G01*
X401000D02*
G03*
X401000Y140000I-1000J0D01*
G01*
X271000D02*
G03*
X271000Y140000I-1000J0D01*
G01*
X281000D02*
G03*
X281000Y140000I-1000J0D01*
G01*
X291000D02*
G03*
X291000Y140000I-1000J0D01*
G01*
X301000D02*
G03*
X301000Y140000I-1000J0D01*
G01*
X311000D02*
G03*
X311000Y140000I-1000J0D01*
G01*
X321000D02*
G03*
X321000Y140000I-1000J0D01*
G01*
X331000D02*
G03*
X331000Y140000I-1000J0D01*
G01*
X201000D02*
G03*
X201000Y140000I-1000J0D01*
G01*
X211000D02*
G03*
X211000Y140000I-1000J0D01*
G01*
X221000D02*
G03*
X221000Y140000I-1000J0D01*
G01*
X231000D02*
G03*
X231000Y140000I-1000J0D01*
G01*
X241000D02*
G03*
X241000Y140000I-1000J0D01*
G01*
X251000D02*
G03*
X251000Y140000I-1000J0D01*
G01*
X261000D02*
G03*
X261000Y140000I-1000J0D01*
G01*
X191000D02*
G03*
X191000Y140000I-1000J0D01*
G01*
X181000D02*
G03*
X181000Y140000I-1000J0D01*
G01*
X171000D02*
G03*
X171000Y140000I-1000J0D01*
G01*
X161000D02*
G03*
X161000Y140000I-1000J0D01*
G01*
X151000D02*
G03*
X151000Y140000I-1000J0D01*
G01*
X141000D02*
G03*
X141000Y140000I-1000J0D01*
G01*
X131000D02*
G03*
X131000Y140000I-1000J0D01*
G01*
X701000Y130000D02*
G03*
X701000Y130000I-1000J0D01*
G01*
X691000D02*
G03*
X691000Y130000I-1000J0D01*
G01*
X621000D02*
G03*
X621000Y130000I-1000J0D01*
G01*
X631000D02*
G03*
X631000Y130000I-1000J0D01*
G01*
X641000D02*
G03*
X641000Y130000I-1000J0D01*
G01*
X651000D02*
G03*
X651000Y130000I-1000J0D01*
G01*
X661000D02*
G03*
X661000Y130000I-1000J0D01*
G01*
X671000D02*
G03*
X671000Y130000I-1000J0D01*
G01*
X681000D02*
G03*
X681000Y130000I-1000J0D01*
G01*
X551000D02*
G03*
X551000Y130000I-1000J0D01*
G01*
X561000D02*
G03*
X561000Y130000I-1000J0D01*
G01*
X571000D02*
G03*
X571000Y130000I-1000J0D01*
G01*
X581000D02*
G03*
X581000Y130000I-1000J0D01*
G01*
X591000D02*
G03*
X591000Y130000I-1000J0D01*
G01*
X601000D02*
G03*
X601000Y130000I-1000J0D01*
G01*
X611000D02*
G03*
X611000Y130000I-1000J0D01*
G01*
X481000D02*
G03*
X481000Y130000I-1000J0D01*
G01*
X491000D02*
G03*
X491000Y130000I-1000J0D01*
G01*
X501000D02*
G03*
X501000Y130000I-1000J0D01*
G01*
X511000D02*
G03*
X511000Y130000I-1000J0D01*
G01*
X521000D02*
G03*
X521000Y130000I-1000J0D01*
G01*
X531000D02*
G03*
X531000Y130000I-1000J0D01*
G01*
X541000D02*
G03*
X541000Y130000I-1000J0D01*
G01*
X411000D02*
G03*
X411000Y130000I-1000J0D01*
G01*
X421000D02*
G03*
X421000Y130000I-1000J0D01*
G01*
X431000D02*
G03*
X431000Y130000I-1000J0D01*
G01*
X441000D02*
G03*
X441000Y130000I-1000J0D01*
G01*
X451000D02*
G03*
X451000Y130000I-1000J0D01*
G01*
X461000D02*
G03*
X461000Y130000I-1000J0D01*
G01*
X471000D02*
G03*
X471000Y130000I-1000J0D01*
G01*
X341000D02*
G03*
X341000Y130000I-1000J0D01*
G01*
X351000D02*
G03*
X351000Y130000I-1000J0D01*
G01*
X361000D02*
G03*
X361000Y130000I-1000J0D01*
G01*
X371000D02*
G03*
X371000Y130000I-1000J0D01*
G01*
X381000D02*
G03*
X381000Y130000I-1000J0D01*
G01*
X391000D02*
G03*
X391000Y130000I-1000J0D01*
G01*
X401000D02*
G03*
X401000Y130000I-1000J0D01*
G01*
X271000D02*
G03*
X271000Y130000I-1000J0D01*
G01*
X281000D02*
G03*
X281000Y130000I-1000J0D01*
G01*
X291000D02*
G03*
X291000Y130000I-1000J0D01*
G01*
X301000D02*
G03*
X301000Y130000I-1000J0D01*
G01*
X311000D02*
G03*
X311000Y130000I-1000J0D01*
G01*
X321000D02*
G03*
X321000Y130000I-1000J0D01*
G01*
X331000D02*
G03*
X331000Y130000I-1000J0D01*
G01*
X201000D02*
G03*
X201000Y130000I-1000J0D01*
G01*
X211000D02*
G03*
X211000Y130000I-1000J0D01*
G01*
X221000D02*
G03*
X221000Y130000I-1000J0D01*
G01*
X231000D02*
G03*
X231000Y130000I-1000J0D01*
G01*
X241000D02*
G03*
X241000Y130000I-1000J0D01*
G01*
X251000D02*
G03*
X251000Y130000I-1000J0D01*
G01*
X261000D02*
G03*
X261000Y130000I-1000J0D01*
G01*
X191000D02*
G03*
X191000Y130000I-1000J0D01*
G01*
X181000D02*
G03*
X181000Y130000I-1000J0D01*
G01*
X171000D02*
G03*
X171000Y130000I-1000J0D01*
G01*
X161000D02*
G03*
X161000Y130000I-1000J0D01*
G01*
X151000D02*
G03*
X151000Y130000I-1000J0D01*
G01*
X141000D02*
G03*
X141000Y130000I-1000J0D01*
G01*
X131000D02*
G03*
X131000Y130000I-1000J0D01*
G01*
Y200000D02*
G03*
X131000Y200000I-1000J0D01*
G01*
X141000D02*
G03*
X141000Y200000I-1000J0D01*
G01*
X151000D02*
G03*
X151000Y200000I-1000J0D01*
G01*
X161000D02*
G03*
X161000Y200000I-1000J0D01*
G01*
X171000D02*
G03*
X171000Y200000I-1000J0D01*
G01*
X181000D02*
G03*
X181000Y200000I-1000J0D01*
G01*
X191000D02*
G03*
X191000Y200000I-1000J0D01*
G01*
X261000D02*
G03*
X261000Y200000I-1000J0D01*
G01*
X251000D02*
G03*
X251000Y200000I-1000J0D01*
G01*
X241000D02*
G03*
X241000Y200000I-1000J0D01*
G01*
X231000D02*
G03*
X231000Y200000I-1000J0D01*
G01*
X221000D02*
G03*
X221000Y200000I-1000J0D01*
G01*
X211000D02*
G03*
X211000Y200000I-1000J0D01*
G01*
X201000D02*
G03*
X201000Y200000I-1000J0D01*
G01*
X331000D02*
G03*
X331000Y200000I-1000J0D01*
G01*
X321000D02*
G03*
X321000Y200000I-1000J0D01*
G01*
X311000D02*
G03*
X311000Y200000I-1000J0D01*
G01*
X301000D02*
G03*
X301000Y200000I-1000J0D01*
G01*
X291000D02*
G03*
X291000Y200000I-1000J0D01*
G01*
X281000D02*
G03*
X281000Y200000I-1000J0D01*
G01*
X271000D02*
G03*
X271000Y200000I-1000J0D01*
G01*
X401000D02*
G03*
X401000Y200000I-1000J0D01*
G01*
X391000D02*
G03*
X391000Y200000I-1000J0D01*
G01*
X381000D02*
G03*
X381000Y200000I-1000J0D01*
G01*
X371000D02*
G03*
X371000Y200000I-1000J0D01*
G01*
X361000D02*
G03*
X361000Y200000I-1000J0D01*
G01*
X351000D02*
G03*
X351000Y200000I-1000J0D01*
G01*
X341000D02*
G03*
X341000Y200000I-1000J0D01*
G01*
X471000D02*
G03*
X471000Y200000I-1000J0D01*
G01*
X461000D02*
G03*
X461000Y200000I-1000J0D01*
G01*
X451000D02*
G03*
X451000Y200000I-1000J0D01*
G01*
X441000D02*
G03*
X441000Y200000I-1000J0D01*
G01*
X431000D02*
G03*
X431000Y200000I-1000J0D01*
G01*
X421000D02*
G03*
X421000Y200000I-1000J0D01*
G01*
X411000D02*
G03*
X411000Y200000I-1000J0D01*
G01*
X541000D02*
G03*
X541000Y200000I-1000J0D01*
G01*
X531000D02*
G03*
X531000Y200000I-1000J0D01*
G01*
X521000D02*
G03*
X521000Y200000I-1000J0D01*
G01*
X511000D02*
G03*
X511000Y200000I-1000J0D01*
G01*
X501000D02*
G03*
X501000Y200000I-1000J0D01*
G01*
X491000D02*
G03*
X491000Y200000I-1000J0D01*
G01*
X481000D02*
G03*
X481000Y200000I-1000J0D01*
G01*
X611000D02*
G03*
X611000Y200000I-1000J0D01*
G01*
X601000D02*
G03*
X601000Y200000I-1000J0D01*
G01*
X591000D02*
G03*
X591000Y200000I-1000J0D01*
G01*
X581000D02*
G03*
X581000Y200000I-1000J0D01*
G01*
X571000D02*
G03*
X571000Y200000I-1000J0D01*
G01*
X561000D02*
G03*
X561000Y200000I-1000J0D01*
G01*
X551000D02*
G03*
X551000Y200000I-1000J0D01*
G01*
X681000D02*
G03*
X681000Y200000I-1000J0D01*
G01*
X671000D02*
G03*
X671000Y200000I-1000J0D01*
G01*
X661000D02*
G03*
X661000Y200000I-1000J0D01*
G01*
X651000D02*
G03*
X651000Y200000I-1000J0D01*
G01*
X641000D02*
G03*
X641000Y200000I-1000J0D01*
G01*
X631000D02*
G03*
X631000Y200000I-1000J0D01*
G01*
X621000D02*
G03*
X621000Y200000I-1000J0D01*
G01*
X691000D02*
G03*
X691000Y200000I-1000J0D01*
G01*
X701000D02*
G03*
X701000Y200000I-1000J0D01*
G01*
Y190000D02*
G03*
X701000Y190000I-1000J0D01*
G01*
X691000D02*
G03*
X691000Y190000I-1000J0D01*
G01*
X621000D02*
G03*
X621000Y190000I-1000J0D01*
G01*
X631000D02*
G03*
X631000Y190000I-1000J0D01*
G01*
X641000D02*
G03*
X641000Y190000I-1000J0D01*
G01*
X651000D02*
G03*
X651000Y190000I-1000J0D01*
G01*
X661000D02*
G03*
X661000Y190000I-1000J0D01*
G01*
X671000D02*
G03*
X671000Y190000I-1000J0D01*
G01*
X681000D02*
G03*
X681000Y190000I-1000J0D01*
G01*
X551000D02*
G03*
X551000Y190000I-1000J0D01*
G01*
X561000D02*
G03*
X561000Y190000I-1000J0D01*
G01*
X571000D02*
G03*
X571000Y190000I-1000J0D01*
G01*
X581000D02*
G03*
X581000Y190000I-1000J0D01*
G01*
X591000D02*
G03*
X591000Y190000I-1000J0D01*
G01*
X601000D02*
G03*
X601000Y190000I-1000J0D01*
G01*
X611000D02*
G03*
X611000Y190000I-1000J0D01*
G01*
X481000D02*
G03*
X481000Y190000I-1000J0D01*
G01*
X491000D02*
G03*
X491000Y190000I-1000J0D01*
G01*
X501000D02*
G03*
X501000Y190000I-1000J0D01*
G01*
X511000D02*
G03*
X511000Y190000I-1000J0D01*
G01*
X521000D02*
G03*
X521000Y190000I-1000J0D01*
G01*
X531000D02*
G03*
X531000Y190000I-1000J0D01*
G01*
X541000D02*
G03*
X541000Y190000I-1000J0D01*
G01*
X411000D02*
G03*
X411000Y190000I-1000J0D01*
G01*
X421000D02*
G03*
X421000Y190000I-1000J0D01*
G01*
X431000D02*
G03*
X431000Y190000I-1000J0D01*
G01*
X441000D02*
G03*
X441000Y190000I-1000J0D01*
G01*
X451000D02*
G03*
X451000Y190000I-1000J0D01*
G01*
X461000D02*
G03*
X461000Y190000I-1000J0D01*
G01*
X471000D02*
G03*
X471000Y190000I-1000J0D01*
G01*
X341000D02*
G03*
X341000Y190000I-1000J0D01*
G01*
X351000D02*
G03*
X351000Y190000I-1000J0D01*
G01*
X361000D02*
G03*
X361000Y190000I-1000J0D01*
G01*
X371000D02*
G03*
X371000Y190000I-1000J0D01*
G01*
X381000D02*
G03*
X381000Y190000I-1000J0D01*
G01*
X391000D02*
G03*
X391000Y190000I-1000J0D01*
G01*
X401000D02*
G03*
X401000Y190000I-1000J0D01*
G01*
X271000D02*
G03*
X271000Y190000I-1000J0D01*
G01*
X281000D02*
G03*
X281000Y190000I-1000J0D01*
G01*
X291000D02*
G03*
X291000Y190000I-1000J0D01*
G01*
X301000D02*
G03*
X301000Y190000I-1000J0D01*
G01*
X311000D02*
G03*
X311000Y190000I-1000J0D01*
G01*
X321000D02*
G03*
X321000Y190000I-1000J0D01*
G01*
X331000D02*
G03*
X331000Y190000I-1000J0D01*
G01*
X201000D02*
G03*
X201000Y190000I-1000J0D01*
G01*
X211000D02*
G03*
X211000Y190000I-1000J0D01*
G01*
X221000D02*
G03*
X221000Y190000I-1000J0D01*
G01*
X231000D02*
G03*
X231000Y190000I-1000J0D01*
G01*
X241000D02*
G03*
X241000Y190000I-1000J0D01*
G01*
X251000D02*
G03*
X251000Y190000I-1000J0D01*
G01*
X261000D02*
G03*
X261000Y190000I-1000J0D01*
G01*
X191000D02*
G03*
X191000Y190000I-1000J0D01*
G01*
X181000D02*
G03*
X181000Y190000I-1000J0D01*
G01*
X171000D02*
G03*
X171000Y190000I-1000J0D01*
G01*
X161000D02*
G03*
X161000Y190000I-1000J0D01*
G01*
X151000D02*
G03*
X151000Y190000I-1000J0D01*
G01*
X141000D02*
G03*
X141000Y190000I-1000J0D01*
G01*
X131000D02*
G03*
X131000Y190000I-1000J0D01*
G01*
X701000Y180000D02*
G03*
X701000Y180000I-1000J0D01*
G01*
X691000D02*
G03*
X691000Y180000I-1000J0D01*
G01*
X621000D02*
G03*
X621000Y180000I-1000J0D01*
G01*
X631000D02*
G03*
X631000Y180000I-1000J0D01*
G01*
X641000D02*
G03*
X641000Y180000I-1000J0D01*
G01*
X651000D02*
G03*
X651000Y180000I-1000J0D01*
G01*
X661000D02*
G03*
X661000Y180000I-1000J0D01*
G01*
X671000D02*
G03*
X671000Y180000I-1000J0D01*
G01*
X681000D02*
G03*
X681000Y180000I-1000J0D01*
G01*
X551000D02*
G03*
X551000Y180000I-1000J0D01*
G01*
X561000D02*
G03*
X561000Y180000I-1000J0D01*
G01*
X571000D02*
G03*
X571000Y180000I-1000J0D01*
G01*
X581000D02*
G03*
X581000Y180000I-1000J0D01*
G01*
X591000D02*
G03*
X591000Y180000I-1000J0D01*
G01*
X601000D02*
G03*
X601000Y180000I-1000J0D01*
G01*
X611000D02*
G03*
X611000Y180000I-1000J0D01*
G01*
X481000D02*
G03*
X481000Y180000I-1000J0D01*
G01*
X491000D02*
G03*
X491000Y180000I-1000J0D01*
G01*
X501000D02*
G03*
X501000Y180000I-1000J0D01*
G01*
X511000D02*
G03*
X511000Y180000I-1000J0D01*
G01*
X521000D02*
G03*
X521000Y180000I-1000J0D01*
G01*
X531000D02*
G03*
X531000Y180000I-1000J0D01*
G01*
X541000D02*
G03*
X541000Y180000I-1000J0D01*
G01*
X411000D02*
G03*
X411000Y180000I-1000J0D01*
G01*
X421000D02*
G03*
X421000Y180000I-1000J0D01*
G01*
X431000D02*
G03*
X431000Y180000I-1000J0D01*
G01*
X441000D02*
G03*
X441000Y180000I-1000J0D01*
G01*
X451000D02*
G03*
X451000Y180000I-1000J0D01*
G01*
X461000D02*
G03*
X461000Y180000I-1000J0D01*
G01*
X471000D02*
G03*
X471000Y180000I-1000J0D01*
G01*
X341000D02*
G03*
X341000Y180000I-1000J0D01*
G01*
X351000D02*
G03*
X351000Y180000I-1000J0D01*
G01*
X361000D02*
G03*
X361000Y180000I-1000J0D01*
G01*
X371000D02*
G03*
X371000Y180000I-1000J0D01*
G01*
X381000D02*
G03*
X381000Y180000I-1000J0D01*
G01*
X391000D02*
G03*
X391000Y180000I-1000J0D01*
G01*
X401000D02*
G03*
X401000Y180000I-1000J0D01*
G01*
X271000D02*
G03*
X271000Y180000I-1000J0D01*
G01*
X281000D02*
G03*
X281000Y180000I-1000J0D01*
G01*
X291000D02*
G03*
X291000Y180000I-1000J0D01*
G01*
X301000D02*
G03*
X301000Y180000I-1000J0D01*
G01*
X311000D02*
G03*
X311000Y180000I-1000J0D01*
G01*
X321000D02*
G03*
X321000Y180000I-1000J0D01*
G01*
X331000D02*
G03*
X331000Y180000I-1000J0D01*
G01*
X201000D02*
G03*
X201000Y180000I-1000J0D01*
G01*
X211000D02*
G03*
X211000Y180000I-1000J0D01*
G01*
X221000D02*
G03*
X221000Y180000I-1000J0D01*
G01*
X231000D02*
G03*
X231000Y180000I-1000J0D01*
G01*
X241000D02*
G03*
X241000Y180000I-1000J0D01*
G01*
X251000D02*
G03*
X251000Y180000I-1000J0D01*
G01*
X261000D02*
G03*
X261000Y180000I-1000J0D01*
G01*
X191000D02*
G03*
X191000Y180000I-1000J0D01*
G01*
X181000D02*
G03*
X181000Y180000I-1000J0D01*
G01*
X171000D02*
G03*
X171000Y180000I-1000J0D01*
G01*
X161000D02*
G03*
X161000Y180000I-1000J0D01*
G01*
X151000D02*
G03*
X151000Y180000I-1000J0D01*
G01*
X141000D02*
G03*
X141000Y180000I-1000J0D01*
G01*
X131000D02*
G03*
X131000Y180000I-1000J0D01*
G01*
X701000Y170000D02*
G03*
X701000Y170000I-1000J0D01*
G01*
X691000D02*
G03*
X691000Y170000I-1000J0D01*
G01*
X621000D02*
G03*
X621000Y170000I-1000J0D01*
G01*
X631000D02*
G03*
X631000Y170000I-1000J0D01*
G01*
X641000D02*
G03*
X641000Y170000I-1000J0D01*
G01*
X651000D02*
G03*
X651000Y170000I-1000J0D01*
G01*
X661000D02*
G03*
X661000Y170000I-1000J0D01*
G01*
X671000D02*
G03*
X671000Y170000I-1000J0D01*
G01*
X681000D02*
G03*
X681000Y170000I-1000J0D01*
G01*
X551000D02*
G03*
X551000Y170000I-1000J0D01*
G01*
X561000D02*
G03*
X561000Y170000I-1000J0D01*
G01*
X571000D02*
G03*
X571000Y170000I-1000J0D01*
G01*
X581000D02*
G03*
X581000Y170000I-1000J0D01*
G01*
X591000D02*
G03*
X591000Y170000I-1000J0D01*
G01*
X601000D02*
G03*
X601000Y170000I-1000J0D01*
G01*
X611000D02*
G03*
X611000Y170000I-1000J0D01*
G01*
X481000D02*
G03*
X481000Y170000I-1000J0D01*
G01*
X491000D02*
G03*
X491000Y170000I-1000J0D01*
G01*
X501000D02*
G03*
X501000Y170000I-1000J0D01*
G01*
X511000D02*
G03*
X511000Y170000I-1000J0D01*
G01*
X521000D02*
G03*
X521000Y170000I-1000J0D01*
G01*
X531000D02*
G03*
X531000Y170000I-1000J0D01*
G01*
X541000D02*
G03*
X541000Y170000I-1000J0D01*
G01*
X411000D02*
G03*
X411000Y170000I-1000J0D01*
G01*
X421000D02*
G03*
X421000Y170000I-1000J0D01*
G01*
X431000D02*
G03*
X431000Y170000I-1000J0D01*
G01*
X441000D02*
G03*
X441000Y170000I-1000J0D01*
G01*
X451000D02*
G03*
X451000Y170000I-1000J0D01*
G01*
X461000D02*
G03*
X461000Y170000I-1000J0D01*
G01*
X471000D02*
G03*
X471000Y170000I-1000J0D01*
G01*
X341000D02*
G03*
X341000Y170000I-1000J0D01*
G01*
X351000D02*
G03*
X351000Y170000I-1000J0D01*
G01*
X361000D02*
G03*
X361000Y170000I-1000J0D01*
G01*
X371000D02*
G03*
X371000Y170000I-1000J0D01*
G01*
X381000D02*
G03*
X381000Y170000I-1000J0D01*
G01*
X391000D02*
G03*
X391000Y170000I-1000J0D01*
G01*
X401000D02*
G03*
X401000Y170000I-1000J0D01*
G01*
X271000D02*
G03*
X271000Y170000I-1000J0D01*
G01*
X281000D02*
G03*
X281000Y170000I-1000J0D01*
G01*
X291000D02*
G03*
X291000Y170000I-1000J0D01*
G01*
X301000D02*
G03*
X301000Y170000I-1000J0D01*
G01*
X311000D02*
G03*
X311000Y170000I-1000J0D01*
G01*
X321000D02*
G03*
X321000Y170000I-1000J0D01*
G01*
X331000D02*
G03*
X331000Y170000I-1000J0D01*
G01*
X201000D02*
G03*
X201000Y170000I-1000J0D01*
G01*
X211000D02*
G03*
X211000Y170000I-1000J0D01*
G01*
X221000D02*
G03*
X221000Y170000I-1000J0D01*
G01*
X231000D02*
G03*
X231000Y170000I-1000J0D01*
G01*
X241000D02*
G03*
X241000Y170000I-1000J0D01*
G01*
X251000D02*
G03*
X251000Y170000I-1000J0D01*
G01*
X261000D02*
G03*
X261000Y170000I-1000J0D01*
G01*
X191000D02*
G03*
X191000Y170000I-1000J0D01*
G01*
X181000D02*
G03*
X181000Y170000I-1000J0D01*
G01*
X171000D02*
G03*
X171000Y170000I-1000J0D01*
G01*
X161000D02*
G03*
X161000Y170000I-1000J0D01*
G01*
X151000D02*
G03*
X151000Y170000I-1000J0D01*
G01*
X141000D02*
G03*
X141000Y170000I-1000J0D01*
G01*
X131000D02*
G03*
X131000Y170000I-1000J0D01*
G01*
Y240000D02*
G03*
X131000Y240000I-1000J0D01*
G01*
X141000D02*
G03*
X141000Y240000I-1000J0D01*
G01*
X151000D02*
G03*
X151000Y240000I-1000J0D01*
G01*
X161000D02*
G03*
X161000Y240000I-1000J0D01*
G01*
X171000D02*
G03*
X171000Y240000I-1000J0D01*
G01*
X181000D02*
G03*
X181000Y240000I-1000J0D01*
G01*
X191000D02*
G03*
X191000Y240000I-1000J0D01*
G01*
X261000D02*
G03*
X261000Y240000I-1000J0D01*
G01*
X251000D02*
G03*
X251000Y240000I-1000J0D01*
G01*
X241000D02*
G03*
X241000Y240000I-1000J0D01*
G01*
X231000D02*
G03*
X231000Y240000I-1000J0D01*
G01*
X221000D02*
G03*
X221000Y240000I-1000J0D01*
G01*
X211000D02*
G03*
X211000Y240000I-1000J0D01*
G01*
X201000D02*
G03*
X201000Y240000I-1000J0D01*
G01*
X331000D02*
G03*
X331000Y240000I-1000J0D01*
G01*
X321000D02*
G03*
X321000Y240000I-1000J0D01*
G01*
X311000D02*
G03*
X311000Y240000I-1000J0D01*
G01*
X301000D02*
G03*
X301000Y240000I-1000J0D01*
G01*
X291000D02*
G03*
X291000Y240000I-1000J0D01*
G01*
X281000D02*
G03*
X281000Y240000I-1000J0D01*
G01*
X271000D02*
G03*
X271000Y240000I-1000J0D01*
G01*
X401000D02*
G03*
X401000Y240000I-1000J0D01*
G01*
X391000D02*
G03*
X391000Y240000I-1000J0D01*
G01*
X381000D02*
G03*
X381000Y240000I-1000J0D01*
G01*
X371000D02*
G03*
X371000Y240000I-1000J0D01*
G01*
X361000D02*
G03*
X361000Y240000I-1000J0D01*
G01*
X351000D02*
G03*
X351000Y240000I-1000J0D01*
G01*
X341000D02*
G03*
X341000Y240000I-1000J0D01*
G01*
X471000D02*
G03*
X471000Y240000I-1000J0D01*
G01*
X461000D02*
G03*
X461000Y240000I-1000J0D01*
G01*
X451000D02*
G03*
X451000Y240000I-1000J0D01*
G01*
X441000D02*
G03*
X441000Y240000I-1000J0D01*
G01*
X431000D02*
G03*
X431000Y240000I-1000J0D01*
G01*
X421000D02*
G03*
X421000Y240000I-1000J0D01*
G01*
X411000D02*
G03*
X411000Y240000I-1000J0D01*
G01*
X541000D02*
G03*
X541000Y240000I-1000J0D01*
G01*
X531000D02*
G03*
X531000Y240000I-1000J0D01*
G01*
X521000D02*
G03*
X521000Y240000I-1000J0D01*
G01*
X511000D02*
G03*
X511000Y240000I-1000J0D01*
G01*
X501000D02*
G03*
X501000Y240000I-1000J0D01*
G01*
X491000D02*
G03*
X491000Y240000I-1000J0D01*
G01*
X481000D02*
G03*
X481000Y240000I-1000J0D01*
G01*
X611000D02*
G03*
X611000Y240000I-1000J0D01*
G01*
X601000D02*
G03*
X601000Y240000I-1000J0D01*
G01*
X591000D02*
G03*
X591000Y240000I-1000J0D01*
G01*
X581000D02*
G03*
X581000Y240000I-1000J0D01*
G01*
X571000D02*
G03*
X571000Y240000I-1000J0D01*
G01*
X561000D02*
G03*
X561000Y240000I-1000J0D01*
G01*
X551000D02*
G03*
X551000Y240000I-1000J0D01*
G01*
X681000D02*
G03*
X681000Y240000I-1000J0D01*
G01*
X671000D02*
G03*
X671000Y240000I-1000J0D01*
G01*
X661000D02*
G03*
X661000Y240000I-1000J0D01*
G01*
X651000D02*
G03*
X651000Y240000I-1000J0D01*
G01*
X641000D02*
G03*
X641000Y240000I-1000J0D01*
G01*
X631000D02*
G03*
X631000Y240000I-1000J0D01*
G01*
X621000D02*
G03*
X621000Y240000I-1000J0D01*
G01*
X691000D02*
G03*
X691000Y240000I-1000J0D01*
G01*
X701000D02*
G03*
X701000Y240000I-1000J0D01*
G01*
Y230000D02*
G03*
X701000Y230000I-1000J0D01*
G01*
X691000D02*
G03*
X691000Y230000I-1000J0D01*
G01*
X621000D02*
G03*
X621000Y230000I-1000J0D01*
G01*
X631000D02*
G03*
X631000Y230000I-1000J0D01*
G01*
X641000D02*
G03*
X641000Y230000I-1000J0D01*
G01*
X651000D02*
G03*
X651000Y230000I-1000J0D01*
G01*
X661000D02*
G03*
X661000Y230000I-1000J0D01*
G01*
X671000D02*
G03*
X671000Y230000I-1000J0D01*
G01*
X681000D02*
G03*
X681000Y230000I-1000J0D01*
G01*
X551000D02*
G03*
X551000Y230000I-1000J0D01*
G01*
X561000D02*
G03*
X561000Y230000I-1000J0D01*
G01*
X571000D02*
G03*
X571000Y230000I-1000J0D01*
G01*
X581000D02*
G03*
X581000Y230000I-1000J0D01*
G01*
X591000D02*
G03*
X591000Y230000I-1000J0D01*
G01*
X601000D02*
G03*
X601000Y230000I-1000J0D01*
G01*
X611000D02*
G03*
X611000Y230000I-1000J0D01*
G01*
X481000D02*
G03*
X481000Y230000I-1000J0D01*
G01*
X491000D02*
G03*
X491000Y230000I-1000J0D01*
G01*
X501000D02*
G03*
X501000Y230000I-1000J0D01*
G01*
X511000D02*
G03*
X511000Y230000I-1000J0D01*
G01*
X521000D02*
G03*
X521000Y230000I-1000J0D01*
G01*
X531000D02*
G03*
X531000Y230000I-1000J0D01*
G01*
X541000D02*
G03*
X541000Y230000I-1000J0D01*
G01*
X411000D02*
G03*
X411000Y230000I-1000J0D01*
G01*
X421000D02*
G03*
X421000Y230000I-1000J0D01*
G01*
X431000D02*
G03*
X431000Y230000I-1000J0D01*
G01*
X441000D02*
G03*
X441000Y230000I-1000J0D01*
G01*
X451000D02*
G03*
X451000Y230000I-1000J0D01*
G01*
X461000D02*
G03*
X461000Y230000I-1000J0D01*
G01*
X471000D02*
G03*
X471000Y230000I-1000J0D01*
G01*
X341000D02*
G03*
X341000Y230000I-1000J0D01*
G01*
X351000D02*
G03*
X351000Y230000I-1000J0D01*
G01*
X361000D02*
G03*
X361000Y230000I-1000J0D01*
G01*
X371000D02*
G03*
X371000Y230000I-1000J0D01*
G01*
X381000D02*
G03*
X381000Y230000I-1000J0D01*
G01*
X391000D02*
G03*
X391000Y230000I-1000J0D01*
G01*
X401000D02*
G03*
X401000Y230000I-1000J0D01*
G01*
X271000D02*
G03*
X271000Y230000I-1000J0D01*
G01*
X281000D02*
G03*
X281000Y230000I-1000J0D01*
G01*
X291000D02*
G03*
X291000Y230000I-1000J0D01*
G01*
X301000D02*
G03*
X301000Y230000I-1000J0D01*
G01*
X311000D02*
G03*
X311000Y230000I-1000J0D01*
G01*
X321000D02*
G03*
X321000Y230000I-1000J0D01*
G01*
X331000D02*
G03*
X331000Y230000I-1000J0D01*
G01*
X201000D02*
G03*
X201000Y230000I-1000J0D01*
G01*
X211000D02*
G03*
X211000Y230000I-1000J0D01*
G01*
X221000D02*
G03*
X221000Y230000I-1000J0D01*
G01*
X231000D02*
G03*
X231000Y230000I-1000J0D01*
G01*
X241000D02*
G03*
X241000Y230000I-1000J0D01*
G01*
X251000D02*
G03*
X251000Y230000I-1000J0D01*
G01*
X261000D02*
G03*
X261000Y230000I-1000J0D01*
G01*
X191000D02*
G03*
X191000Y230000I-1000J0D01*
G01*
X181000D02*
G03*
X181000Y230000I-1000J0D01*
G01*
X171000D02*
G03*
X171000Y230000I-1000J0D01*
G01*
X161000D02*
G03*
X161000Y230000I-1000J0D01*
G01*
X151000D02*
G03*
X151000Y230000I-1000J0D01*
G01*
X141000D02*
G03*
X141000Y230000I-1000J0D01*
G01*
X131000D02*
G03*
X131000Y230000I-1000J0D01*
G01*
X701000Y220000D02*
G03*
X701000Y220000I-1000J0D01*
G01*
X691000D02*
G03*
X691000Y220000I-1000J0D01*
G01*
X621000D02*
G03*
X621000Y220000I-1000J0D01*
G01*
X631000D02*
G03*
X631000Y220000I-1000J0D01*
G01*
X641000D02*
G03*
X641000Y220000I-1000J0D01*
G01*
X651000D02*
G03*
X651000Y220000I-1000J0D01*
G01*
X661000D02*
G03*
X661000Y220000I-1000J0D01*
G01*
X671000D02*
G03*
X671000Y220000I-1000J0D01*
G01*
X681000D02*
G03*
X681000Y220000I-1000J0D01*
G01*
X551000D02*
G03*
X551000Y220000I-1000J0D01*
G01*
X561000D02*
G03*
X561000Y220000I-1000J0D01*
G01*
X571000D02*
G03*
X571000Y220000I-1000J0D01*
G01*
X581000D02*
G03*
X581000Y220000I-1000J0D01*
G01*
X591000D02*
G03*
X591000Y220000I-1000J0D01*
G01*
X601000D02*
G03*
X601000Y220000I-1000J0D01*
G01*
X611000D02*
G03*
X611000Y220000I-1000J0D01*
G01*
X481000D02*
G03*
X481000Y220000I-1000J0D01*
G01*
X491000D02*
G03*
X491000Y220000I-1000J0D01*
G01*
X501000D02*
G03*
X501000Y220000I-1000J0D01*
G01*
X511000D02*
G03*
X511000Y220000I-1000J0D01*
G01*
X521000D02*
G03*
X521000Y220000I-1000J0D01*
G01*
X531000D02*
G03*
X531000Y220000I-1000J0D01*
G01*
X541000D02*
G03*
X541000Y220000I-1000J0D01*
G01*
X411000D02*
G03*
X411000Y220000I-1000J0D01*
G01*
X421000D02*
G03*
X421000Y220000I-1000J0D01*
G01*
X431000D02*
G03*
X431000Y220000I-1000J0D01*
G01*
X441000D02*
G03*
X441000Y220000I-1000J0D01*
G01*
X451000D02*
G03*
X451000Y220000I-1000J0D01*
G01*
X461000D02*
G03*
X461000Y220000I-1000J0D01*
G01*
X471000D02*
G03*
X471000Y220000I-1000J0D01*
G01*
X341000D02*
G03*
X341000Y220000I-1000J0D01*
G01*
X351000D02*
G03*
X351000Y220000I-1000J0D01*
G01*
X361000D02*
G03*
X361000Y220000I-1000J0D01*
G01*
X371000D02*
G03*
X371000Y220000I-1000J0D01*
G01*
X381000D02*
G03*
X381000Y220000I-1000J0D01*
G01*
X391000D02*
G03*
X391000Y220000I-1000J0D01*
G01*
X401000D02*
G03*
X401000Y220000I-1000J0D01*
G01*
X271000D02*
G03*
X271000Y220000I-1000J0D01*
G01*
X281000D02*
G03*
X281000Y220000I-1000J0D01*
G01*
X291000D02*
G03*
X291000Y220000I-1000J0D01*
G01*
X301000D02*
G03*
X301000Y220000I-1000J0D01*
G01*
X311000D02*
G03*
X311000Y220000I-1000J0D01*
G01*
X321000D02*
G03*
X321000Y220000I-1000J0D01*
G01*
X331000D02*
G03*
X331000Y220000I-1000J0D01*
G01*
X201000D02*
G03*
X201000Y220000I-1000J0D01*
G01*
X211000D02*
G03*
X211000Y220000I-1000J0D01*
G01*
X221000D02*
G03*
X221000Y220000I-1000J0D01*
G01*
X231000D02*
G03*
X231000Y220000I-1000J0D01*
G01*
X241000D02*
G03*
X241000Y220000I-1000J0D01*
G01*
X251000D02*
G03*
X251000Y220000I-1000J0D01*
G01*
X261000D02*
G03*
X261000Y220000I-1000J0D01*
G01*
X191000D02*
G03*
X191000Y220000I-1000J0D01*
G01*
X181000D02*
G03*
X181000Y220000I-1000J0D01*
G01*
X171000D02*
G03*
X171000Y220000I-1000J0D01*
G01*
X161000D02*
G03*
X161000Y220000I-1000J0D01*
G01*
X151000D02*
G03*
X151000Y220000I-1000J0D01*
G01*
X141000D02*
G03*
X141000Y220000I-1000J0D01*
G01*
X131000D02*
G03*
X131000Y220000I-1000J0D01*
G01*
X701000Y210000D02*
G03*
X701000Y210000I-1000J0D01*
G01*
X691000D02*
G03*
X691000Y210000I-1000J0D01*
G01*
X621000D02*
G03*
X621000Y210000I-1000J0D01*
G01*
X631000D02*
G03*
X631000Y210000I-1000J0D01*
G01*
X641000D02*
G03*
X641000Y210000I-1000J0D01*
G01*
X651000D02*
G03*
X651000Y210000I-1000J0D01*
G01*
X661000D02*
G03*
X661000Y210000I-1000J0D01*
G01*
X671000D02*
G03*
X671000Y210000I-1000J0D01*
G01*
X681000D02*
G03*
X681000Y210000I-1000J0D01*
G01*
X551000D02*
G03*
X551000Y210000I-1000J0D01*
G01*
X561000D02*
G03*
X561000Y210000I-1000J0D01*
G01*
X571000D02*
G03*
X571000Y210000I-1000J0D01*
G01*
X581000D02*
G03*
X581000Y210000I-1000J0D01*
G01*
X591000D02*
G03*
X591000Y210000I-1000J0D01*
G01*
X601000D02*
G03*
X601000Y210000I-1000J0D01*
G01*
X611000D02*
G03*
X611000Y210000I-1000J0D01*
G01*
X481000D02*
G03*
X481000Y210000I-1000J0D01*
G01*
X491000D02*
G03*
X491000Y210000I-1000J0D01*
G01*
X501000D02*
G03*
X501000Y210000I-1000J0D01*
G01*
X511000D02*
G03*
X511000Y210000I-1000J0D01*
G01*
X521000D02*
G03*
X521000Y210000I-1000J0D01*
G01*
X531000D02*
G03*
X531000Y210000I-1000J0D01*
G01*
X541000D02*
G03*
X541000Y210000I-1000J0D01*
G01*
X411000D02*
G03*
X411000Y210000I-1000J0D01*
G01*
X421000D02*
G03*
X421000Y210000I-1000J0D01*
G01*
X431000D02*
G03*
X431000Y210000I-1000J0D01*
G01*
X441000D02*
G03*
X441000Y210000I-1000J0D01*
G01*
X451000D02*
G03*
X451000Y210000I-1000J0D01*
G01*
X461000D02*
G03*
X461000Y210000I-1000J0D01*
G01*
X471000D02*
G03*
X471000Y210000I-1000J0D01*
G01*
X341000D02*
G03*
X341000Y210000I-1000J0D01*
G01*
X351000D02*
G03*
X351000Y210000I-1000J0D01*
G01*
X361000D02*
G03*
X361000Y210000I-1000J0D01*
G01*
X371000D02*
G03*
X371000Y210000I-1000J0D01*
G01*
X381000D02*
G03*
X381000Y210000I-1000J0D01*
G01*
X391000D02*
G03*
X391000Y210000I-1000J0D01*
G01*
X401000D02*
G03*
X401000Y210000I-1000J0D01*
G01*
X271000D02*
G03*
X271000Y210000I-1000J0D01*
G01*
X281000D02*
G03*
X281000Y210000I-1000J0D01*
G01*
X291000D02*
G03*
X291000Y210000I-1000J0D01*
G01*
X301000D02*
G03*
X301000Y210000I-1000J0D01*
G01*
X311000D02*
G03*
X311000Y210000I-1000J0D01*
G01*
X321000D02*
G03*
X321000Y210000I-1000J0D01*
G01*
X331000D02*
G03*
X331000Y210000I-1000J0D01*
G01*
X201000D02*
G03*
X201000Y210000I-1000J0D01*
G01*
X211000D02*
G03*
X211000Y210000I-1000J0D01*
G01*
X221000D02*
G03*
X221000Y210000I-1000J0D01*
G01*
X231000D02*
G03*
X231000Y210000I-1000J0D01*
G01*
X241000D02*
G03*
X241000Y210000I-1000J0D01*
G01*
X251000D02*
G03*
X251000Y210000I-1000J0D01*
G01*
X261000D02*
G03*
X261000Y210000I-1000J0D01*
G01*
X191000D02*
G03*
X191000Y210000I-1000J0D01*
G01*
X181000D02*
G03*
X181000Y210000I-1000J0D01*
G01*
X171000D02*
G03*
X171000Y210000I-1000J0D01*
G01*
X161000D02*
G03*
X161000Y210000I-1000J0D01*
G01*
X151000D02*
G03*
X151000Y210000I-1000J0D01*
G01*
X141000D02*
G03*
X141000Y210000I-1000J0D01*
G01*
X131000D02*
G03*
X131000Y210000I-1000J0D01*
G01*
Y280000D02*
G03*
X131000Y280000I-1000J0D01*
G01*
X141000D02*
G03*
X141000Y280000I-1000J0D01*
G01*
X151000D02*
G03*
X151000Y280000I-1000J0D01*
G01*
X161000D02*
G03*
X161000Y280000I-1000J0D01*
G01*
X171000D02*
G03*
X171000Y280000I-1000J0D01*
G01*
X181000D02*
G03*
X181000Y280000I-1000J0D01*
G01*
X191000D02*
G03*
X191000Y280000I-1000J0D01*
G01*
X261000D02*
G03*
X261000Y280000I-1000J0D01*
G01*
X251000D02*
G03*
X251000Y280000I-1000J0D01*
G01*
X241000D02*
G03*
X241000Y280000I-1000J0D01*
G01*
X231000D02*
G03*
X231000Y280000I-1000J0D01*
G01*
X221000D02*
G03*
X221000Y280000I-1000J0D01*
G01*
X211000D02*
G03*
X211000Y280000I-1000J0D01*
G01*
X201000D02*
G03*
X201000Y280000I-1000J0D01*
G01*
X331000D02*
G03*
X331000Y280000I-1000J0D01*
G01*
X321000D02*
G03*
X321000Y280000I-1000J0D01*
G01*
X311000D02*
G03*
X311000Y280000I-1000J0D01*
G01*
X301000D02*
G03*
X301000Y280000I-1000J0D01*
G01*
X291000D02*
G03*
X291000Y280000I-1000J0D01*
G01*
X281000D02*
G03*
X281000Y280000I-1000J0D01*
G01*
X271000D02*
G03*
X271000Y280000I-1000J0D01*
G01*
X401000D02*
G03*
X401000Y280000I-1000J0D01*
G01*
X391000D02*
G03*
X391000Y280000I-1000J0D01*
G01*
X381000D02*
G03*
X381000Y280000I-1000J0D01*
G01*
X371000D02*
G03*
X371000Y280000I-1000J0D01*
G01*
X361000D02*
G03*
X361000Y280000I-1000J0D01*
G01*
X351000D02*
G03*
X351000Y280000I-1000J0D01*
G01*
X341000D02*
G03*
X341000Y280000I-1000J0D01*
G01*
X471000D02*
G03*
X471000Y280000I-1000J0D01*
G01*
X461000D02*
G03*
X461000Y280000I-1000J0D01*
G01*
X451000D02*
G03*
X451000Y280000I-1000J0D01*
G01*
X441000D02*
G03*
X441000Y280000I-1000J0D01*
G01*
X431000D02*
G03*
X431000Y280000I-1000J0D01*
G01*
X421000D02*
G03*
X421000Y280000I-1000J0D01*
G01*
X411000D02*
G03*
X411000Y280000I-1000J0D01*
G01*
X541000D02*
G03*
X541000Y280000I-1000J0D01*
G01*
X531000D02*
G03*
X531000Y280000I-1000J0D01*
G01*
X521000D02*
G03*
X521000Y280000I-1000J0D01*
G01*
X511000D02*
G03*
X511000Y280000I-1000J0D01*
G01*
X501000D02*
G03*
X501000Y280000I-1000J0D01*
G01*
X491000D02*
G03*
X491000Y280000I-1000J0D01*
G01*
X481000D02*
G03*
X481000Y280000I-1000J0D01*
G01*
X611000D02*
G03*
X611000Y280000I-1000J0D01*
G01*
X601000D02*
G03*
X601000Y280000I-1000J0D01*
G01*
X591000D02*
G03*
X591000Y280000I-1000J0D01*
G01*
X581000D02*
G03*
X581000Y280000I-1000J0D01*
G01*
X571000D02*
G03*
X571000Y280000I-1000J0D01*
G01*
X561000D02*
G03*
X561000Y280000I-1000J0D01*
G01*
X551000D02*
G03*
X551000Y280000I-1000J0D01*
G01*
X681000D02*
G03*
X681000Y280000I-1000J0D01*
G01*
X671000D02*
G03*
X671000Y280000I-1000J0D01*
G01*
X661000D02*
G03*
X661000Y280000I-1000J0D01*
G01*
X651000D02*
G03*
X651000Y280000I-1000J0D01*
G01*
X641000D02*
G03*
X641000Y280000I-1000J0D01*
G01*
X631000D02*
G03*
X631000Y280000I-1000J0D01*
G01*
X621000D02*
G03*
X621000Y280000I-1000J0D01*
G01*
X691000D02*
G03*
X691000Y280000I-1000J0D01*
G01*
X701000D02*
G03*
X701000Y280000I-1000J0D01*
G01*
Y270000D02*
G03*
X701000Y270000I-1000J0D01*
G01*
X691000D02*
G03*
X691000Y270000I-1000J0D01*
G01*
X621000D02*
G03*
X621000Y270000I-1000J0D01*
G01*
X631000D02*
G03*
X631000Y270000I-1000J0D01*
G01*
X641000D02*
G03*
X641000Y270000I-1000J0D01*
G01*
X651000D02*
G03*
X651000Y270000I-1000J0D01*
G01*
X661000D02*
G03*
X661000Y270000I-1000J0D01*
G01*
X671000D02*
G03*
X671000Y270000I-1000J0D01*
G01*
X681000D02*
G03*
X681000Y270000I-1000J0D01*
G01*
X551000D02*
G03*
X551000Y270000I-1000J0D01*
G01*
X561000D02*
G03*
X561000Y270000I-1000J0D01*
G01*
X571000D02*
G03*
X571000Y270000I-1000J0D01*
G01*
X581000D02*
G03*
X581000Y270000I-1000J0D01*
G01*
X591000D02*
G03*
X591000Y270000I-1000J0D01*
G01*
X601000D02*
G03*
X601000Y270000I-1000J0D01*
G01*
X611000D02*
G03*
X611000Y270000I-1000J0D01*
G01*
X481000D02*
G03*
X481000Y270000I-1000J0D01*
G01*
X491000D02*
G03*
X491000Y270000I-1000J0D01*
G01*
X501000D02*
G03*
X501000Y270000I-1000J0D01*
G01*
X511000D02*
G03*
X511000Y270000I-1000J0D01*
G01*
X521000D02*
G03*
X521000Y270000I-1000J0D01*
G01*
X531000D02*
G03*
X531000Y270000I-1000J0D01*
G01*
X541000D02*
G03*
X541000Y270000I-1000J0D01*
G01*
X411000D02*
G03*
X411000Y270000I-1000J0D01*
G01*
X421000D02*
G03*
X421000Y270000I-1000J0D01*
G01*
X431000D02*
G03*
X431000Y270000I-1000J0D01*
G01*
X441000D02*
G03*
X441000Y270000I-1000J0D01*
G01*
X451000D02*
G03*
X451000Y270000I-1000J0D01*
G01*
X461000D02*
G03*
X461000Y270000I-1000J0D01*
G01*
X471000D02*
G03*
X471000Y270000I-1000J0D01*
G01*
X341000D02*
G03*
X341000Y270000I-1000J0D01*
G01*
X351000D02*
G03*
X351000Y270000I-1000J0D01*
G01*
X361000D02*
G03*
X361000Y270000I-1000J0D01*
G01*
X371000D02*
G03*
X371000Y270000I-1000J0D01*
G01*
X381000D02*
G03*
X381000Y270000I-1000J0D01*
G01*
X391000D02*
G03*
X391000Y270000I-1000J0D01*
G01*
X401000D02*
G03*
X401000Y270000I-1000J0D01*
G01*
X271000D02*
G03*
X271000Y270000I-1000J0D01*
G01*
X281000D02*
G03*
X281000Y270000I-1000J0D01*
G01*
X291000D02*
G03*
X291000Y270000I-1000J0D01*
G01*
X301000D02*
G03*
X301000Y270000I-1000J0D01*
G01*
X311000D02*
G03*
X311000Y270000I-1000J0D01*
G01*
X321000D02*
G03*
X321000Y270000I-1000J0D01*
G01*
X331000D02*
G03*
X331000Y270000I-1000J0D01*
G01*
X201000D02*
G03*
X201000Y270000I-1000J0D01*
G01*
X211000D02*
G03*
X211000Y270000I-1000J0D01*
G01*
X221000D02*
G03*
X221000Y270000I-1000J0D01*
G01*
X231000D02*
G03*
X231000Y270000I-1000J0D01*
G01*
X241000D02*
G03*
X241000Y270000I-1000J0D01*
G01*
X251000D02*
G03*
X251000Y270000I-1000J0D01*
G01*
X261000D02*
G03*
X261000Y270000I-1000J0D01*
G01*
X191000D02*
G03*
X191000Y270000I-1000J0D01*
G01*
X181000D02*
G03*
X181000Y270000I-1000J0D01*
G01*
X171000D02*
G03*
X171000Y270000I-1000J0D01*
G01*
X161000D02*
G03*
X161000Y270000I-1000J0D01*
G01*
X151000D02*
G03*
X151000Y270000I-1000J0D01*
G01*
X141000D02*
G03*
X141000Y270000I-1000J0D01*
G01*
X131000D02*
G03*
X131000Y270000I-1000J0D01*
G01*
X701000Y260000D02*
G03*
X701000Y260000I-1000J0D01*
G01*
X691000D02*
G03*
X691000Y260000I-1000J0D01*
G01*
X621000D02*
G03*
X621000Y260000I-1000J0D01*
G01*
X631000D02*
G03*
X631000Y260000I-1000J0D01*
G01*
X641000D02*
G03*
X641000Y260000I-1000J0D01*
G01*
X651000D02*
G03*
X651000Y260000I-1000J0D01*
G01*
X661000D02*
G03*
X661000Y260000I-1000J0D01*
G01*
X671000D02*
G03*
X671000Y260000I-1000J0D01*
G01*
X681000D02*
G03*
X681000Y260000I-1000J0D01*
G01*
X551000D02*
G03*
X551000Y260000I-1000J0D01*
G01*
X561000D02*
G03*
X561000Y260000I-1000J0D01*
G01*
X571000D02*
G03*
X571000Y260000I-1000J0D01*
G01*
X581000D02*
G03*
X581000Y260000I-1000J0D01*
G01*
X591000D02*
G03*
X591000Y260000I-1000J0D01*
G01*
X601000D02*
G03*
X601000Y260000I-1000J0D01*
G01*
X611000D02*
G03*
X611000Y260000I-1000J0D01*
G01*
X481000D02*
G03*
X481000Y260000I-1000J0D01*
G01*
X491000D02*
G03*
X491000Y260000I-1000J0D01*
G01*
X501000D02*
G03*
X501000Y260000I-1000J0D01*
G01*
X511000D02*
G03*
X511000Y260000I-1000J0D01*
G01*
X521000D02*
G03*
X521000Y260000I-1000J0D01*
G01*
X531000D02*
G03*
X531000Y260000I-1000J0D01*
G01*
X541000D02*
G03*
X541000Y260000I-1000J0D01*
G01*
X411000D02*
G03*
X411000Y260000I-1000J0D01*
G01*
X421000D02*
G03*
X421000Y260000I-1000J0D01*
G01*
X431000D02*
G03*
X431000Y260000I-1000J0D01*
G01*
X441000D02*
G03*
X441000Y260000I-1000J0D01*
G01*
X451000D02*
G03*
X451000Y260000I-1000J0D01*
G01*
X461000D02*
G03*
X461000Y260000I-1000J0D01*
G01*
X471000D02*
G03*
X471000Y260000I-1000J0D01*
G01*
X341000D02*
G03*
X341000Y260000I-1000J0D01*
G01*
X351000D02*
G03*
X351000Y260000I-1000J0D01*
G01*
X361000D02*
G03*
X361000Y260000I-1000J0D01*
G01*
X371000D02*
G03*
X371000Y260000I-1000J0D01*
G01*
X381000D02*
G03*
X381000Y260000I-1000J0D01*
G01*
X391000D02*
G03*
X391000Y260000I-1000J0D01*
G01*
X401000D02*
G03*
X401000Y260000I-1000J0D01*
G01*
X271000D02*
G03*
X271000Y260000I-1000J0D01*
G01*
X281000D02*
G03*
X281000Y260000I-1000J0D01*
G01*
X291000D02*
G03*
X291000Y260000I-1000J0D01*
G01*
X301000D02*
G03*
X301000Y260000I-1000J0D01*
G01*
X311000D02*
G03*
X311000Y260000I-1000J0D01*
G01*
X321000D02*
G03*
X321000Y260000I-1000J0D01*
G01*
X331000D02*
G03*
X331000Y260000I-1000J0D01*
G01*
X201000D02*
G03*
X201000Y260000I-1000J0D01*
G01*
X211000D02*
G03*
X211000Y260000I-1000J0D01*
G01*
X221000D02*
G03*
X221000Y260000I-1000J0D01*
G01*
X231000D02*
G03*
X231000Y260000I-1000J0D01*
G01*
X241000D02*
G03*
X241000Y260000I-1000J0D01*
G01*
X251000D02*
G03*
X251000Y260000I-1000J0D01*
G01*
X261000D02*
G03*
X261000Y260000I-1000J0D01*
G01*
X191000D02*
G03*
X191000Y260000I-1000J0D01*
G01*
X181000D02*
G03*
X181000Y260000I-1000J0D01*
G01*
X171000D02*
G03*
X171000Y260000I-1000J0D01*
G01*
X161000D02*
G03*
X161000Y260000I-1000J0D01*
G01*
X151000D02*
G03*
X151000Y260000I-1000J0D01*
G01*
X141000D02*
G03*
X141000Y260000I-1000J0D01*
G01*
X131000D02*
G03*
X131000Y260000I-1000J0D01*
G01*
X701000Y250000D02*
G03*
X701000Y250000I-1000J0D01*
G01*
X691000D02*
G03*
X691000Y250000I-1000J0D01*
G01*
X621000D02*
G03*
X621000Y250000I-1000J0D01*
G01*
X631000D02*
G03*
X631000Y250000I-1000J0D01*
G01*
X641000D02*
G03*
X641000Y250000I-1000J0D01*
G01*
X651000D02*
G03*
X651000Y250000I-1000J0D01*
G01*
X661000D02*
G03*
X661000Y250000I-1000J0D01*
G01*
X671000D02*
G03*
X671000Y250000I-1000J0D01*
G01*
X681000D02*
G03*
X681000Y250000I-1000J0D01*
G01*
X551000D02*
G03*
X551000Y250000I-1000J0D01*
G01*
X561000D02*
G03*
X561000Y250000I-1000J0D01*
G01*
X571000D02*
G03*
X571000Y250000I-1000J0D01*
G01*
X581000D02*
G03*
X581000Y250000I-1000J0D01*
G01*
X591000D02*
G03*
X591000Y250000I-1000J0D01*
G01*
X601000D02*
G03*
X601000Y250000I-1000J0D01*
G01*
X611000D02*
G03*
X611000Y250000I-1000J0D01*
G01*
X481000D02*
G03*
X481000Y250000I-1000J0D01*
G01*
X491000D02*
G03*
X491000Y250000I-1000J0D01*
G01*
X501000D02*
G03*
X501000Y250000I-1000J0D01*
G01*
X511000D02*
G03*
X511000Y250000I-1000J0D01*
G01*
X521000D02*
G03*
X521000Y250000I-1000J0D01*
G01*
X531000D02*
G03*
X531000Y250000I-1000J0D01*
G01*
X541000D02*
G03*
X541000Y250000I-1000J0D01*
G01*
X411000D02*
G03*
X411000Y250000I-1000J0D01*
G01*
X421000D02*
G03*
X421000Y250000I-1000J0D01*
G01*
X431000D02*
G03*
X431000Y250000I-1000J0D01*
G01*
X441000D02*
G03*
X441000Y250000I-1000J0D01*
G01*
X451000D02*
G03*
X451000Y250000I-1000J0D01*
G01*
X461000D02*
G03*
X461000Y250000I-1000J0D01*
G01*
X471000D02*
G03*
X471000Y250000I-1000J0D01*
G01*
X341000D02*
G03*
X341000Y250000I-1000J0D01*
G01*
X351000D02*
G03*
X351000Y250000I-1000J0D01*
G01*
X361000D02*
G03*
X361000Y250000I-1000J0D01*
G01*
X371000D02*
G03*
X371000Y250000I-1000J0D01*
G01*
X381000D02*
G03*
X381000Y250000I-1000J0D01*
G01*
X391000D02*
G03*
X391000Y250000I-1000J0D01*
G01*
X401000D02*
G03*
X401000Y250000I-1000J0D01*
G01*
X271000D02*
G03*
X271000Y250000I-1000J0D01*
G01*
X281000D02*
G03*
X281000Y250000I-1000J0D01*
G01*
X291000D02*
G03*
X291000Y250000I-1000J0D01*
G01*
X301000D02*
G03*
X301000Y250000I-1000J0D01*
G01*
X311000D02*
G03*
X311000Y250000I-1000J0D01*
G01*
X321000D02*
G03*
X321000Y250000I-1000J0D01*
G01*
X331000D02*
G03*
X331000Y250000I-1000J0D01*
G01*
X201000D02*
G03*
X201000Y250000I-1000J0D01*
G01*
X211000D02*
G03*
X211000Y250000I-1000J0D01*
G01*
X221000D02*
G03*
X221000Y250000I-1000J0D01*
G01*
X231000D02*
G03*
X231000Y250000I-1000J0D01*
G01*
X241000D02*
G03*
X241000Y250000I-1000J0D01*
G01*
X251000D02*
G03*
X251000Y250000I-1000J0D01*
G01*
X261000D02*
G03*
X261000Y250000I-1000J0D01*
G01*
X191000D02*
G03*
X191000Y250000I-1000J0D01*
G01*
X181000D02*
G03*
X181000Y250000I-1000J0D01*
G01*
X171000D02*
G03*
X171000Y250000I-1000J0D01*
G01*
X161000D02*
G03*
X161000Y250000I-1000J0D01*
G01*
X151000D02*
G03*
X151000Y250000I-1000J0D01*
G01*
X141000D02*
G03*
X141000Y250000I-1000J0D01*
G01*
X131000D02*
G03*
X131000Y250000I-1000J0D01*
G01*
Y320000D02*
G03*
X131000Y320000I-1000J0D01*
G01*
X141000D02*
G03*
X141000Y320000I-1000J0D01*
G01*
X151000D02*
G03*
X151000Y320000I-1000J0D01*
G01*
X161000D02*
G03*
X161000Y320000I-1000J0D01*
G01*
X171000D02*
G03*
X171000Y320000I-1000J0D01*
G01*
X181000D02*
G03*
X181000Y320000I-1000J0D01*
G01*
X191000D02*
G03*
X191000Y320000I-1000J0D01*
G01*
X261000D02*
G03*
X261000Y320000I-1000J0D01*
G01*
X251000D02*
G03*
X251000Y320000I-1000J0D01*
G01*
X241000D02*
G03*
X241000Y320000I-1000J0D01*
G01*
X231000D02*
G03*
X231000Y320000I-1000J0D01*
G01*
X221000D02*
G03*
X221000Y320000I-1000J0D01*
G01*
X211000D02*
G03*
X211000Y320000I-1000J0D01*
G01*
X201000D02*
G03*
X201000Y320000I-1000J0D01*
G01*
X331000D02*
G03*
X331000Y320000I-1000J0D01*
G01*
X321000D02*
G03*
X321000Y320000I-1000J0D01*
G01*
X311000D02*
G03*
X311000Y320000I-1000J0D01*
G01*
X301000D02*
G03*
X301000Y320000I-1000J0D01*
G01*
X291000D02*
G03*
X291000Y320000I-1000J0D01*
G01*
X281000D02*
G03*
X281000Y320000I-1000J0D01*
G01*
X271000D02*
G03*
X271000Y320000I-1000J0D01*
G01*
X401000D02*
G03*
X401000Y320000I-1000J0D01*
G01*
X391000D02*
G03*
X391000Y320000I-1000J0D01*
G01*
X381000D02*
G03*
X381000Y320000I-1000J0D01*
G01*
X371000D02*
G03*
X371000Y320000I-1000J0D01*
G01*
X361000D02*
G03*
X361000Y320000I-1000J0D01*
G01*
X351000D02*
G03*
X351000Y320000I-1000J0D01*
G01*
X341000D02*
G03*
X341000Y320000I-1000J0D01*
G01*
X471000D02*
G03*
X471000Y320000I-1000J0D01*
G01*
X461000D02*
G03*
X461000Y320000I-1000J0D01*
G01*
X451000D02*
G03*
X451000Y320000I-1000J0D01*
G01*
X441000D02*
G03*
X441000Y320000I-1000J0D01*
G01*
X431000D02*
G03*
X431000Y320000I-1000J0D01*
G01*
X421000D02*
G03*
X421000Y320000I-1000J0D01*
G01*
X411000D02*
G03*
X411000Y320000I-1000J0D01*
G01*
X541000D02*
G03*
X541000Y320000I-1000J0D01*
G01*
X531000D02*
G03*
X531000Y320000I-1000J0D01*
G01*
X521000D02*
G03*
X521000Y320000I-1000J0D01*
G01*
X511000D02*
G03*
X511000Y320000I-1000J0D01*
G01*
X501000D02*
G03*
X501000Y320000I-1000J0D01*
G01*
X491000D02*
G03*
X491000Y320000I-1000J0D01*
G01*
X481000D02*
G03*
X481000Y320000I-1000J0D01*
G01*
X611000D02*
G03*
X611000Y320000I-1000J0D01*
G01*
X601000D02*
G03*
X601000Y320000I-1000J0D01*
G01*
X591000D02*
G03*
X591000Y320000I-1000J0D01*
G01*
X581000D02*
G03*
X581000Y320000I-1000J0D01*
G01*
X571000D02*
G03*
X571000Y320000I-1000J0D01*
G01*
X561000D02*
G03*
X561000Y320000I-1000J0D01*
G01*
X551000D02*
G03*
X551000Y320000I-1000J0D01*
G01*
X681000D02*
G03*
X681000Y320000I-1000J0D01*
G01*
X671000D02*
G03*
X671000Y320000I-1000J0D01*
G01*
X661000D02*
G03*
X661000Y320000I-1000J0D01*
G01*
X651000D02*
G03*
X651000Y320000I-1000J0D01*
G01*
X641000D02*
G03*
X641000Y320000I-1000J0D01*
G01*
X631000D02*
G03*
X631000Y320000I-1000J0D01*
G01*
X621000D02*
G03*
X621000Y320000I-1000J0D01*
G01*
X691000D02*
G03*
X691000Y320000I-1000J0D01*
G01*
X701000D02*
G03*
X701000Y320000I-1000J0D01*
G01*
Y310000D02*
G03*
X701000Y310000I-1000J0D01*
G01*
X691000D02*
G03*
X691000Y310000I-1000J0D01*
G01*
X621000D02*
G03*
X621000Y310000I-1000J0D01*
G01*
X631000D02*
G03*
X631000Y310000I-1000J0D01*
G01*
X641000D02*
G03*
X641000Y310000I-1000J0D01*
G01*
X651000D02*
G03*
X651000Y310000I-1000J0D01*
G01*
X661000D02*
G03*
X661000Y310000I-1000J0D01*
G01*
X671000D02*
G03*
X671000Y310000I-1000J0D01*
G01*
X681000D02*
G03*
X681000Y310000I-1000J0D01*
G01*
X551000D02*
G03*
X551000Y310000I-1000J0D01*
G01*
X561000D02*
G03*
X561000Y310000I-1000J0D01*
G01*
X571000D02*
G03*
X571000Y310000I-1000J0D01*
G01*
X581000D02*
G03*
X581000Y310000I-1000J0D01*
G01*
X591000D02*
G03*
X591000Y310000I-1000J0D01*
G01*
X601000D02*
G03*
X601000Y310000I-1000J0D01*
G01*
X611000D02*
G03*
X611000Y310000I-1000J0D01*
G01*
X481000D02*
G03*
X481000Y310000I-1000J0D01*
G01*
X491000D02*
G03*
X491000Y310000I-1000J0D01*
G01*
X501000D02*
G03*
X501000Y310000I-1000J0D01*
G01*
X511000D02*
G03*
X511000Y310000I-1000J0D01*
G01*
X521000D02*
G03*
X521000Y310000I-1000J0D01*
G01*
X531000D02*
G03*
X531000Y310000I-1000J0D01*
G01*
X541000D02*
G03*
X541000Y310000I-1000J0D01*
G01*
X411000D02*
G03*
X411000Y310000I-1000J0D01*
G01*
X421000D02*
G03*
X421000Y310000I-1000J0D01*
G01*
X431000D02*
G03*
X431000Y310000I-1000J0D01*
G01*
X441000D02*
G03*
X441000Y310000I-1000J0D01*
G01*
X451000D02*
G03*
X451000Y310000I-1000J0D01*
G01*
X461000D02*
G03*
X461000Y310000I-1000J0D01*
G01*
X471000D02*
G03*
X471000Y310000I-1000J0D01*
G01*
X341000D02*
G03*
X341000Y310000I-1000J0D01*
G01*
X351000D02*
G03*
X351000Y310000I-1000J0D01*
G01*
X361000D02*
G03*
X361000Y310000I-1000J0D01*
G01*
X371000D02*
G03*
X371000Y310000I-1000J0D01*
G01*
X381000D02*
G03*
X381000Y310000I-1000J0D01*
G01*
X391000D02*
G03*
X391000Y310000I-1000J0D01*
G01*
X401000D02*
G03*
X401000Y310000I-1000J0D01*
G01*
X271000D02*
G03*
X271000Y310000I-1000J0D01*
G01*
X281000D02*
G03*
X281000Y310000I-1000J0D01*
G01*
X291000D02*
G03*
X291000Y310000I-1000J0D01*
G01*
X301000D02*
G03*
X301000Y310000I-1000J0D01*
G01*
X311000D02*
G03*
X311000Y310000I-1000J0D01*
G01*
X321000D02*
G03*
X321000Y310000I-1000J0D01*
G01*
X331000D02*
G03*
X331000Y310000I-1000J0D01*
G01*
X201000D02*
G03*
X201000Y310000I-1000J0D01*
G01*
X211000D02*
G03*
X211000Y310000I-1000J0D01*
G01*
X221000D02*
G03*
X221000Y310000I-1000J0D01*
G01*
X231000D02*
G03*
X231000Y310000I-1000J0D01*
G01*
X241000D02*
G03*
X241000Y310000I-1000J0D01*
G01*
X251000D02*
G03*
X251000Y310000I-1000J0D01*
G01*
X261000D02*
G03*
X261000Y310000I-1000J0D01*
G01*
X191000D02*
G03*
X191000Y310000I-1000J0D01*
G01*
X181000D02*
G03*
X181000Y310000I-1000J0D01*
G01*
X171000D02*
G03*
X171000Y310000I-1000J0D01*
G01*
X161000D02*
G03*
X161000Y310000I-1000J0D01*
G01*
X151000D02*
G03*
X151000Y310000I-1000J0D01*
G01*
X141000D02*
G03*
X141000Y310000I-1000J0D01*
G01*
X131000D02*
G03*
X131000Y310000I-1000J0D01*
G01*
X701000Y300000D02*
G03*
X701000Y300000I-1000J0D01*
G01*
X691000D02*
G03*
X691000Y300000I-1000J0D01*
G01*
X621000D02*
G03*
X621000Y300000I-1000J0D01*
G01*
X631000D02*
G03*
X631000Y300000I-1000J0D01*
G01*
X641000D02*
G03*
X641000Y300000I-1000J0D01*
G01*
X651000D02*
G03*
X651000Y300000I-1000J0D01*
G01*
X661000D02*
G03*
X661000Y300000I-1000J0D01*
G01*
X671000D02*
G03*
X671000Y300000I-1000J0D01*
G01*
X681000D02*
G03*
X681000Y300000I-1000J0D01*
G01*
X551000D02*
G03*
X551000Y300000I-1000J0D01*
G01*
X561000D02*
G03*
X561000Y300000I-1000J0D01*
G01*
X571000D02*
G03*
X571000Y300000I-1000J0D01*
G01*
X581000D02*
G03*
X581000Y300000I-1000J0D01*
G01*
X591000D02*
G03*
X591000Y300000I-1000J0D01*
G01*
X601000D02*
G03*
X601000Y300000I-1000J0D01*
G01*
X611000D02*
G03*
X611000Y300000I-1000J0D01*
G01*
X481000D02*
G03*
X481000Y300000I-1000J0D01*
G01*
X491000D02*
G03*
X491000Y300000I-1000J0D01*
G01*
X501000D02*
G03*
X501000Y300000I-1000J0D01*
G01*
X511000D02*
G03*
X511000Y300000I-1000J0D01*
G01*
X521000D02*
G03*
X521000Y300000I-1000J0D01*
G01*
X531000D02*
G03*
X531000Y300000I-1000J0D01*
G01*
X541000D02*
G03*
X541000Y300000I-1000J0D01*
G01*
X411000D02*
G03*
X411000Y300000I-1000J0D01*
G01*
X421000D02*
G03*
X421000Y300000I-1000J0D01*
G01*
X431000D02*
G03*
X431000Y300000I-1000J0D01*
G01*
X441000D02*
G03*
X441000Y300000I-1000J0D01*
G01*
X451000D02*
G03*
X451000Y300000I-1000J0D01*
G01*
X461000D02*
G03*
X461000Y300000I-1000J0D01*
G01*
X471000D02*
G03*
X471000Y300000I-1000J0D01*
G01*
X341000D02*
G03*
X341000Y300000I-1000J0D01*
G01*
X351000D02*
G03*
X351000Y300000I-1000J0D01*
G01*
X361000D02*
G03*
X361000Y300000I-1000J0D01*
G01*
X371000D02*
G03*
X371000Y300000I-1000J0D01*
G01*
X381000D02*
G03*
X381000Y300000I-1000J0D01*
G01*
X391000D02*
G03*
X391000Y300000I-1000J0D01*
G01*
X401000D02*
G03*
X401000Y300000I-1000J0D01*
G01*
X271000D02*
G03*
X271000Y300000I-1000J0D01*
G01*
X281000D02*
G03*
X281000Y300000I-1000J0D01*
G01*
X291000D02*
G03*
X291000Y300000I-1000J0D01*
G01*
X301000D02*
G03*
X301000Y300000I-1000J0D01*
G01*
X311000D02*
G03*
X311000Y300000I-1000J0D01*
G01*
X321000D02*
G03*
X321000Y300000I-1000J0D01*
G01*
X331000D02*
G03*
X331000Y300000I-1000J0D01*
G01*
X201000D02*
G03*
X201000Y300000I-1000J0D01*
G01*
X211000D02*
G03*
X211000Y300000I-1000J0D01*
G01*
X221000D02*
G03*
X221000Y300000I-1000J0D01*
G01*
X231000D02*
G03*
X231000Y300000I-1000J0D01*
G01*
X241000D02*
G03*
X241000Y300000I-1000J0D01*
G01*
X251000D02*
G03*
X251000Y300000I-1000J0D01*
G01*
X261000D02*
G03*
X261000Y300000I-1000J0D01*
G01*
X191000D02*
G03*
X191000Y300000I-1000J0D01*
G01*
X181000D02*
G03*
X181000Y300000I-1000J0D01*
G01*
X171000D02*
G03*
X171000Y300000I-1000J0D01*
G01*
X161000D02*
G03*
X161000Y300000I-1000J0D01*
G01*
X151000D02*
G03*
X151000Y300000I-1000J0D01*
G01*
X141000D02*
G03*
X141000Y300000I-1000J0D01*
G01*
X131000D02*
G03*
X131000Y300000I-1000J0D01*
G01*
X701000Y290000D02*
G03*
X701000Y290000I-1000J0D01*
G01*
X691000D02*
G03*
X691000Y290000I-1000J0D01*
G01*
X621000D02*
G03*
X621000Y290000I-1000J0D01*
G01*
X631000D02*
G03*
X631000Y290000I-1000J0D01*
G01*
X641000D02*
G03*
X641000Y290000I-1000J0D01*
G01*
X651000D02*
G03*
X651000Y290000I-1000J0D01*
G01*
X661000D02*
G03*
X661000Y290000I-1000J0D01*
G01*
X671000D02*
G03*
X671000Y290000I-1000J0D01*
G01*
X681000D02*
G03*
X681000Y290000I-1000J0D01*
G01*
X551000D02*
G03*
X551000Y290000I-1000J0D01*
G01*
X561000D02*
G03*
X561000Y290000I-1000J0D01*
G01*
X571000D02*
G03*
X571000Y290000I-1000J0D01*
G01*
X581000D02*
G03*
X581000Y290000I-1000J0D01*
G01*
X591000D02*
G03*
X591000Y290000I-1000J0D01*
G01*
X601000D02*
G03*
X601000Y290000I-1000J0D01*
G01*
X611000D02*
G03*
X611000Y290000I-1000J0D01*
G01*
X481000D02*
G03*
X481000Y290000I-1000J0D01*
G01*
X491000D02*
G03*
X491000Y290000I-1000J0D01*
G01*
X501000D02*
G03*
X501000Y290000I-1000J0D01*
G01*
X511000D02*
G03*
X511000Y290000I-1000J0D01*
G01*
X521000D02*
G03*
X521000Y290000I-1000J0D01*
G01*
X531000D02*
G03*
X531000Y290000I-1000J0D01*
G01*
X541000D02*
G03*
X541000Y290000I-1000J0D01*
G01*
X411000D02*
G03*
X411000Y290000I-1000J0D01*
G01*
X421000D02*
G03*
X421000Y290000I-1000J0D01*
G01*
X431000D02*
G03*
X431000Y290000I-1000J0D01*
G01*
X441000D02*
G03*
X441000Y290000I-1000J0D01*
G01*
X451000D02*
G03*
X451000Y290000I-1000J0D01*
G01*
X461000D02*
G03*
X461000Y290000I-1000J0D01*
G01*
X471000D02*
G03*
X471000Y290000I-1000J0D01*
G01*
X341000D02*
G03*
X341000Y290000I-1000J0D01*
G01*
X351000D02*
G03*
X351000Y290000I-1000J0D01*
G01*
X361000D02*
G03*
X361000Y290000I-1000J0D01*
G01*
X371000D02*
G03*
X371000Y290000I-1000J0D01*
G01*
X381000D02*
G03*
X381000Y290000I-1000J0D01*
G01*
X391000D02*
G03*
X391000Y290000I-1000J0D01*
G01*
X401000D02*
G03*
X401000Y290000I-1000J0D01*
G01*
X271000D02*
G03*
X271000Y290000I-1000J0D01*
G01*
X281000D02*
G03*
X281000Y290000I-1000J0D01*
G01*
X291000D02*
G03*
X291000Y290000I-1000J0D01*
G01*
X301000D02*
G03*
X301000Y290000I-1000J0D01*
G01*
X311000D02*
G03*
X311000Y290000I-1000J0D01*
G01*
X321000D02*
G03*
X321000Y290000I-1000J0D01*
G01*
X331000D02*
G03*
X331000Y290000I-1000J0D01*
G01*
X201000D02*
G03*
X201000Y290000I-1000J0D01*
G01*
X211000D02*
G03*
X211000Y290000I-1000J0D01*
G01*
X221000D02*
G03*
X221000Y290000I-1000J0D01*
G01*
X231000D02*
G03*
X231000Y290000I-1000J0D01*
G01*
X241000D02*
G03*
X241000Y290000I-1000J0D01*
G01*
X251000D02*
G03*
X251000Y290000I-1000J0D01*
G01*
X261000D02*
G03*
X261000Y290000I-1000J0D01*
G01*
X191000D02*
G03*
X191000Y290000I-1000J0D01*
G01*
X181000D02*
G03*
X181000Y290000I-1000J0D01*
G01*
X171000D02*
G03*
X171000Y290000I-1000J0D01*
G01*
X161000D02*
G03*
X161000Y290000I-1000J0D01*
G01*
X151000D02*
G03*
X151000Y290000I-1000J0D01*
G01*
X141000D02*
G03*
X141000Y290000I-1000J0D01*
G01*
X131000D02*
G03*
X131000Y290000I-1000J0D01*
G01*
Y360000D02*
G03*
X131000Y360000I-1000J0D01*
G01*
X141000D02*
G03*
X141000Y360000I-1000J0D01*
G01*
X151000D02*
G03*
X151000Y360000I-1000J0D01*
G01*
X161000D02*
G03*
X161000Y360000I-1000J0D01*
G01*
X171000D02*
G03*
X171000Y360000I-1000J0D01*
G01*
X181000D02*
G03*
X181000Y360000I-1000J0D01*
G01*
X191000D02*
G03*
X191000Y360000I-1000J0D01*
G01*
X261000D02*
G03*
X261000Y360000I-1000J0D01*
G01*
X251000D02*
G03*
X251000Y360000I-1000J0D01*
G01*
X241000D02*
G03*
X241000Y360000I-1000J0D01*
G01*
X231000D02*
G03*
X231000Y360000I-1000J0D01*
G01*
X221000D02*
G03*
X221000Y360000I-1000J0D01*
G01*
X211000D02*
G03*
X211000Y360000I-1000J0D01*
G01*
X201000D02*
G03*
X201000Y360000I-1000J0D01*
G01*
X331000D02*
G03*
X331000Y360000I-1000J0D01*
G01*
X321000D02*
G03*
X321000Y360000I-1000J0D01*
G01*
X311000D02*
G03*
X311000Y360000I-1000J0D01*
G01*
X301000D02*
G03*
X301000Y360000I-1000J0D01*
G01*
X291000D02*
G03*
X291000Y360000I-1000J0D01*
G01*
X281000D02*
G03*
X281000Y360000I-1000J0D01*
G01*
X271000D02*
G03*
X271000Y360000I-1000J0D01*
G01*
X401000D02*
G03*
X401000Y360000I-1000J0D01*
G01*
X391000D02*
G03*
X391000Y360000I-1000J0D01*
G01*
X381000D02*
G03*
X381000Y360000I-1000J0D01*
G01*
X371000D02*
G03*
X371000Y360000I-1000J0D01*
G01*
X361000D02*
G03*
X361000Y360000I-1000J0D01*
G01*
X351000D02*
G03*
X351000Y360000I-1000J0D01*
G01*
X341000D02*
G03*
X341000Y360000I-1000J0D01*
G01*
X471000D02*
G03*
X471000Y360000I-1000J0D01*
G01*
X461000D02*
G03*
X461000Y360000I-1000J0D01*
G01*
X451000D02*
G03*
X451000Y360000I-1000J0D01*
G01*
X441000D02*
G03*
X441000Y360000I-1000J0D01*
G01*
X431000D02*
G03*
X431000Y360000I-1000J0D01*
G01*
X421000D02*
G03*
X421000Y360000I-1000J0D01*
G01*
X411000D02*
G03*
X411000Y360000I-1000J0D01*
G01*
X541000D02*
G03*
X541000Y360000I-1000J0D01*
G01*
X531000D02*
G03*
X531000Y360000I-1000J0D01*
G01*
X521000D02*
G03*
X521000Y360000I-1000J0D01*
G01*
X511000D02*
G03*
X511000Y360000I-1000J0D01*
G01*
X501000D02*
G03*
X501000Y360000I-1000J0D01*
G01*
X491000D02*
G03*
X491000Y360000I-1000J0D01*
G01*
X481000D02*
G03*
X481000Y360000I-1000J0D01*
G01*
X611000D02*
G03*
X611000Y360000I-1000J0D01*
G01*
X601000D02*
G03*
X601000Y360000I-1000J0D01*
G01*
X591000D02*
G03*
X591000Y360000I-1000J0D01*
G01*
X581000D02*
G03*
X581000Y360000I-1000J0D01*
G01*
X571000D02*
G03*
X571000Y360000I-1000J0D01*
G01*
X561000D02*
G03*
X561000Y360000I-1000J0D01*
G01*
X551000D02*
G03*
X551000Y360000I-1000J0D01*
G01*
X681000D02*
G03*
X681000Y360000I-1000J0D01*
G01*
X671000D02*
G03*
X671000Y360000I-1000J0D01*
G01*
X661000D02*
G03*
X661000Y360000I-1000J0D01*
G01*
X651000D02*
G03*
X651000Y360000I-1000J0D01*
G01*
X641000D02*
G03*
X641000Y360000I-1000J0D01*
G01*
X631000D02*
G03*
X631000Y360000I-1000J0D01*
G01*
X621000D02*
G03*
X621000Y360000I-1000J0D01*
G01*
X691000D02*
G03*
X691000Y360000I-1000J0D01*
G01*
X701000D02*
G03*
X701000Y360000I-1000J0D01*
G01*
Y350000D02*
G03*
X701000Y350000I-1000J0D01*
G01*
X691000D02*
G03*
X691000Y350000I-1000J0D01*
G01*
X621000D02*
G03*
X621000Y350000I-1000J0D01*
G01*
X631000D02*
G03*
X631000Y350000I-1000J0D01*
G01*
X641000D02*
G03*
X641000Y350000I-1000J0D01*
G01*
X651000D02*
G03*
X651000Y350000I-1000J0D01*
G01*
X661000D02*
G03*
X661000Y350000I-1000J0D01*
G01*
X671000D02*
G03*
X671000Y350000I-1000J0D01*
G01*
X681000D02*
G03*
X681000Y350000I-1000J0D01*
G01*
X551000D02*
G03*
X551000Y350000I-1000J0D01*
G01*
X561000D02*
G03*
X561000Y350000I-1000J0D01*
G01*
X571000D02*
G03*
X571000Y350000I-1000J0D01*
G01*
X581000D02*
G03*
X581000Y350000I-1000J0D01*
G01*
X591000D02*
G03*
X591000Y350000I-1000J0D01*
G01*
X601000D02*
G03*
X601000Y350000I-1000J0D01*
G01*
X611000D02*
G03*
X611000Y350000I-1000J0D01*
G01*
X481000D02*
G03*
X481000Y350000I-1000J0D01*
G01*
X491000D02*
G03*
X491000Y350000I-1000J0D01*
G01*
X501000D02*
G03*
X501000Y350000I-1000J0D01*
G01*
X511000D02*
G03*
X511000Y350000I-1000J0D01*
G01*
X521000D02*
G03*
X521000Y350000I-1000J0D01*
G01*
X531000D02*
G03*
X531000Y350000I-1000J0D01*
G01*
X541000D02*
G03*
X541000Y350000I-1000J0D01*
G01*
X411000D02*
G03*
X411000Y350000I-1000J0D01*
G01*
X421000D02*
G03*
X421000Y350000I-1000J0D01*
G01*
X431000D02*
G03*
X431000Y350000I-1000J0D01*
G01*
X441000D02*
G03*
X441000Y350000I-1000J0D01*
G01*
X451000D02*
G03*
X451000Y350000I-1000J0D01*
G01*
X461000D02*
G03*
X461000Y350000I-1000J0D01*
G01*
X471000D02*
G03*
X471000Y350000I-1000J0D01*
G01*
X341000D02*
G03*
X341000Y350000I-1000J0D01*
G01*
X351000D02*
G03*
X351000Y350000I-1000J0D01*
G01*
X361000D02*
G03*
X361000Y350000I-1000J0D01*
G01*
X371000D02*
G03*
X371000Y350000I-1000J0D01*
G01*
X381000D02*
G03*
X381000Y350000I-1000J0D01*
G01*
X391000D02*
G03*
X391000Y350000I-1000J0D01*
G01*
X401000D02*
G03*
X401000Y350000I-1000J0D01*
G01*
X271000D02*
G03*
X271000Y350000I-1000J0D01*
G01*
X281000D02*
G03*
X281000Y350000I-1000J0D01*
G01*
X291000D02*
G03*
X291000Y350000I-1000J0D01*
G01*
X301000D02*
G03*
X301000Y350000I-1000J0D01*
G01*
X311000D02*
G03*
X311000Y350000I-1000J0D01*
G01*
X321000D02*
G03*
X321000Y350000I-1000J0D01*
G01*
X331000D02*
G03*
X331000Y350000I-1000J0D01*
G01*
X201000D02*
G03*
X201000Y350000I-1000J0D01*
G01*
X211000D02*
G03*
X211000Y350000I-1000J0D01*
G01*
X221000D02*
G03*
X221000Y350000I-1000J0D01*
G01*
X231000D02*
G03*
X231000Y350000I-1000J0D01*
G01*
X241000D02*
G03*
X241000Y350000I-1000J0D01*
G01*
X251000D02*
G03*
X251000Y350000I-1000J0D01*
G01*
X261000D02*
G03*
X261000Y350000I-1000J0D01*
G01*
X191000D02*
G03*
X191000Y350000I-1000J0D01*
G01*
X181000D02*
G03*
X181000Y350000I-1000J0D01*
G01*
X171000D02*
G03*
X171000Y350000I-1000J0D01*
G01*
X161000D02*
G03*
X161000Y350000I-1000J0D01*
G01*
X151000D02*
G03*
X151000Y350000I-1000J0D01*
G01*
X141000D02*
G03*
X141000Y350000I-1000J0D01*
G01*
X131000D02*
G03*
X131000Y350000I-1000J0D01*
G01*
X701000Y340000D02*
G03*
X701000Y340000I-1000J0D01*
G01*
X691000D02*
G03*
X691000Y340000I-1000J0D01*
G01*
X621000D02*
G03*
X621000Y340000I-1000J0D01*
G01*
X631000D02*
G03*
X631000Y340000I-1000J0D01*
G01*
X641000D02*
G03*
X641000Y340000I-1000J0D01*
G01*
X651000D02*
G03*
X651000Y340000I-1000J0D01*
G01*
X661000D02*
G03*
X661000Y340000I-1000J0D01*
G01*
X671000D02*
G03*
X671000Y340000I-1000J0D01*
G01*
X681000D02*
G03*
X681000Y340000I-1000J0D01*
G01*
X551000D02*
G03*
X551000Y340000I-1000J0D01*
G01*
X561000D02*
G03*
X561000Y340000I-1000J0D01*
G01*
X571000D02*
G03*
X571000Y340000I-1000J0D01*
G01*
X581000D02*
G03*
X581000Y340000I-1000J0D01*
G01*
X591000D02*
G03*
X591000Y340000I-1000J0D01*
G01*
X601000D02*
G03*
X601000Y340000I-1000J0D01*
G01*
X611000D02*
G03*
X611000Y340000I-1000J0D01*
G01*
X481000D02*
G03*
X481000Y340000I-1000J0D01*
G01*
X491000D02*
G03*
X491000Y340000I-1000J0D01*
G01*
X501000D02*
G03*
X501000Y340000I-1000J0D01*
G01*
X511000D02*
G03*
X511000Y340000I-1000J0D01*
G01*
X521000D02*
G03*
X521000Y340000I-1000J0D01*
G01*
X531000D02*
G03*
X531000Y340000I-1000J0D01*
G01*
X541000D02*
G03*
X541000Y340000I-1000J0D01*
G01*
X411000D02*
G03*
X411000Y340000I-1000J0D01*
G01*
X421000D02*
G03*
X421000Y340000I-1000J0D01*
G01*
X431000D02*
G03*
X431000Y340000I-1000J0D01*
G01*
X441000D02*
G03*
X441000Y340000I-1000J0D01*
G01*
X451000D02*
G03*
X451000Y340000I-1000J0D01*
G01*
X461000D02*
G03*
X461000Y340000I-1000J0D01*
G01*
X471000D02*
G03*
X471000Y340000I-1000J0D01*
G01*
X341000D02*
G03*
X341000Y340000I-1000J0D01*
G01*
X351000D02*
G03*
X351000Y340000I-1000J0D01*
G01*
X361000D02*
G03*
X361000Y340000I-1000J0D01*
G01*
X371000D02*
G03*
X371000Y340000I-1000J0D01*
G01*
X381000D02*
G03*
X381000Y340000I-1000J0D01*
G01*
X391000D02*
G03*
X391000Y340000I-1000J0D01*
G01*
X401000D02*
G03*
X401000Y340000I-1000J0D01*
G01*
X271000D02*
G03*
X271000Y340000I-1000J0D01*
G01*
X281000D02*
G03*
X281000Y340000I-1000J0D01*
G01*
X291000D02*
G03*
X291000Y340000I-1000J0D01*
G01*
X301000D02*
G03*
X301000Y340000I-1000J0D01*
G01*
X311000D02*
G03*
X311000Y340000I-1000J0D01*
G01*
X321000D02*
G03*
X321000Y340000I-1000J0D01*
G01*
X331000D02*
G03*
X331000Y340000I-1000J0D01*
G01*
X201000D02*
G03*
X201000Y340000I-1000J0D01*
G01*
X211000D02*
G03*
X211000Y340000I-1000J0D01*
G01*
X221000D02*
G03*
X221000Y340000I-1000J0D01*
G01*
X231000D02*
G03*
X231000Y340000I-1000J0D01*
G01*
X241000D02*
G03*
X241000Y340000I-1000J0D01*
G01*
X251000D02*
G03*
X251000Y340000I-1000J0D01*
G01*
X261000D02*
G03*
X261000Y340000I-1000J0D01*
G01*
X191000D02*
G03*
X191000Y340000I-1000J0D01*
G01*
X181000D02*
G03*
X181000Y340000I-1000J0D01*
G01*
X171000D02*
G03*
X171000Y340000I-1000J0D01*
G01*
X161000D02*
G03*
X161000Y340000I-1000J0D01*
G01*
X151000D02*
G03*
X151000Y340000I-1000J0D01*
G01*
X141000D02*
G03*
X141000Y340000I-1000J0D01*
G01*
X131000D02*
G03*
X131000Y340000I-1000J0D01*
G01*
X701000Y330000D02*
G03*
X701000Y330000I-1000J0D01*
G01*
X691000D02*
G03*
X691000Y330000I-1000J0D01*
G01*
X621000D02*
G03*
X621000Y330000I-1000J0D01*
G01*
X631000D02*
G03*
X631000Y330000I-1000J0D01*
G01*
X641000D02*
G03*
X641000Y330000I-1000J0D01*
G01*
X651000D02*
G03*
X651000Y330000I-1000J0D01*
G01*
X661000D02*
G03*
X661000Y330000I-1000J0D01*
G01*
X671000D02*
G03*
X671000Y330000I-1000J0D01*
G01*
X681000D02*
G03*
X681000Y330000I-1000J0D01*
G01*
X551000D02*
G03*
X551000Y330000I-1000J0D01*
G01*
X561000D02*
G03*
X561000Y330000I-1000J0D01*
G01*
X571000D02*
G03*
X571000Y330000I-1000J0D01*
G01*
X581000D02*
G03*
X581000Y330000I-1000J0D01*
G01*
X591000D02*
G03*
X591000Y330000I-1000J0D01*
G01*
X601000D02*
G03*
X601000Y330000I-1000J0D01*
G01*
X611000D02*
G03*
X611000Y330000I-1000J0D01*
G01*
X481000D02*
G03*
X481000Y330000I-1000J0D01*
G01*
X491000D02*
G03*
X491000Y330000I-1000J0D01*
G01*
X501000D02*
G03*
X501000Y330000I-1000J0D01*
G01*
X511000D02*
G03*
X511000Y330000I-1000J0D01*
G01*
X521000D02*
G03*
X521000Y330000I-1000J0D01*
G01*
X531000D02*
G03*
X531000Y330000I-1000J0D01*
G01*
X541000D02*
G03*
X541000Y330000I-1000J0D01*
G01*
X411000D02*
G03*
X411000Y330000I-1000J0D01*
G01*
X421000D02*
G03*
X421000Y330000I-1000J0D01*
G01*
X431000D02*
G03*
X431000Y330000I-1000J0D01*
G01*
X441000D02*
G03*
X441000Y330000I-1000J0D01*
G01*
X451000D02*
G03*
X451000Y330000I-1000J0D01*
G01*
X461000D02*
G03*
X461000Y330000I-1000J0D01*
G01*
X471000D02*
G03*
X471000Y330000I-1000J0D01*
G01*
X341000D02*
G03*
X341000Y330000I-1000J0D01*
G01*
X351000D02*
G03*
X351000Y330000I-1000J0D01*
G01*
X361000D02*
G03*
X361000Y330000I-1000J0D01*
G01*
X371000D02*
G03*
X371000Y330000I-1000J0D01*
G01*
X381000D02*
G03*
X381000Y330000I-1000J0D01*
G01*
X391000D02*
G03*
X391000Y330000I-1000J0D01*
G01*
X401000D02*
G03*
X401000Y330000I-1000J0D01*
G01*
X271000D02*
G03*
X271000Y330000I-1000J0D01*
G01*
X281000D02*
G03*
X281000Y330000I-1000J0D01*
G01*
X291000D02*
G03*
X291000Y330000I-1000J0D01*
G01*
X301000D02*
G03*
X301000Y330000I-1000J0D01*
G01*
X311000D02*
G03*
X311000Y330000I-1000J0D01*
G01*
X321000D02*
G03*
X321000Y330000I-1000J0D01*
G01*
X331000D02*
G03*
X331000Y330000I-1000J0D01*
G01*
X201000D02*
G03*
X201000Y330000I-1000J0D01*
G01*
X211000D02*
G03*
X211000Y330000I-1000J0D01*
G01*
X221000D02*
G03*
X221000Y330000I-1000J0D01*
G01*
X231000D02*
G03*
X231000Y330000I-1000J0D01*
G01*
X241000D02*
G03*
X241000Y330000I-1000J0D01*
G01*
X251000D02*
G03*
X251000Y330000I-1000J0D01*
G01*
X261000D02*
G03*
X261000Y330000I-1000J0D01*
G01*
X191000D02*
G03*
X191000Y330000I-1000J0D01*
G01*
X181000D02*
G03*
X181000Y330000I-1000J0D01*
G01*
X171000D02*
G03*
X171000Y330000I-1000J0D01*
G01*
X161000D02*
G03*
X161000Y330000I-1000J0D01*
G01*
X151000D02*
G03*
X151000Y330000I-1000J0D01*
G01*
X141000D02*
G03*
X141000Y330000I-1000J0D01*
G01*
X131000D02*
G03*
X131000Y330000I-1000J0D01*
G01*
Y400000D02*
G03*
X131000Y400000I-1000J0D01*
G01*
X141000D02*
G03*
X141000Y400000I-1000J0D01*
G01*
X151000D02*
G03*
X151000Y400000I-1000J0D01*
G01*
X161000D02*
G03*
X161000Y400000I-1000J0D01*
G01*
X171000D02*
G03*
X171000Y400000I-1000J0D01*
G01*
X181000D02*
G03*
X181000Y400000I-1000J0D01*
G01*
X191000D02*
G03*
X191000Y400000I-1000J0D01*
G01*
X261000D02*
G03*
X261000Y400000I-1000J0D01*
G01*
X251000D02*
G03*
X251000Y400000I-1000J0D01*
G01*
X241000D02*
G03*
X241000Y400000I-1000J0D01*
G01*
X231000D02*
G03*
X231000Y400000I-1000J0D01*
G01*
X221000D02*
G03*
X221000Y400000I-1000J0D01*
G01*
X211000D02*
G03*
X211000Y400000I-1000J0D01*
G01*
X201000D02*
G03*
X201000Y400000I-1000J0D01*
G01*
X331000D02*
G03*
X331000Y400000I-1000J0D01*
G01*
X321000D02*
G03*
X321000Y400000I-1000J0D01*
G01*
X311000D02*
G03*
X311000Y400000I-1000J0D01*
G01*
X301000D02*
G03*
X301000Y400000I-1000J0D01*
G01*
X291000D02*
G03*
X291000Y400000I-1000J0D01*
G01*
X281000D02*
G03*
X281000Y400000I-1000J0D01*
G01*
X271000D02*
G03*
X271000Y400000I-1000J0D01*
G01*
X401000D02*
G03*
X401000Y400000I-1000J0D01*
G01*
X391000D02*
G03*
X391000Y400000I-1000J0D01*
G01*
X381000D02*
G03*
X381000Y400000I-1000J0D01*
G01*
X371000D02*
G03*
X371000Y400000I-1000J0D01*
G01*
X361000D02*
G03*
X361000Y400000I-1000J0D01*
G01*
X351000D02*
G03*
X351000Y400000I-1000J0D01*
G01*
X341000D02*
G03*
X341000Y400000I-1000J0D01*
G01*
X471000D02*
G03*
X471000Y400000I-1000J0D01*
G01*
X461000D02*
G03*
X461000Y400000I-1000J0D01*
G01*
X451000D02*
G03*
X451000Y400000I-1000J0D01*
G01*
X441000D02*
G03*
X441000Y400000I-1000J0D01*
G01*
X431000D02*
G03*
X431000Y400000I-1000J0D01*
G01*
X421000D02*
G03*
X421000Y400000I-1000J0D01*
G01*
X411000D02*
G03*
X411000Y400000I-1000J0D01*
G01*
X541000D02*
G03*
X541000Y400000I-1000J0D01*
G01*
X531000D02*
G03*
X531000Y400000I-1000J0D01*
G01*
X521000D02*
G03*
X521000Y400000I-1000J0D01*
G01*
X511000D02*
G03*
X511000Y400000I-1000J0D01*
G01*
X501000D02*
G03*
X501000Y400000I-1000J0D01*
G01*
X491000D02*
G03*
X491000Y400000I-1000J0D01*
G01*
X481000D02*
G03*
X481000Y400000I-1000J0D01*
G01*
X611000D02*
G03*
X611000Y400000I-1000J0D01*
G01*
X601000D02*
G03*
X601000Y400000I-1000J0D01*
G01*
X591000D02*
G03*
X591000Y400000I-1000J0D01*
G01*
X581000D02*
G03*
X581000Y400000I-1000J0D01*
G01*
X571000D02*
G03*
X571000Y400000I-1000J0D01*
G01*
X561000D02*
G03*
X561000Y400000I-1000J0D01*
G01*
X551000D02*
G03*
X551000Y400000I-1000J0D01*
G01*
X681000D02*
G03*
X681000Y400000I-1000J0D01*
G01*
X671000D02*
G03*
X671000Y400000I-1000J0D01*
G01*
X661000D02*
G03*
X661000Y400000I-1000J0D01*
G01*
X651000D02*
G03*
X651000Y400000I-1000J0D01*
G01*
X641000D02*
G03*
X641000Y400000I-1000J0D01*
G01*
X631000D02*
G03*
X631000Y400000I-1000J0D01*
G01*
X621000D02*
G03*
X621000Y400000I-1000J0D01*
G01*
X691000D02*
G03*
X691000Y400000I-1000J0D01*
G01*
X701000D02*
G03*
X701000Y400000I-1000J0D01*
G01*
Y390000D02*
G03*
X701000Y390000I-1000J0D01*
G01*
X691000D02*
G03*
X691000Y390000I-1000J0D01*
G01*
X621000D02*
G03*
X621000Y390000I-1000J0D01*
G01*
X631000D02*
G03*
X631000Y390000I-1000J0D01*
G01*
X641000D02*
G03*
X641000Y390000I-1000J0D01*
G01*
X651000D02*
G03*
X651000Y390000I-1000J0D01*
G01*
X661000D02*
G03*
X661000Y390000I-1000J0D01*
G01*
X671000D02*
G03*
X671000Y390000I-1000J0D01*
G01*
X681000D02*
G03*
X681000Y390000I-1000J0D01*
G01*
X551000D02*
G03*
X551000Y390000I-1000J0D01*
G01*
X561000D02*
G03*
X561000Y390000I-1000J0D01*
G01*
X571000D02*
G03*
X571000Y390000I-1000J0D01*
G01*
X581000D02*
G03*
X581000Y390000I-1000J0D01*
G01*
X591000D02*
G03*
X591000Y390000I-1000J0D01*
G01*
X601000D02*
G03*
X601000Y390000I-1000J0D01*
G01*
X611000D02*
G03*
X611000Y390000I-1000J0D01*
G01*
X481000D02*
G03*
X481000Y390000I-1000J0D01*
G01*
X491000D02*
G03*
X491000Y390000I-1000J0D01*
G01*
X501000D02*
G03*
X501000Y390000I-1000J0D01*
G01*
X511000D02*
G03*
X511000Y390000I-1000J0D01*
G01*
X521000D02*
G03*
X521000Y390000I-1000J0D01*
G01*
X531000D02*
G03*
X531000Y390000I-1000J0D01*
G01*
X541000D02*
G03*
X541000Y390000I-1000J0D01*
G01*
X411000D02*
G03*
X411000Y390000I-1000J0D01*
G01*
X421000D02*
G03*
X421000Y390000I-1000J0D01*
G01*
X431000D02*
G03*
X431000Y390000I-1000J0D01*
G01*
X441000D02*
G03*
X441000Y390000I-1000J0D01*
G01*
X451000D02*
G03*
X451000Y390000I-1000J0D01*
G01*
X461000D02*
G03*
X461000Y390000I-1000J0D01*
G01*
X471000D02*
G03*
X471000Y390000I-1000J0D01*
G01*
X341000D02*
G03*
X341000Y390000I-1000J0D01*
G01*
X351000D02*
G03*
X351000Y390000I-1000J0D01*
G01*
X361000D02*
G03*
X361000Y390000I-1000J0D01*
G01*
X371000D02*
G03*
X371000Y390000I-1000J0D01*
G01*
X381000D02*
G03*
X381000Y390000I-1000J0D01*
G01*
X391000D02*
G03*
X391000Y390000I-1000J0D01*
G01*
X401000D02*
G03*
X401000Y390000I-1000J0D01*
G01*
X271000D02*
G03*
X271000Y390000I-1000J0D01*
G01*
X281000D02*
G03*
X281000Y390000I-1000J0D01*
G01*
X291000D02*
G03*
X291000Y390000I-1000J0D01*
G01*
X301000D02*
G03*
X301000Y390000I-1000J0D01*
G01*
X311000D02*
G03*
X311000Y390000I-1000J0D01*
G01*
X321000D02*
G03*
X321000Y390000I-1000J0D01*
G01*
X331000D02*
G03*
X331000Y390000I-1000J0D01*
G01*
X201000D02*
G03*
X201000Y390000I-1000J0D01*
G01*
X211000D02*
G03*
X211000Y390000I-1000J0D01*
G01*
X221000D02*
G03*
X221000Y390000I-1000J0D01*
G01*
X231000D02*
G03*
X231000Y390000I-1000J0D01*
G01*
X241000D02*
G03*
X241000Y390000I-1000J0D01*
G01*
X251000D02*
G03*
X251000Y390000I-1000J0D01*
G01*
X261000D02*
G03*
X261000Y390000I-1000J0D01*
G01*
X191000D02*
G03*
X191000Y390000I-1000J0D01*
G01*
X181000D02*
G03*
X181000Y390000I-1000J0D01*
G01*
X171000D02*
G03*
X171000Y390000I-1000J0D01*
G01*
X161000D02*
G03*
X161000Y390000I-1000J0D01*
G01*
X151000D02*
G03*
X151000Y390000I-1000J0D01*
G01*
X141000D02*
G03*
X141000Y390000I-1000J0D01*
G01*
X131000D02*
G03*
X131000Y390000I-1000J0D01*
G01*
X701000Y380000D02*
G03*
X701000Y380000I-1000J0D01*
G01*
X691000D02*
G03*
X691000Y380000I-1000J0D01*
G01*
X621000D02*
G03*
X621000Y380000I-1000J0D01*
G01*
X631000D02*
G03*
X631000Y380000I-1000J0D01*
G01*
X641000D02*
G03*
X641000Y380000I-1000J0D01*
G01*
X651000D02*
G03*
X651000Y380000I-1000J0D01*
G01*
X661000D02*
G03*
X661000Y380000I-1000J0D01*
G01*
X671000D02*
G03*
X671000Y380000I-1000J0D01*
G01*
X681000D02*
G03*
X681000Y380000I-1000J0D01*
G01*
X551000D02*
G03*
X551000Y380000I-1000J0D01*
G01*
X561000D02*
G03*
X561000Y380000I-1000J0D01*
G01*
X571000D02*
G03*
X571000Y380000I-1000J0D01*
G01*
X581000D02*
G03*
X581000Y380000I-1000J0D01*
G01*
X591000D02*
G03*
X591000Y380000I-1000J0D01*
G01*
X601000D02*
G03*
X601000Y380000I-1000J0D01*
G01*
X611000D02*
G03*
X611000Y380000I-1000J0D01*
G01*
X481000D02*
G03*
X481000Y380000I-1000J0D01*
G01*
X491000D02*
G03*
X491000Y380000I-1000J0D01*
G01*
X501000D02*
G03*
X501000Y380000I-1000J0D01*
G01*
X511000D02*
G03*
X511000Y380000I-1000J0D01*
G01*
X521000D02*
G03*
X521000Y380000I-1000J0D01*
G01*
X531000D02*
G03*
X531000Y380000I-1000J0D01*
G01*
X541000D02*
G03*
X541000Y380000I-1000J0D01*
G01*
X411000D02*
G03*
X411000Y380000I-1000J0D01*
G01*
X421000D02*
G03*
X421000Y380000I-1000J0D01*
G01*
X431000D02*
G03*
X431000Y380000I-1000J0D01*
G01*
X441000D02*
G03*
X441000Y380000I-1000J0D01*
G01*
X451000D02*
G03*
X451000Y380000I-1000J0D01*
G01*
X461000D02*
G03*
X461000Y380000I-1000J0D01*
G01*
X471000D02*
G03*
X471000Y380000I-1000J0D01*
G01*
X341000D02*
G03*
X341000Y380000I-1000J0D01*
G01*
X351000D02*
G03*
X351000Y380000I-1000J0D01*
G01*
X361000D02*
G03*
X361000Y380000I-1000J0D01*
G01*
X371000D02*
G03*
X371000Y380000I-1000J0D01*
G01*
X381000D02*
G03*
X381000Y380000I-1000J0D01*
G01*
X391000D02*
G03*
X391000Y380000I-1000J0D01*
G01*
X401000D02*
G03*
X401000Y380000I-1000J0D01*
G01*
X271000D02*
G03*
X271000Y380000I-1000J0D01*
G01*
X281000D02*
G03*
X281000Y380000I-1000J0D01*
G01*
X291000D02*
G03*
X291000Y380000I-1000J0D01*
G01*
X301000D02*
G03*
X301000Y380000I-1000J0D01*
G01*
X311000D02*
G03*
X311000Y380000I-1000J0D01*
G01*
X321000D02*
G03*
X321000Y380000I-1000J0D01*
G01*
X331000D02*
G03*
X331000Y380000I-1000J0D01*
G01*
X201000D02*
G03*
X201000Y380000I-1000J0D01*
G01*
X211000D02*
G03*
X211000Y380000I-1000J0D01*
G01*
X221000D02*
G03*
X221000Y380000I-1000J0D01*
G01*
X231000D02*
G03*
X231000Y380000I-1000J0D01*
G01*
X241000D02*
G03*
X241000Y380000I-1000J0D01*
G01*
X251000D02*
G03*
X251000Y380000I-1000J0D01*
G01*
X261000D02*
G03*
X261000Y380000I-1000J0D01*
G01*
X191000D02*
G03*
X191000Y380000I-1000J0D01*
G01*
X181000D02*
G03*
X181000Y380000I-1000J0D01*
G01*
X171000D02*
G03*
X171000Y380000I-1000J0D01*
G01*
X161000D02*
G03*
X161000Y380000I-1000J0D01*
G01*
X151000D02*
G03*
X151000Y380000I-1000J0D01*
G01*
X141000D02*
G03*
X141000Y380000I-1000J0D01*
G01*
X131000D02*
G03*
X131000Y380000I-1000J0D01*
G01*
X701000Y370000D02*
G03*
X701000Y370000I-1000J0D01*
G01*
X691000D02*
G03*
X691000Y370000I-1000J0D01*
G01*
X621000D02*
G03*
X621000Y370000I-1000J0D01*
G01*
X631000D02*
G03*
X631000Y370000I-1000J0D01*
G01*
X641000D02*
G03*
X641000Y370000I-1000J0D01*
G01*
X651000D02*
G03*
X651000Y370000I-1000J0D01*
G01*
X661000D02*
G03*
X661000Y370000I-1000J0D01*
G01*
X671000D02*
G03*
X671000Y370000I-1000J0D01*
G01*
X681000D02*
G03*
X681000Y370000I-1000J0D01*
G01*
X551000D02*
G03*
X551000Y370000I-1000J0D01*
G01*
X561000D02*
G03*
X561000Y370000I-1000J0D01*
G01*
X571000D02*
G03*
X571000Y370000I-1000J0D01*
G01*
X581000D02*
G03*
X581000Y370000I-1000J0D01*
G01*
X591000D02*
G03*
X591000Y370000I-1000J0D01*
G01*
X601000D02*
G03*
X601000Y370000I-1000J0D01*
G01*
X611000D02*
G03*
X611000Y370000I-1000J0D01*
G01*
X481000D02*
G03*
X481000Y370000I-1000J0D01*
G01*
X491000D02*
G03*
X491000Y370000I-1000J0D01*
G01*
X501000D02*
G03*
X501000Y370000I-1000J0D01*
G01*
X511000D02*
G03*
X511000Y370000I-1000J0D01*
G01*
X521000D02*
G03*
X521000Y370000I-1000J0D01*
G01*
X531000D02*
G03*
X531000Y370000I-1000J0D01*
G01*
X541000D02*
G03*
X541000Y370000I-1000J0D01*
G01*
X411000D02*
G03*
X411000Y370000I-1000J0D01*
G01*
X421000D02*
G03*
X421000Y370000I-1000J0D01*
G01*
X431000D02*
G03*
X431000Y370000I-1000J0D01*
G01*
X441000D02*
G03*
X441000Y370000I-1000J0D01*
G01*
X451000D02*
G03*
X451000Y370000I-1000J0D01*
G01*
X461000D02*
G03*
X461000Y370000I-1000J0D01*
G01*
X471000D02*
G03*
X471000Y370000I-1000J0D01*
G01*
X341000D02*
G03*
X341000Y370000I-1000J0D01*
G01*
X351000D02*
G03*
X351000Y370000I-1000J0D01*
G01*
X361000D02*
G03*
X361000Y370000I-1000J0D01*
G01*
X371000D02*
G03*
X371000Y370000I-1000J0D01*
G01*
X381000D02*
G03*
X381000Y370000I-1000J0D01*
G01*
X391000D02*
G03*
X391000Y370000I-1000J0D01*
G01*
X401000D02*
G03*
X401000Y370000I-1000J0D01*
G01*
X271000D02*
G03*
X271000Y370000I-1000J0D01*
G01*
X281000D02*
G03*
X281000Y370000I-1000J0D01*
G01*
X291000D02*
G03*
X291000Y370000I-1000J0D01*
G01*
X301000D02*
G03*
X301000Y370000I-1000J0D01*
G01*
X311000D02*
G03*
X311000Y370000I-1000J0D01*
G01*
X321000D02*
G03*
X321000Y370000I-1000J0D01*
G01*
X331000D02*
G03*
X331000Y370000I-1000J0D01*
G01*
X201000D02*
G03*
X201000Y370000I-1000J0D01*
G01*
X211000D02*
G03*
X211000Y370000I-1000J0D01*
G01*
X221000D02*
G03*
X221000Y370000I-1000J0D01*
G01*
X231000D02*
G03*
X231000Y370000I-1000J0D01*
G01*
X241000D02*
G03*
X241000Y370000I-1000J0D01*
G01*
X251000D02*
G03*
X251000Y370000I-1000J0D01*
G01*
X261000D02*
G03*
X261000Y370000I-1000J0D01*
G01*
X191000D02*
G03*
X191000Y370000I-1000J0D01*
G01*
X181000D02*
G03*
X181000Y370000I-1000J0D01*
G01*
X171000D02*
G03*
X171000Y370000I-1000J0D01*
G01*
X161000D02*
G03*
X161000Y370000I-1000J0D01*
G01*
X151000D02*
G03*
X151000Y370000I-1000J0D01*
G01*
X141000D02*
G03*
X141000Y370000I-1000J0D01*
G01*
X131000D02*
G03*
X131000Y370000I-1000J0D01*
G01*
Y410000D02*
G03*
X131000Y410000I-1000J0D01*
G01*
X141000D02*
G03*
X141000Y410000I-1000J0D01*
G01*
X151000D02*
G03*
X151000Y410000I-1000J0D01*
G01*
X161000D02*
G03*
X161000Y410000I-1000J0D01*
G01*
X171000D02*
G03*
X171000Y410000I-1000J0D01*
G01*
X181000D02*
G03*
X181000Y410000I-1000J0D01*
G01*
X191000D02*
G03*
X191000Y410000I-1000J0D01*
G01*
X261000D02*
G03*
X261000Y410000I-1000J0D01*
G01*
X251000D02*
G03*
X251000Y410000I-1000J0D01*
G01*
X241000D02*
G03*
X241000Y410000I-1000J0D01*
G01*
X231000D02*
G03*
X231000Y410000I-1000J0D01*
G01*
X221000D02*
G03*
X221000Y410000I-1000J0D01*
G01*
X211000D02*
G03*
X211000Y410000I-1000J0D01*
G01*
X201000D02*
G03*
X201000Y410000I-1000J0D01*
G01*
X331000D02*
G03*
X331000Y410000I-1000J0D01*
G01*
X321000D02*
G03*
X321000Y410000I-1000J0D01*
G01*
X311000D02*
G03*
X311000Y410000I-1000J0D01*
G01*
X301000D02*
G03*
X301000Y410000I-1000J0D01*
G01*
X291000D02*
G03*
X291000Y410000I-1000J0D01*
G01*
X281000D02*
G03*
X281000Y410000I-1000J0D01*
G01*
X271000D02*
G03*
X271000Y410000I-1000J0D01*
G01*
X401000D02*
G03*
X401000Y410000I-1000J0D01*
G01*
X391000D02*
G03*
X391000Y410000I-1000J0D01*
G01*
X381000D02*
G03*
X381000Y410000I-1000J0D01*
G01*
X371000D02*
G03*
X371000Y410000I-1000J0D01*
G01*
X361000D02*
G03*
X361000Y410000I-1000J0D01*
G01*
X351000D02*
G03*
X351000Y410000I-1000J0D01*
G01*
X341000D02*
G03*
X341000Y410000I-1000J0D01*
G01*
X471000D02*
G03*
X471000Y410000I-1000J0D01*
G01*
X461000D02*
G03*
X461000Y410000I-1000J0D01*
G01*
X451000D02*
G03*
X451000Y410000I-1000J0D01*
G01*
X441000D02*
G03*
X441000Y410000I-1000J0D01*
G01*
X431000D02*
G03*
X431000Y410000I-1000J0D01*
G01*
X421000D02*
G03*
X421000Y410000I-1000J0D01*
G01*
X411000D02*
G03*
X411000Y410000I-1000J0D01*
G01*
X541000D02*
G03*
X541000Y410000I-1000J0D01*
G01*
X531000D02*
G03*
X531000Y410000I-1000J0D01*
G01*
X521000D02*
G03*
X521000Y410000I-1000J0D01*
G01*
X511000D02*
G03*
X511000Y410000I-1000J0D01*
G01*
X501000D02*
G03*
X501000Y410000I-1000J0D01*
G01*
X491000D02*
G03*
X491000Y410000I-1000J0D01*
G01*
X481000D02*
G03*
X481000Y410000I-1000J0D01*
G01*
X611000D02*
G03*
X611000Y410000I-1000J0D01*
G01*
X601000D02*
G03*
X601000Y410000I-1000J0D01*
G01*
X591000D02*
G03*
X591000Y410000I-1000J0D01*
G01*
X581000D02*
G03*
X581000Y410000I-1000J0D01*
G01*
X571000D02*
G03*
X571000Y410000I-1000J0D01*
G01*
X561000D02*
G03*
X561000Y410000I-1000J0D01*
G01*
X551000D02*
G03*
X551000Y410000I-1000J0D01*
G01*
X681000D02*
G03*
X681000Y410000I-1000J0D01*
G01*
X671000D02*
G03*
X671000Y410000I-1000J0D01*
G01*
X661000D02*
G03*
X661000Y410000I-1000J0D01*
G01*
X651000D02*
G03*
X651000Y410000I-1000J0D01*
G01*
X641000D02*
G03*
X641000Y410000I-1000J0D01*
G01*
X631000D02*
G03*
X631000Y410000I-1000J0D01*
G01*
X621000D02*
G03*
X621000Y410000I-1000J0D01*
G01*
X691000D02*
G03*
X691000Y410000I-1000J0D01*
G01*
X701000D02*
G03*
X701000Y410000I-1000J0D01*
G01*
X131000Y420000D02*
G03*
X131000Y420000I-1000J0D01*
G01*
X141000D02*
G03*
X141000Y420000I-1000J0D01*
G01*
X151000D02*
G03*
X151000Y420000I-1000J0D01*
G01*
X161000D02*
G03*
X161000Y420000I-1000J0D01*
G01*
X171000D02*
G03*
X171000Y420000I-1000J0D01*
G01*
X181000D02*
G03*
X181000Y420000I-1000J0D01*
G01*
X191000D02*
G03*
X191000Y420000I-1000J0D01*
G01*
X261000D02*
G03*
X261000Y420000I-1000J0D01*
G01*
X251000D02*
G03*
X251000Y420000I-1000J0D01*
G01*
X241000D02*
G03*
X241000Y420000I-1000J0D01*
G01*
X231000D02*
G03*
X231000Y420000I-1000J0D01*
G01*
X221000D02*
G03*
X221000Y420000I-1000J0D01*
G01*
X211000D02*
G03*
X211000Y420000I-1000J0D01*
G01*
X201000D02*
G03*
X201000Y420000I-1000J0D01*
G01*
X331000D02*
G03*
X331000Y420000I-1000J0D01*
G01*
X321000D02*
G03*
X321000Y420000I-1000J0D01*
G01*
X311000D02*
G03*
X311000Y420000I-1000J0D01*
G01*
X301000D02*
G03*
X301000Y420000I-1000J0D01*
G01*
X291000D02*
G03*
X291000Y420000I-1000J0D01*
G01*
X281000D02*
G03*
X281000Y420000I-1000J0D01*
G01*
X271000D02*
G03*
X271000Y420000I-1000J0D01*
G01*
X401000D02*
G03*
X401000Y420000I-1000J0D01*
G01*
X391000D02*
G03*
X391000Y420000I-1000J0D01*
G01*
X381000D02*
G03*
X381000Y420000I-1000J0D01*
G01*
X371000D02*
G03*
X371000Y420000I-1000J0D01*
G01*
X361000D02*
G03*
X361000Y420000I-1000J0D01*
G01*
X351000D02*
G03*
X351000Y420000I-1000J0D01*
G01*
X341000D02*
G03*
X341000Y420000I-1000J0D01*
G01*
X471000D02*
G03*
X471000Y420000I-1000J0D01*
G01*
X461000D02*
G03*
X461000Y420000I-1000J0D01*
G01*
X451000D02*
G03*
X451000Y420000I-1000J0D01*
G01*
X441000D02*
G03*
X441000Y420000I-1000J0D01*
G01*
X431000D02*
G03*
X431000Y420000I-1000J0D01*
G01*
X421000D02*
G03*
X421000Y420000I-1000J0D01*
G01*
X411000D02*
G03*
X411000Y420000I-1000J0D01*
G01*
X541000D02*
G03*
X541000Y420000I-1000J0D01*
G01*
X531000D02*
G03*
X531000Y420000I-1000J0D01*
G01*
X521000D02*
G03*
X521000Y420000I-1000J0D01*
G01*
X511000D02*
G03*
X511000Y420000I-1000J0D01*
G01*
X501000D02*
G03*
X501000Y420000I-1000J0D01*
G01*
X491000D02*
G03*
X491000Y420000I-1000J0D01*
G01*
X481000D02*
G03*
X481000Y420000I-1000J0D01*
G01*
X611000D02*
G03*
X611000Y420000I-1000J0D01*
G01*
X601000D02*
G03*
X601000Y420000I-1000J0D01*
G01*
X591000D02*
G03*
X591000Y420000I-1000J0D01*
G01*
X581000D02*
G03*
X581000Y420000I-1000J0D01*
G01*
X571000D02*
G03*
X571000Y420000I-1000J0D01*
G01*
X561000D02*
G03*
X561000Y420000I-1000J0D01*
G01*
X551000D02*
G03*
X551000Y420000I-1000J0D01*
G01*
X681000D02*
G03*
X681000Y420000I-1000J0D01*
G01*
X671000D02*
G03*
X671000Y420000I-1000J0D01*
G01*
X661000D02*
G03*
X661000Y420000I-1000J0D01*
G01*
X651000D02*
G03*
X651000Y420000I-1000J0D01*
G01*
X641000D02*
G03*
X641000Y420000I-1000J0D01*
G01*
X631000D02*
G03*
X631000Y420000I-1000J0D01*
G01*
X621000D02*
G03*
X621000Y420000I-1000J0D01*
G01*
X691000D02*
G03*
X691000Y420000I-1000J0D01*
G01*
X701000D02*
G03*
X701000Y420000I-1000J0D01*
G01*
X131000Y430000D02*
G03*
X131000Y430000I-1000J0D01*
G01*
X141000D02*
G03*
X141000Y430000I-1000J0D01*
G01*
X151000D02*
G03*
X151000Y430000I-1000J0D01*
G01*
X161000D02*
G03*
X161000Y430000I-1000J0D01*
G01*
X171000D02*
G03*
X171000Y430000I-1000J0D01*
G01*
X181000D02*
G03*
X181000Y430000I-1000J0D01*
G01*
X191000D02*
G03*
X191000Y430000I-1000J0D01*
G01*
X261000D02*
G03*
X261000Y430000I-1000J0D01*
G01*
X251000D02*
G03*
X251000Y430000I-1000J0D01*
G01*
X241000D02*
G03*
X241000Y430000I-1000J0D01*
G01*
X231000D02*
G03*
X231000Y430000I-1000J0D01*
G01*
X221000D02*
G03*
X221000Y430000I-1000J0D01*
G01*
X211000D02*
G03*
X211000Y430000I-1000J0D01*
G01*
X201000D02*
G03*
X201000Y430000I-1000J0D01*
G01*
X331000D02*
G03*
X331000Y430000I-1000J0D01*
G01*
X321000D02*
G03*
X321000Y430000I-1000J0D01*
G01*
X311000D02*
G03*
X311000Y430000I-1000J0D01*
G01*
X301000D02*
G03*
X301000Y430000I-1000J0D01*
G01*
X291000D02*
G03*
X291000Y430000I-1000J0D01*
G01*
X281000D02*
G03*
X281000Y430000I-1000J0D01*
G01*
X271000D02*
G03*
X271000Y430000I-1000J0D01*
G01*
X401000D02*
G03*
X401000Y430000I-1000J0D01*
G01*
X391000D02*
G03*
X391000Y430000I-1000J0D01*
G01*
X381000D02*
G03*
X381000Y430000I-1000J0D01*
G01*
X371000D02*
G03*
X371000Y430000I-1000J0D01*
G01*
X361000D02*
G03*
X361000Y430000I-1000J0D01*
G01*
X351000D02*
G03*
X351000Y430000I-1000J0D01*
G01*
X341000D02*
G03*
X341000Y430000I-1000J0D01*
G01*
X471000D02*
G03*
X471000Y430000I-1000J0D01*
G01*
X461000D02*
G03*
X461000Y430000I-1000J0D01*
G01*
X451000D02*
G03*
X451000Y430000I-1000J0D01*
G01*
X441000D02*
G03*
X441000Y430000I-1000J0D01*
G01*
X431000D02*
G03*
X431000Y430000I-1000J0D01*
G01*
X421000D02*
G03*
X421000Y430000I-1000J0D01*
G01*
X411000D02*
G03*
X411000Y430000I-1000J0D01*
G01*
X541000D02*
G03*
X541000Y430000I-1000J0D01*
G01*
X531000D02*
G03*
X531000Y430000I-1000J0D01*
G01*
X521000D02*
G03*
X521000Y430000I-1000J0D01*
G01*
X511000D02*
G03*
X511000Y430000I-1000J0D01*
G01*
X501000D02*
G03*
X501000Y430000I-1000J0D01*
G01*
X491000D02*
G03*
X491000Y430000I-1000J0D01*
G01*
X481000D02*
G03*
X481000Y430000I-1000J0D01*
G01*
X611000D02*
G03*
X611000Y430000I-1000J0D01*
G01*
X601000D02*
G03*
X601000Y430000I-1000J0D01*
G01*
X591000D02*
G03*
X591000Y430000I-1000J0D01*
G01*
X581000D02*
G03*
X581000Y430000I-1000J0D01*
G01*
X571000D02*
G03*
X571000Y430000I-1000J0D01*
G01*
X561000D02*
G03*
X561000Y430000I-1000J0D01*
G01*
X551000D02*
G03*
X551000Y430000I-1000J0D01*
G01*
X681000D02*
G03*
X681000Y430000I-1000J0D01*
G01*
X671000D02*
G03*
X671000Y430000I-1000J0D01*
G01*
X661000D02*
G03*
X661000Y430000I-1000J0D01*
G01*
X651000D02*
G03*
X651000Y430000I-1000J0D01*
G01*
X641000D02*
G03*
X641000Y430000I-1000J0D01*
G01*
X631000D02*
G03*
X631000Y430000I-1000J0D01*
G01*
X621000D02*
G03*
X621000Y430000I-1000J0D01*
G01*
X691000D02*
G03*
X691000Y430000I-1000J0D01*
G01*
X701000D02*
G03*
X701000Y430000I-1000J0D01*
G01*
Y440000D02*
G03*
X701000Y440000I-1000J0D01*
G01*
X691000D02*
G03*
X691000Y440000I-1000J0D01*
G01*
X621000D02*
G03*
X621000Y440000I-1000J0D01*
G01*
X631000D02*
G03*
X631000Y440000I-1000J0D01*
G01*
X641000D02*
G03*
X641000Y440000I-1000J0D01*
G01*
X651000D02*
G03*
X651000Y440000I-1000J0D01*
G01*
X661000D02*
G03*
X661000Y440000I-1000J0D01*
G01*
X671000D02*
G03*
X671000Y440000I-1000J0D01*
G01*
X681000D02*
G03*
X681000Y440000I-1000J0D01*
G01*
X551000D02*
G03*
X551000Y440000I-1000J0D01*
G01*
X561000D02*
G03*
X561000Y440000I-1000J0D01*
G01*
X571000D02*
G03*
X571000Y440000I-1000J0D01*
G01*
X581000D02*
G03*
X581000Y440000I-1000J0D01*
G01*
X591000D02*
G03*
X591000Y440000I-1000J0D01*
G01*
X601000D02*
G03*
X601000Y440000I-1000J0D01*
G01*
X611000D02*
G03*
X611000Y440000I-1000J0D01*
G01*
X481000D02*
G03*
X481000Y440000I-1000J0D01*
G01*
X491000D02*
G03*
X491000Y440000I-1000J0D01*
G01*
X501000D02*
G03*
X501000Y440000I-1000J0D01*
G01*
X511000D02*
G03*
X511000Y440000I-1000J0D01*
G01*
X521000D02*
G03*
X521000Y440000I-1000J0D01*
G01*
X531000D02*
G03*
X531000Y440000I-1000J0D01*
G01*
X541000D02*
G03*
X541000Y440000I-1000J0D01*
G01*
X411000D02*
G03*
X411000Y440000I-1000J0D01*
G01*
X421000D02*
G03*
X421000Y440000I-1000J0D01*
G01*
X431000D02*
G03*
X431000Y440000I-1000J0D01*
G01*
X441000D02*
G03*
X441000Y440000I-1000J0D01*
G01*
X451000D02*
G03*
X451000Y440000I-1000J0D01*
G01*
X461000D02*
G03*
X461000Y440000I-1000J0D01*
G01*
X471000D02*
G03*
X471000Y440000I-1000J0D01*
G01*
X341000D02*
G03*
X341000Y440000I-1000J0D01*
G01*
X351000D02*
G03*
X351000Y440000I-1000J0D01*
G01*
X361000D02*
G03*
X361000Y440000I-1000J0D01*
G01*
X371000D02*
G03*
X371000Y440000I-1000J0D01*
G01*
X381000D02*
G03*
X381000Y440000I-1000J0D01*
G01*
X391000D02*
G03*
X391000Y440000I-1000J0D01*
G01*
X401000D02*
G03*
X401000Y440000I-1000J0D01*
G01*
X271000D02*
G03*
X271000Y440000I-1000J0D01*
G01*
X281000D02*
G03*
X281000Y440000I-1000J0D01*
G01*
X291000D02*
G03*
X291000Y440000I-1000J0D01*
G01*
X301000D02*
G03*
X301000Y440000I-1000J0D01*
G01*
X311000D02*
G03*
X311000Y440000I-1000J0D01*
G01*
X321000D02*
G03*
X321000Y440000I-1000J0D01*
G01*
X331000D02*
G03*
X331000Y440000I-1000J0D01*
G01*
X201000D02*
G03*
X201000Y440000I-1000J0D01*
G01*
X211000D02*
G03*
X211000Y440000I-1000J0D01*
G01*
X221000D02*
G03*
X221000Y440000I-1000J0D01*
G01*
X231000D02*
G03*
X231000Y440000I-1000J0D01*
G01*
X241000D02*
G03*
X241000Y440000I-1000J0D01*
G01*
X251000D02*
G03*
X251000Y440000I-1000J0D01*
G01*
X261000D02*
G03*
X261000Y440000I-1000J0D01*
G01*
X191000D02*
G03*
X191000Y440000I-1000J0D01*
G01*
X181000D02*
G03*
X181000Y440000I-1000J0D01*
G01*
X171000D02*
G03*
X171000Y440000I-1000J0D01*
G01*
X161000D02*
G03*
X161000Y440000I-1000J0D01*
G01*
X151000D02*
G03*
X151000Y440000I-1000J0D01*
G01*
X141000D02*
G03*
X141000Y440000I-1000J0D01*
G01*
X131000D02*
G03*
X131000Y440000I-1000J0D01*
G01*
D12*
X120000Y450000D02*
X710000D01*
X120000Y100000D02*
X710000D01*
Y450000D01*
X120000Y100000D02*
Y450000D01*
M02*
