G04*
G04 #@! TF.GenerationSoftware,Altium Limited,Altium Designer,20.0.1 (14)*
G04*
G04 Layer_Color=8388736*
%FSLAX25Y25*%
%MOIN*%
G70*
G01*
G75*
%ADD10C,0.01937*%
D10*
X132937Y110000D02*
G03*
X132937Y110000I-2937J0D01*
G01*
X142937D02*
G03*
X142937Y110000I-2937J0D01*
G01*
X152937D02*
G03*
X152937Y110000I-2937J0D01*
G01*
X162937D02*
G03*
X162937Y110000I-2937J0D01*
G01*
X172937D02*
G03*
X172937Y110000I-2937J0D01*
G01*
X182937D02*
G03*
X182937Y110000I-2937J0D01*
G01*
X192937D02*
G03*
X192937Y110000I-2937J0D01*
G01*
X262937D02*
G03*
X262937Y110000I-2937J0D01*
G01*
X252937D02*
G03*
X252937Y110000I-2937J0D01*
G01*
X242937D02*
G03*
X242937Y110000I-2937J0D01*
G01*
X232937D02*
G03*
X232937Y110000I-2937J0D01*
G01*
X222937D02*
G03*
X222937Y110000I-2937J0D01*
G01*
X212937D02*
G03*
X212937Y110000I-2937J0D01*
G01*
X202937D02*
G03*
X202937Y110000I-2937J0D01*
G01*
X332937D02*
G03*
X332937Y110000I-2937J0D01*
G01*
X322937D02*
G03*
X322937Y110000I-2937J0D01*
G01*
X312937D02*
G03*
X312937Y110000I-2937J0D01*
G01*
X302937D02*
G03*
X302937Y110000I-2937J0D01*
G01*
X292937D02*
G03*
X292937Y110000I-2937J0D01*
G01*
X282937D02*
G03*
X282937Y110000I-2937J0D01*
G01*
X272937D02*
G03*
X272937Y110000I-2937J0D01*
G01*
X402937D02*
G03*
X402937Y110000I-2937J0D01*
G01*
X392937D02*
G03*
X392937Y110000I-2937J0D01*
G01*
X382937D02*
G03*
X382937Y110000I-2937J0D01*
G01*
X372937D02*
G03*
X372937Y110000I-2937J0D01*
G01*
X362937D02*
G03*
X362937Y110000I-2937J0D01*
G01*
X352937D02*
G03*
X352937Y110000I-2937J0D01*
G01*
X342937D02*
G03*
X342937Y110000I-2937J0D01*
G01*
X472937D02*
G03*
X472937Y110000I-2937J0D01*
G01*
X462937D02*
G03*
X462937Y110000I-2937J0D01*
G01*
X452937D02*
G03*
X452937Y110000I-2937J0D01*
G01*
X442937D02*
G03*
X442937Y110000I-2937J0D01*
G01*
X432937D02*
G03*
X432937Y110000I-2937J0D01*
G01*
X422937D02*
G03*
X422937Y110000I-2937J0D01*
G01*
X412937D02*
G03*
X412937Y110000I-2937J0D01*
G01*
X542937D02*
G03*
X542937Y110000I-2937J0D01*
G01*
X532937D02*
G03*
X532937Y110000I-2937J0D01*
G01*
X522937D02*
G03*
X522937Y110000I-2937J0D01*
G01*
X512937D02*
G03*
X512937Y110000I-2937J0D01*
G01*
X502937D02*
G03*
X502937Y110000I-2937J0D01*
G01*
X492937D02*
G03*
X492937Y110000I-2937J0D01*
G01*
X482937D02*
G03*
X482937Y110000I-2937J0D01*
G01*
X612937D02*
G03*
X612937Y110000I-2937J0D01*
G01*
X602937D02*
G03*
X602937Y110000I-2937J0D01*
G01*
X592937D02*
G03*
X592937Y110000I-2937J0D01*
G01*
X582937D02*
G03*
X582937Y110000I-2937J0D01*
G01*
X572937D02*
G03*
X572937Y110000I-2937J0D01*
G01*
X562937D02*
G03*
X562937Y110000I-2937J0D01*
G01*
X552937D02*
G03*
X552937Y110000I-2937J0D01*
G01*
X682937D02*
G03*
X682937Y110000I-2937J0D01*
G01*
X672937D02*
G03*
X672937Y110000I-2937J0D01*
G01*
X662937D02*
G03*
X662937Y110000I-2937J0D01*
G01*
X652937D02*
G03*
X652937Y110000I-2937J0D01*
G01*
X642937D02*
G03*
X642937Y110000I-2937J0D01*
G01*
X632937D02*
G03*
X632937Y110000I-2937J0D01*
G01*
X622937D02*
G03*
X622937Y110000I-2937J0D01*
G01*
X692937D02*
G03*
X692937Y110000I-2937J0D01*
G01*
X702937D02*
G03*
X702937Y110000I-2937J0D01*
G01*
X132937Y120000D02*
G03*
X132937Y120000I-2937J0D01*
G01*
X142937D02*
G03*
X142937Y120000I-2937J0D01*
G01*
X152937D02*
G03*
X152937Y120000I-2937J0D01*
G01*
X162937D02*
G03*
X162937Y120000I-2937J0D01*
G01*
X172937D02*
G03*
X172937Y120000I-2937J0D01*
G01*
X182937D02*
G03*
X182937Y120000I-2937J0D01*
G01*
X192937D02*
G03*
X192937Y120000I-2937J0D01*
G01*
X262937D02*
G03*
X262937Y120000I-2937J0D01*
G01*
X252937D02*
G03*
X252937Y120000I-2937J0D01*
G01*
X242937D02*
G03*
X242937Y120000I-2937J0D01*
G01*
X232937D02*
G03*
X232937Y120000I-2937J0D01*
G01*
X222937D02*
G03*
X222937Y120000I-2937J0D01*
G01*
X212937D02*
G03*
X212937Y120000I-2937J0D01*
G01*
X202937D02*
G03*
X202937Y120000I-2937J0D01*
G01*
X332937D02*
G03*
X332937Y120000I-2937J0D01*
G01*
X322937D02*
G03*
X322937Y120000I-2937J0D01*
G01*
X312937D02*
G03*
X312937Y120000I-2937J0D01*
G01*
X302937D02*
G03*
X302937Y120000I-2937J0D01*
G01*
X292937D02*
G03*
X292937Y120000I-2937J0D01*
G01*
X282937D02*
G03*
X282937Y120000I-2937J0D01*
G01*
X272937D02*
G03*
X272937Y120000I-2937J0D01*
G01*
X402937D02*
G03*
X402937Y120000I-2937J0D01*
G01*
X392937D02*
G03*
X392937Y120000I-2937J0D01*
G01*
X382937D02*
G03*
X382937Y120000I-2937J0D01*
G01*
X372937D02*
G03*
X372937Y120000I-2937J0D01*
G01*
X362937D02*
G03*
X362937Y120000I-2937J0D01*
G01*
X352937D02*
G03*
X352937Y120000I-2937J0D01*
G01*
X342937D02*
G03*
X342937Y120000I-2937J0D01*
G01*
X472937D02*
G03*
X472937Y120000I-2937J0D01*
G01*
X462937D02*
G03*
X462937Y120000I-2937J0D01*
G01*
X452937D02*
G03*
X452937Y120000I-2937J0D01*
G01*
X442937D02*
G03*
X442937Y120000I-2937J0D01*
G01*
X432937D02*
G03*
X432937Y120000I-2937J0D01*
G01*
X422937D02*
G03*
X422937Y120000I-2937J0D01*
G01*
X412937D02*
G03*
X412937Y120000I-2937J0D01*
G01*
X542937D02*
G03*
X542937Y120000I-2937J0D01*
G01*
X532937D02*
G03*
X532937Y120000I-2937J0D01*
G01*
X522937D02*
G03*
X522937Y120000I-2937J0D01*
G01*
X512937D02*
G03*
X512937Y120000I-2937J0D01*
G01*
X502937D02*
G03*
X502937Y120000I-2937J0D01*
G01*
X492937D02*
G03*
X492937Y120000I-2937J0D01*
G01*
X482937D02*
G03*
X482937Y120000I-2937J0D01*
G01*
X612937D02*
G03*
X612937Y120000I-2937J0D01*
G01*
X602937D02*
G03*
X602937Y120000I-2937J0D01*
G01*
X592937D02*
G03*
X592937Y120000I-2937J0D01*
G01*
X582937D02*
G03*
X582937Y120000I-2937J0D01*
G01*
X572937D02*
G03*
X572937Y120000I-2937J0D01*
G01*
X562937D02*
G03*
X562937Y120000I-2937J0D01*
G01*
X552937D02*
G03*
X552937Y120000I-2937J0D01*
G01*
X682937D02*
G03*
X682937Y120000I-2937J0D01*
G01*
X672937D02*
G03*
X672937Y120000I-2937J0D01*
G01*
X662937D02*
G03*
X662937Y120000I-2937J0D01*
G01*
X652937D02*
G03*
X652937Y120000I-2937J0D01*
G01*
X642937D02*
G03*
X642937Y120000I-2937J0D01*
G01*
X632937D02*
G03*
X632937Y120000I-2937J0D01*
G01*
X622937D02*
G03*
X622937Y120000I-2937J0D01*
G01*
X692937D02*
G03*
X692937Y120000I-2937J0D01*
G01*
X702937D02*
G03*
X702937Y120000I-2937J0D01*
G01*
X132937Y160000D02*
G03*
X132937Y160000I-2937J0D01*
G01*
X142937D02*
G03*
X142937Y160000I-2937J0D01*
G01*
X152937D02*
G03*
X152937Y160000I-2937J0D01*
G01*
X162937D02*
G03*
X162937Y160000I-2937J0D01*
G01*
X172937D02*
G03*
X172937Y160000I-2937J0D01*
G01*
X182937D02*
G03*
X182937Y160000I-2937J0D01*
G01*
X192937D02*
G03*
X192937Y160000I-2937J0D01*
G01*
X262937D02*
G03*
X262937Y160000I-2937J0D01*
G01*
X252937D02*
G03*
X252937Y160000I-2937J0D01*
G01*
X242937D02*
G03*
X242937Y160000I-2937J0D01*
G01*
X232937D02*
G03*
X232937Y160000I-2937J0D01*
G01*
X222937D02*
G03*
X222937Y160000I-2937J0D01*
G01*
X212937D02*
G03*
X212937Y160000I-2937J0D01*
G01*
X202937D02*
G03*
X202937Y160000I-2937J0D01*
G01*
X332937D02*
G03*
X332937Y160000I-2937J0D01*
G01*
X322937D02*
G03*
X322937Y160000I-2937J0D01*
G01*
X312937D02*
G03*
X312937Y160000I-2937J0D01*
G01*
X302937D02*
G03*
X302937Y160000I-2937J0D01*
G01*
X292937D02*
G03*
X292937Y160000I-2937J0D01*
G01*
X282937D02*
G03*
X282937Y160000I-2937J0D01*
G01*
X272937D02*
G03*
X272937Y160000I-2937J0D01*
G01*
X402937D02*
G03*
X402937Y160000I-2937J0D01*
G01*
X392937D02*
G03*
X392937Y160000I-2937J0D01*
G01*
X382937D02*
G03*
X382937Y160000I-2937J0D01*
G01*
X372937D02*
G03*
X372937Y160000I-2937J0D01*
G01*
X362937D02*
G03*
X362937Y160000I-2937J0D01*
G01*
X352937D02*
G03*
X352937Y160000I-2937J0D01*
G01*
X342937D02*
G03*
X342937Y160000I-2937J0D01*
G01*
X472937D02*
G03*
X472937Y160000I-2937J0D01*
G01*
X462937D02*
G03*
X462937Y160000I-2937J0D01*
G01*
X452937D02*
G03*
X452937Y160000I-2937J0D01*
G01*
X442937D02*
G03*
X442937Y160000I-2937J0D01*
G01*
X432937D02*
G03*
X432937Y160000I-2937J0D01*
G01*
X422937D02*
G03*
X422937Y160000I-2937J0D01*
G01*
X412937D02*
G03*
X412937Y160000I-2937J0D01*
G01*
X542937D02*
G03*
X542937Y160000I-2937J0D01*
G01*
X532937D02*
G03*
X532937Y160000I-2937J0D01*
G01*
X522937D02*
G03*
X522937Y160000I-2937J0D01*
G01*
X512937D02*
G03*
X512937Y160000I-2937J0D01*
G01*
X502937D02*
G03*
X502937Y160000I-2937J0D01*
G01*
X492937D02*
G03*
X492937Y160000I-2937J0D01*
G01*
X482937D02*
G03*
X482937Y160000I-2937J0D01*
G01*
X612937D02*
G03*
X612937Y160000I-2937J0D01*
G01*
X602937D02*
G03*
X602937Y160000I-2937J0D01*
G01*
X592937D02*
G03*
X592937Y160000I-2937J0D01*
G01*
X582937D02*
G03*
X582937Y160000I-2937J0D01*
G01*
X572937D02*
G03*
X572937Y160000I-2937J0D01*
G01*
X562937D02*
G03*
X562937Y160000I-2937J0D01*
G01*
X552937D02*
G03*
X552937Y160000I-2937J0D01*
G01*
X682937D02*
G03*
X682937Y160000I-2937J0D01*
G01*
X672937D02*
G03*
X672937Y160000I-2937J0D01*
G01*
X662937D02*
G03*
X662937Y160000I-2937J0D01*
G01*
X652937D02*
G03*
X652937Y160000I-2937J0D01*
G01*
X642937D02*
G03*
X642937Y160000I-2937J0D01*
G01*
X632937D02*
G03*
X632937Y160000I-2937J0D01*
G01*
X622937D02*
G03*
X622937Y160000I-2937J0D01*
G01*
X692937D02*
G03*
X692937Y160000I-2937J0D01*
G01*
X702937D02*
G03*
X702937Y160000I-2937J0D01*
G01*
Y150000D02*
G03*
X702937Y150000I-2937J0D01*
G01*
X692937D02*
G03*
X692937Y150000I-2937J0D01*
G01*
X622937D02*
G03*
X622937Y150000I-2937J0D01*
G01*
X632937D02*
G03*
X632937Y150000I-2937J0D01*
G01*
X642937D02*
G03*
X642937Y150000I-2937J0D01*
G01*
X652937D02*
G03*
X652937Y150000I-2937J0D01*
G01*
X662937D02*
G03*
X662937Y150000I-2937J0D01*
G01*
X672937D02*
G03*
X672937Y150000I-2937J0D01*
G01*
X682937D02*
G03*
X682937Y150000I-2937J0D01*
G01*
X552937D02*
G03*
X552937Y150000I-2937J0D01*
G01*
X562937D02*
G03*
X562937Y150000I-2937J0D01*
G01*
X572937D02*
G03*
X572937Y150000I-2937J0D01*
G01*
X582937D02*
G03*
X582937Y150000I-2937J0D01*
G01*
X592937D02*
G03*
X592937Y150000I-2937J0D01*
G01*
X602937D02*
G03*
X602937Y150000I-2937J0D01*
G01*
X612937D02*
G03*
X612937Y150000I-2937J0D01*
G01*
X482937D02*
G03*
X482937Y150000I-2937J0D01*
G01*
X492937D02*
G03*
X492937Y150000I-2937J0D01*
G01*
X502937D02*
G03*
X502937Y150000I-2937J0D01*
G01*
X512937D02*
G03*
X512937Y150000I-2937J0D01*
G01*
X522937D02*
G03*
X522937Y150000I-2937J0D01*
G01*
X532937D02*
G03*
X532937Y150000I-2937J0D01*
G01*
X542937D02*
G03*
X542937Y150000I-2937J0D01*
G01*
X412937D02*
G03*
X412937Y150000I-2937J0D01*
G01*
X422937D02*
G03*
X422937Y150000I-2937J0D01*
G01*
X432937D02*
G03*
X432937Y150000I-2937J0D01*
G01*
X442937D02*
G03*
X442937Y150000I-2937J0D01*
G01*
X452937D02*
G03*
X452937Y150000I-2937J0D01*
G01*
X462937D02*
G03*
X462937Y150000I-2937J0D01*
G01*
X472937D02*
G03*
X472937Y150000I-2937J0D01*
G01*
X342937D02*
G03*
X342937Y150000I-2937J0D01*
G01*
X352937D02*
G03*
X352937Y150000I-2937J0D01*
G01*
X362937D02*
G03*
X362937Y150000I-2937J0D01*
G01*
X372937D02*
G03*
X372937Y150000I-2937J0D01*
G01*
X382937D02*
G03*
X382937Y150000I-2937J0D01*
G01*
X392937D02*
G03*
X392937Y150000I-2937J0D01*
G01*
X402937D02*
G03*
X402937Y150000I-2937J0D01*
G01*
X272937D02*
G03*
X272937Y150000I-2937J0D01*
G01*
X282937D02*
G03*
X282937Y150000I-2937J0D01*
G01*
X292937D02*
G03*
X292937Y150000I-2937J0D01*
G01*
X302937D02*
G03*
X302937Y150000I-2937J0D01*
G01*
X312937D02*
G03*
X312937Y150000I-2937J0D01*
G01*
X322937D02*
G03*
X322937Y150000I-2937J0D01*
G01*
X332937D02*
G03*
X332937Y150000I-2937J0D01*
G01*
X202937D02*
G03*
X202937Y150000I-2937J0D01*
G01*
X212937D02*
G03*
X212937Y150000I-2937J0D01*
G01*
X222937D02*
G03*
X222937Y150000I-2937J0D01*
G01*
X232937D02*
G03*
X232937Y150000I-2937J0D01*
G01*
X242937D02*
G03*
X242937Y150000I-2937J0D01*
G01*
X252937D02*
G03*
X252937Y150000I-2937J0D01*
G01*
X262937D02*
G03*
X262937Y150000I-2937J0D01*
G01*
X192937D02*
G03*
X192937Y150000I-2937J0D01*
G01*
X182937D02*
G03*
X182937Y150000I-2937J0D01*
G01*
X172937D02*
G03*
X172937Y150000I-2937J0D01*
G01*
X162937D02*
G03*
X162937Y150000I-2937J0D01*
G01*
X152937D02*
G03*
X152937Y150000I-2937J0D01*
G01*
X142937D02*
G03*
X142937Y150000I-2937J0D01*
G01*
X132937D02*
G03*
X132937Y150000I-2937J0D01*
G01*
X702937Y140000D02*
G03*
X702937Y140000I-2937J0D01*
G01*
X692937D02*
G03*
X692937Y140000I-2937J0D01*
G01*
X622937D02*
G03*
X622937Y140000I-2937J0D01*
G01*
X632937D02*
G03*
X632937Y140000I-2937J0D01*
G01*
X642937D02*
G03*
X642937Y140000I-2937J0D01*
G01*
X652937D02*
G03*
X652937Y140000I-2937J0D01*
G01*
X662937D02*
G03*
X662937Y140000I-2937J0D01*
G01*
X672937D02*
G03*
X672937Y140000I-2937J0D01*
G01*
X682937D02*
G03*
X682937Y140000I-2937J0D01*
G01*
X552937D02*
G03*
X552937Y140000I-2937J0D01*
G01*
X562937D02*
G03*
X562937Y140000I-2937J0D01*
G01*
X572937D02*
G03*
X572937Y140000I-2937J0D01*
G01*
X582937D02*
G03*
X582937Y140000I-2937J0D01*
G01*
X592937D02*
G03*
X592937Y140000I-2937J0D01*
G01*
X602937D02*
G03*
X602937Y140000I-2937J0D01*
G01*
X612937D02*
G03*
X612937Y140000I-2937J0D01*
G01*
X482937D02*
G03*
X482937Y140000I-2937J0D01*
G01*
X492937D02*
G03*
X492937Y140000I-2937J0D01*
G01*
X502937D02*
G03*
X502937Y140000I-2937J0D01*
G01*
X512937D02*
G03*
X512937Y140000I-2937J0D01*
G01*
X522937D02*
G03*
X522937Y140000I-2937J0D01*
G01*
X532937D02*
G03*
X532937Y140000I-2937J0D01*
G01*
X542937D02*
G03*
X542937Y140000I-2937J0D01*
G01*
X412937D02*
G03*
X412937Y140000I-2937J0D01*
G01*
X422937D02*
G03*
X422937Y140000I-2937J0D01*
G01*
X432937D02*
G03*
X432937Y140000I-2937J0D01*
G01*
X442937D02*
G03*
X442937Y140000I-2937J0D01*
G01*
X452937D02*
G03*
X452937Y140000I-2937J0D01*
G01*
X462937D02*
G03*
X462937Y140000I-2937J0D01*
G01*
X472937D02*
G03*
X472937Y140000I-2937J0D01*
G01*
X342937D02*
G03*
X342937Y140000I-2937J0D01*
G01*
X352937D02*
G03*
X352937Y140000I-2937J0D01*
G01*
X362937D02*
G03*
X362937Y140000I-2937J0D01*
G01*
X372937D02*
G03*
X372937Y140000I-2937J0D01*
G01*
X382937D02*
G03*
X382937Y140000I-2937J0D01*
G01*
X392937D02*
G03*
X392937Y140000I-2937J0D01*
G01*
X402937D02*
G03*
X402937Y140000I-2937J0D01*
G01*
X272937D02*
G03*
X272937Y140000I-2937J0D01*
G01*
X282937D02*
G03*
X282937Y140000I-2937J0D01*
G01*
X292937D02*
G03*
X292937Y140000I-2937J0D01*
G01*
X302937D02*
G03*
X302937Y140000I-2937J0D01*
G01*
X312937D02*
G03*
X312937Y140000I-2937J0D01*
G01*
X322937D02*
G03*
X322937Y140000I-2937J0D01*
G01*
X332937D02*
G03*
X332937Y140000I-2937J0D01*
G01*
X202937D02*
G03*
X202937Y140000I-2937J0D01*
G01*
X212937D02*
G03*
X212937Y140000I-2937J0D01*
G01*
X222937D02*
G03*
X222937Y140000I-2937J0D01*
G01*
X232937D02*
G03*
X232937Y140000I-2937J0D01*
G01*
X242937D02*
G03*
X242937Y140000I-2937J0D01*
G01*
X252937D02*
G03*
X252937Y140000I-2937J0D01*
G01*
X262937D02*
G03*
X262937Y140000I-2937J0D01*
G01*
X192937D02*
G03*
X192937Y140000I-2937J0D01*
G01*
X182937D02*
G03*
X182937Y140000I-2937J0D01*
G01*
X172937D02*
G03*
X172937Y140000I-2937J0D01*
G01*
X162937D02*
G03*
X162937Y140000I-2937J0D01*
G01*
X152937D02*
G03*
X152937Y140000I-2937J0D01*
G01*
X142937D02*
G03*
X142937Y140000I-2937J0D01*
G01*
X132937D02*
G03*
X132937Y140000I-2937J0D01*
G01*
X702937Y130000D02*
G03*
X702937Y130000I-2937J0D01*
G01*
X692937D02*
G03*
X692937Y130000I-2937J0D01*
G01*
X622937D02*
G03*
X622937Y130000I-2937J0D01*
G01*
X632937D02*
G03*
X632937Y130000I-2937J0D01*
G01*
X642937D02*
G03*
X642937Y130000I-2937J0D01*
G01*
X652937D02*
G03*
X652937Y130000I-2937J0D01*
G01*
X662937D02*
G03*
X662937Y130000I-2937J0D01*
G01*
X672937D02*
G03*
X672937Y130000I-2937J0D01*
G01*
X682937D02*
G03*
X682937Y130000I-2937J0D01*
G01*
X552937D02*
G03*
X552937Y130000I-2937J0D01*
G01*
X562937D02*
G03*
X562937Y130000I-2937J0D01*
G01*
X572937D02*
G03*
X572937Y130000I-2937J0D01*
G01*
X582937D02*
G03*
X582937Y130000I-2937J0D01*
G01*
X592937D02*
G03*
X592937Y130000I-2937J0D01*
G01*
X602937D02*
G03*
X602937Y130000I-2937J0D01*
G01*
X612937D02*
G03*
X612937Y130000I-2937J0D01*
G01*
X482937D02*
G03*
X482937Y130000I-2937J0D01*
G01*
X492937D02*
G03*
X492937Y130000I-2937J0D01*
G01*
X502937D02*
G03*
X502937Y130000I-2937J0D01*
G01*
X512937D02*
G03*
X512937Y130000I-2937J0D01*
G01*
X522937D02*
G03*
X522937Y130000I-2937J0D01*
G01*
X532937D02*
G03*
X532937Y130000I-2937J0D01*
G01*
X542937D02*
G03*
X542937Y130000I-2937J0D01*
G01*
X412937D02*
G03*
X412937Y130000I-2937J0D01*
G01*
X422937D02*
G03*
X422937Y130000I-2937J0D01*
G01*
X432937D02*
G03*
X432937Y130000I-2937J0D01*
G01*
X442937D02*
G03*
X442937Y130000I-2937J0D01*
G01*
X452937D02*
G03*
X452937Y130000I-2937J0D01*
G01*
X462937D02*
G03*
X462937Y130000I-2937J0D01*
G01*
X472937D02*
G03*
X472937Y130000I-2937J0D01*
G01*
X342937D02*
G03*
X342937Y130000I-2937J0D01*
G01*
X352937D02*
G03*
X352937Y130000I-2937J0D01*
G01*
X362937D02*
G03*
X362937Y130000I-2937J0D01*
G01*
X372937D02*
G03*
X372937Y130000I-2937J0D01*
G01*
X382937D02*
G03*
X382937Y130000I-2937J0D01*
G01*
X392937D02*
G03*
X392937Y130000I-2937J0D01*
G01*
X402937D02*
G03*
X402937Y130000I-2937J0D01*
G01*
X272937D02*
G03*
X272937Y130000I-2937J0D01*
G01*
X282937D02*
G03*
X282937Y130000I-2937J0D01*
G01*
X292937D02*
G03*
X292937Y130000I-2937J0D01*
G01*
X302937D02*
G03*
X302937Y130000I-2937J0D01*
G01*
X312937D02*
G03*
X312937Y130000I-2937J0D01*
G01*
X322937D02*
G03*
X322937Y130000I-2937J0D01*
G01*
X332937D02*
G03*
X332937Y130000I-2937J0D01*
G01*
X202937D02*
G03*
X202937Y130000I-2937J0D01*
G01*
X212937D02*
G03*
X212937Y130000I-2937J0D01*
G01*
X222937D02*
G03*
X222937Y130000I-2937J0D01*
G01*
X232937D02*
G03*
X232937Y130000I-2937J0D01*
G01*
X242937D02*
G03*
X242937Y130000I-2937J0D01*
G01*
X252937D02*
G03*
X252937Y130000I-2937J0D01*
G01*
X262937D02*
G03*
X262937Y130000I-2937J0D01*
G01*
X192937D02*
G03*
X192937Y130000I-2937J0D01*
G01*
X182937D02*
G03*
X182937Y130000I-2937J0D01*
G01*
X172937D02*
G03*
X172937Y130000I-2937J0D01*
G01*
X162937D02*
G03*
X162937Y130000I-2937J0D01*
G01*
X152937D02*
G03*
X152937Y130000I-2937J0D01*
G01*
X142937D02*
G03*
X142937Y130000I-2937J0D01*
G01*
X132937D02*
G03*
X132937Y130000I-2937J0D01*
G01*
Y200000D02*
G03*
X132937Y200000I-2937J0D01*
G01*
X142937D02*
G03*
X142937Y200000I-2937J0D01*
G01*
X152937D02*
G03*
X152937Y200000I-2937J0D01*
G01*
X162937D02*
G03*
X162937Y200000I-2937J0D01*
G01*
X172937D02*
G03*
X172937Y200000I-2937J0D01*
G01*
X182937D02*
G03*
X182937Y200000I-2937J0D01*
G01*
X192937D02*
G03*
X192937Y200000I-2937J0D01*
G01*
X262937D02*
G03*
X262937Y200000I-2937J0D01*
G01*
X252937D02*
G03*
X252937Y200000I-2937J0D01*
G01*
X242937D02*
G03*
X242937Y200000I-2937J0D01*
G01*
X232937D02*
G03*
X232937Y200000I-2937J0D01*
G01*
X222937D02*
G03*
X222937Y200000I-2937J0D01*
G01*
X212937D02*
G03*
X212937Y200000I-2937J0D01*
G01*
X202937D02*
G03*
X202937Y200000I-2937J0D01*
G01*
X332937D02*
G03*
X332937Y200000I-2937J0D01*
G01*
X322937D02*
G03*
X322937Y200000I-2937J0D01*
G01*
X312937D02*
G03*
X312937Y200000I-2937J0D01*
G01*
X302937D02*
G03*
X302937Y200000I-2937J0D01*
G01*
X292937D02*
G03*
X292937Y200000I-2937J0D01*
G01*
X282937D02*
G03*
X282937Y200000I-2937J0D01*
G01*
X272937D02*
G03*
X272937Y200000I-2937J0D01*
G01*
X402937D02*
G03*
X402937Y200000I-2937J0D01*
G01*
X392937D02*
G03*
X392937Y200000I-2937J0D01*
G01*
X382937D02*
G03*
X382937Y200000I-2937J0D01*
G01*
X372937D02*
G03*
X372937Y200000I-2937J0D01*
G01*
X362937D02*
G03*
X362937Y200000I-2937J0D01*
G01*
X352937D02*
G03*
X352937Y200000I-2937J0D01*
G01*
X342937D02*
G03*
X342937Y200000I-2937J0D01*
G01*
X472937D02*
G03*
X472937Y200000I-2937J0D01*
G01*
X462937D02*
G03*
X462937Y200000I-2937J0D01*
G01*
X452937D02*
G03*
X452937Y200000I-2937J0D01*
G01*
X442937D02*
G03*
X442937Y200000I-2937J0D01*
G01*
X432937D02*
G03*
X432937Y200000I-2937J0D01*
G01*
X422937D02*
G03*
X422937Y200000I-2937J0D01*
G01*
X412937D02*
G03*
X412937Y200000I-2937J0D01*
G01*
X542937D02*
G03*
X542937Y200000I-2937J0D01*
G01*
X532937D02*
G03*
X532937Y200000I-2937J0D01*
G01*
X522937D02*
G03*
X522937Y200000I-2937J0D01*
G01*
X512937D02*
G03*
X512937Y200000I-2937J0D01*
G01*
X502937D02*
G03*
X502937Y200000I-2937J0D01*
G01*
X492937D02*
G03*
X492937Y200000I-2937J0D01*
G01*
X482937D02*
G03*
X482937Y200000I-2937J0D01*
G01*
X612937D02*
G03*
X612937Y200000I-2937J0D01*
G01*
X602937D02*
G03*
X602937Y200000I-2937J0D01*
G01*
X592937D02*
G03*
X592937Y200000I-2937J0D01*
G01*
X582937D02*
G03*
X582937Y200000I-2937J0D01*
G01*
X572937D02*
G03*
X572937Y200000I-2937J0D01*
G01*
X562937D02*
G03*
X562937Y200000I-2937J0D01*
G01*
X552937D02*
G03*
X552937Y200000I-2937J0D01*
G01*
X682937D02*
G03*
X682937Y200000I-2937J0D01*
G01*
X672937D02*
G03*
X672937Y200000I-2937J0D01*
G01*
X662937D02*
G03*
X662937Y200000I-2937J0D01*
G01*
X652937D02*
G03*
X652937Y200000I-2937J0D01*
G01*
X642937D02*
G03*
X642937Y200000I-2937J0D01*
G01*
X632937D02*
G03*
X632937Y200000I-2937J0D01*
G01*
X622937D02*
G03*
X622937Y200000I-2937J0D01*
G01*
X692937D02*
G03*
X692937Y200000I-2937J0D01*
G01*
X702937D02*
G03*
X702937Y200000I-2937J0D01*
G01*
Y190000D02*
G03*
X702937Y190000I-2937J0D01*
G01*
X692937D02*
G03*
X692937Y190000I-2937J0D01*
G01*
X622937D02*
G03*
X622937Y190000I-2937J0D01*
G01*
X632937D02*
G03*
X632937Y190000I-2937J0D01*
G01*
X642937D02*
G03*
X642937Y190000I-2937J0D01*
G01*
X652937D02*
G03*
X652937Y190000I-2937J0D01*
G01*
X662937D02*
G03*
X662937Y190000I-2937J0D01*
G01*
X672937D02*
G03*
X672937Y190000I-2937J0D01*
G01*
X682937D02*
G03*
X682937Y190000I-2937J0D01*
G01*
X552937D02*
G03*
X552937Y190000I-2937J0D01*
G01*
X562937D02*
G03*
X562937Y190000I-2937J0D01*
G01*
X572937D02*
G03*
X572937Y190000I-2937J0D01*
G01*
X582937D02*
G03*
X582937Y190000I-2937J0D01*
G01*
X592937D02*
G03*
X592937Y190000I-2937J0D01*
G01*
X602937D02*
G03*
X602937Y190000I-2937J0D01*
G01*
X612937D02*
G03*
X612937Y190000I-2937J0D01*
G01*
X482937D02*
G03*
X482937Y190000I-2937J0D01*
G01*
X492937D02*
G03*
X492937Y190000I-2937J0D01*
G01*
X502937D02*
G03*
X502937Y190000I-2937J0D01*
G01*
X512937D02*
G03*
X512937Y190000I-2937J0D01*
G01*
X522937D02*
G03*
X522937Y190000I-2937J0D01*
G01*
X532937D02*
G03*
X532937Y190000I-2937J0D01*
G01*
X542937D02*
G03*
X542937Y190000I-2937J0D01*
G01*
X412937D02*
G03*
X412937Y190000I-2937J0D01*
G01*
X422937D02*
G03*
X422937Y190000I-2937J0D01*
G01*
X432937D02*
G03*
X432937Y190000I-2937J0D01*
G01*
X442937D02*
G03*
X442937Y190000I-2937J0D01*
G01*
X452937D02*
G03*
X452937Y190000I-2937J0D01*
G01*
X462937D02*
G03*
X462937Y190000I-2937J0D01*
G01*
X472937D02*
G03*
X472937Y190000I-2937J0D01*
G01*
X342937D02*
G03*
X342937Y190000I-2937J0D01*
G01*
X352937D02*
G03*
X352937Y190000I-2937J0D01*
G01*
X362937D02*
G03*
X362937Y190000I-2937J0D01*
G01*
X372937D02*
G03*
X372937Y190000I-2937J0D01*
G01*
X382937D02*
G03*
X382937Y190000I-2937J0D01*
G01*
X392937D02*
G03*
X392937Y190000I-2937J0D01*
G01*
X402937D02*
G03*
X402937Y190000I-2937J0D01*
G01*
X272937D02*
G03*
X272937Y190000I-2937J0D01*
G01*
X282937D02*
G03*
X282937Y190000I-2937J0D01*
G01*
X292937D02*
G03*
X292937Y190000I-2937J0D01*
G01*
X302937D02*
G03*
X302937Y190000I-2937J0D01*
G01*
X312937D02*
G03*
X312937Y190000I-2937J0D01*
G01*
X322937D02*
G03*
X322937Y190000I-2937J0D01*
G01*
X332937D02*
G03*
X332937Y190000I-2937J0D01*
G01*
X202937D02*
G03*
X202937Y190000I-2937J0D01*
G01*
X212937D02*
G03*
X212937Y190000I-2937J0D01*
G01*
X222937D02*
G03*
X222937Y190000I-2937J0D01*
G01*
X232937D02*
G03*
X232937Y190000I-2937J0D01*
G01*
X242937D02*
G03*
X242937Y190000I-2937J0D01*
G01*
X252937D02*
G03*
X252937Y190000I-2937J0D01*
G01*
X262937D02*
G03*
X262937Y190000I-2937J0D01*
G01*
X192937D02*
G03*
X192937Y190000I-2937J0D01*
G01*
X182937D02*
G03*
X182937Y190000I-2937J0D01*
G01*
X172937D02*
G03*
X172937Y190000I-2937J0D01*
G01*
X162937D02*
G03*
X162937Y190000I-2937J0D01*
G01*
X152937D02*
G03*
X152937Y190000I-2937J0D01*
G01*
X142937D02*
G03*
X142937Y190000I-2937J0D01*
G01*
X132937D02*
G03*
X132937Y190000I-2937J0D01*
G01*
X702937Y180000D02*
G03*
X702937Y180000I-2937J0D01*
G01*
X692937D02*
G03*
X692937Y180000I-2937J0D01*
G01*
X622937D02*
G03*
X622937Y180000I-2937J0D01*
G01*
X632937D02*
G03*
X632937Y180000I-2937J0D01*
G01*
X642937D02*
G03*
X642937Y180000I-2937J0D01*
G01*
X652937D02*
G03*
X652937Y180000I-2937J0D01*
G01*
X662937D02*
G03*
X662937Y180000I-2937J0D01*
G01*
X672937D02*
G03*
X672937Y180000I-2937J0D01*
G01*
X682937D02*
G03*
X682937Y180000I-2937J0D01*
G01*
X552937D02*
G03*
X552937Y180000I-2937J0D01*
G01*
X562937D02*
G03*
X562937Y180000I-2937J0D01*
G01*
X572937D02*
G03*
X572937Y180000I-2937J0D01*
G01*
X582937D02*
G03*
X582937Y180000I-2937J0D01*
G01*
X592937D02*
G03*
X592937Y180000I-2937J0D01*
G01*
X602937D02*
G03*
X602937Y180000I-2937J0D01*
G01*
X612937D02*
G03*
X612937Y180000I-2937J0D01*
G01*
X482937D02*
G03*
X482937Y180000I-2937J0D01*
G01*
X492937D02*
G03*
X492937Y180000I-2937J0D01*
G01*
X502937D02*
G03*
X502937Y180000I-2937J0D01*
G01*
X512937D02*
G03*
X512937Y180000I-2937J0D01*
G01*
X522937D02*
G03*
X522937Y180000I-2937J0D01*
G01*
X532937D02*
G03*
X532937Y180000I-2937J0D01*
G01*
X542937D02*
G03*
X542937Y180000I-2937J0D01*
G01*
X412937D02*
G03*
X412937Y180000I-2937J0D01*
G01*
X422937D02*
G03*
X422937Y180000I-2937J0D01*
G01*
X432937D02*
G03*
X432937Y180000I-2937J0D01*
G01*
X442937D02*
G03*
X442937Y180000I-2937J0D01*
G01*
X452937D02*
G03*
X452937Y180000I-2937J0D01*
G01*
X462937D02*
G03*
X462937Y180000I-2937J0D01*
G01*
X472937D02*
G03*
X472937Y180000I-2937J0D01*
G01*
X342937D02*
G03*
X342937Y180000I-2937J0D01*
G01*
X352937D02*
G03*
X352937Y180000I-2937J0D01*
G01*
X362937D02*
G03*
X362937Y180000I-2937J0D01*
G01*
X372937D02*
G03*
X372937Y180000I-2937J0D01*
G01*
X382937D02*
G03*
X382937Y180000I-2937J0D01*
G01*
X392937D02*
G03*
X392937Y180000I-2937J0D01*
G01*
X402937D02*
G03*
X402937Y180000I-2937J0D01*
G01*
X272937D02*
G03*
X272937Y180000I-2937J0D01*
G01*
X282937D02*
G03*
X282937Y180000I-2937J0D01*
G01*
X292937D02*
G03*
X292937Y180000I-2937J0D01*
G01*
X302937D02*
G03*
X302937Y180000I-2937J0D01*
G01*
X312937D02*
G03*
X312937Y180000I-2937J0D01*
G01*
X322937D02*
G03*
X322937Y180000I-2937J0D01*
G01*
X332937D02*
G03*
X332937Y180000I-2937J0D01*
G01*
X202937D02*
G03*
X202937Y180000I-2937J0D01*
G01*
X212937D02*
G03*
X212937Y180000I-2937J0D01*
G01*
X222937D02*
G03*
X222937Y180000I-2937J0D01*
G01*
X232937D02*
G03*
X232937Y180000I-2937J0D01*
G01*
X242937D02*
G03*
X242937Y180000I-2937J0D01*
G01*
X252937D02*
G03*
X252937Y180000I-2937J0D01*
G01*
X262937D02*
G03*
X262937Y180000I-2937J0D01*
G01*
X192937D02*
G03*
X192937Y180000I-2937J0D01*
G01*
X182937D02*
G03*
X182937Y180000I-2937J0D01*
G01*
X172937D02*
G03*
X172937Y180000I-2937J0D01*
G01*
X162937D02*
G03*
X162937Y180000I-2937J0D01*
G01*
X152937D02*
G03*
X152937Y180000I-2937J0D01*
G01*
X142937D02*
G03*
X142937Y180000I-2937J0D01*
G01*
X132937D02*
G03*
X132937Y180000I-2937J0D01*
G01*
X702937Y170000D02*
G03*
X702937Y170000I-2937J0D01*
G01*
X692937D02*
G03*
X692937Y170000I-2937J0D01*
G01*
X622937D02*
G03*
X622937Y170000I-2937J0D01*
G01*
X632937D02*
G03*
X632937Y170000I-2937J0D01*
G01*
X642937D02*
G03*
X642937Y170000I-2937J0D01*
G01*
X652937D02*
G03*
X652937Y170000I-2937J0D01*
G01*
X662937D02*
G03*
X662937Y170000I-2937J0D01*
G01*
X672937D02*
G03*
X672937Y170000I-2937J0D01*
G01*
X682937D02*
G03*
X682937Y170000I-2937J0D01*
G01*
X552937D02*
G03*
X552937Y170000I-2937J0D01*
G01*
X562937D02*
G03*
X562937Y170000I-2937J0D01*
G01*
X572937D02*
G03*
X572937Y170000I-2937J0D01*
G01*
X582937D02*
G03*
X582937Y170000I-2937J0D01*
G01*
X592937D02*
G03*
X592937Y170000I-2937J0D01*
G01*
X602937D02*
G03*
X602937Y170000I-2937J0D01*
G01*
X612937D02*
G03*
X612937Y170000I-2937J0D01*
G01*
X482937D02*
G03*
X482937Y170000I-2937J0D01*
G01*
X492937D02*
G03*
X492937Y170000I-2937J0D01*
G01*
X502937D02*
G03*
X502937Y170000I-2937J0D01*
G01*
X512937D02*
G03*
X512937Y170000I-2937J0D01*
G01*
X522937D02*
G03*
X522937Y170000I-2937J0D01*
G01*
X532937D02*
G03*
X532937Y170000I-2937J0D01*
G01*
X542937D02*
G03*
X542937Y170000I-2937J0D01*
G01*
X412937D02*
G03*
X412937Y170000I-2937J0D01*
G01*
X422937D02*
G03*
X422937Y170000I-2937J0D01*
G01*
X432937D02*
G03*
X432937Y170000I-2937J0D01*
G01*
X442937D02*
G03*
X442937Y170000I-2937J0D01*
G01*
X452937D02*
G03*
X452937Y170000I-2937J0D01*
G01*
X462937D02*
G03*
X462937Y170000I-2937J0D01*
G01*
X472937D02*
G03*
X472937Y170000I-2937J0D01*
G01*
X342937D02*
G03*
X342937Y170000I-2937J0D01*
G01*
X352937D02*
G03*
X352937Y170000I-2937J0D01*
G01*
X362937D02*
G03*
X362937Y170000I-2937J0D01*
G01*
X372937D02*
G03*
X372937Y170000I-2937J0D01*
G01*
X382937D02*
G03*
X382937Y170000I-2937J0D01*
G01*
X392937D02*
G03*
X392937Y170000I-2937J0D01*
G01*
X402937D02*
G03*
X402937Y170000I-2937J0D01*
G01*
X272937D02*
G03*
X272937Y170000I-2937J0D01*
G01*
X282937D02*
G03*
X282937Y170000I-2937J0D01*
G01*
X292937D02*
G03*
X292937Y170000I-2937J0D01*
G01*
X302937D02*
G03*
X302937Y170000I-2937J0D01*
G01*
X312937D02*
G03*
X312937Y170000I-2937J0D01*
G01*
X322937D02*
G03*
X322937Y170000I-2937J0D01*
G01*
X332937D02*
G03*
X332937Y170000I-2937J0D01*
G01*
X202937D02*
G03*
X202937Y170000I-2937J0D01*
G01*
X212937D02*
G03*
X212937Y170000I-2937J0D01*
G01*
X222937D02*
G03*
X222937Y170000I-2937J0D01*
G01*
X232937D02*
G03*
X232937Y170000I-2937J0D01*
G01*
X242937D02*
G03*
X242937Y170000I-2937J0D01*
G01*
X252937D02*
G03*
X252937Y170000I-2937J0D01*
G01*
X262937D02*
G03*
X262937Y170000I-2937J0D01*
G01*
X192937D02*
G03*
X192937Y170000I-2937J0D01*
G01*
X182937D02*
G03*
X182937Y170000I-2937J0D01*
G01*
X172937D02*
G03*
X172937Y170000I-2937J0D01*
G01*
X162937D02*
G03*
X162937Y170000I-2937J0D01*
G01*
X152937D02*
G03*
X152937Y170000I-2937J0D01*
G01*
X142937D02*
G03*
X142937Y170000I-2937J0D01*
G01*
X132937D02*
G03*
X132937Y170000I-2937J0D01*
G01*
Y240000D02*
G03*
X132937Y240000I-2937J0D01*
G01*
X142937D02*
G03*
X142937Y240000I-2937J0D01*
G01*
X152937D02*
G03*
X152937Y240000I-2937J0D01*
G01*
X162937D02*
G03*
X162937Y240000I-2937J0D01*
G01*
X172937D02*
G03*
X172937Y240000I-2937J0D01*
G01*
X182937D02*
G03*
X182937Y240000I-2937J0D01*
G01*
X192937D02*
G03*
X192937Y240000I-2937J0D01*
G01*
X262937D02*
G03*
X262937Y240000I-2937J0D01*
G01*
X252937D02*
G03*
X252937Y240000I-2937J0D01*
G01*
X242937D02*
G03*
X242937Y240000I-2937J0D01*
G01*
X232937D02*
G03*
X232937Y240000I-2937J0D01*
G01*
X222937D02*
G03*
X222937Y240000I-2937J0D01*
G01*
X212937D02*
G03*
X212937Y240000I-2937J0D01*
G01*
X202937D02*
G03*
X202937Y240000I-2937J0D01*
G01*
X332937D02*
G03*
X332937Y240000I-2937J0D01*
G01*
X322937D02*
G03*
X322937Y240000I-2937J0D01*
G01*
X312937D02*
G03*
X312937Y240000I-2937J0D01*
G01*
X302937D02*
G03*
X302937Y240000I-2937J0D01*
G01*
X292937D02*
G03*
X292937Y240000I-2937J0D01*
G01*
X282937D02*
G03*
X282937Y240000I-2937J0D01*
G01*
X272937D02*
G03*
X272937Y240000I-2937J0D01*
G01*
X402937D02*
G03*
X402937Y240000I-2937J0D01*
G01*
X392937D02*
G03*
X392937Y240000I-2937J0D01*
G01*
X382937D02*
G03*
X382937Y240000I-2937J0D01*
G01*
X372937D02*
G03*
X372937Y240000I-2937J0D01*
G01*
X362937D02*
G03*
X362937Y240000I-2937J0D01*
G01*
X352937D02*
G03*
X352937Y240000I-2937J0D01*
G01*
X342937D02*
G03*
X342937Y240000I-2937J0D01*
G01*
X472937D02*
G03*
X472937Y240000I-2937J0D01*
G01*
X462937D02*
G03*
X462937Y240000I-2937J0D01*
G01*
X452937D02*
G03*
X452937Y240000I-2937J0D01*
G01*
X442937D02*
G03*
X442937Y240000I-2937J0D01*
G01*
X432937D02*
G03*
X432937Y240000I-2937J0D01*
G01*
X422937D02*
G03*
X422937Y240000I-2937J0D01*
G01*
X412937D02*
G03*
X412937Y240000I-2937J0D01*
G01*
X542937D02*
G03*
X542937Y240000I-2937J0D01*
G01*
X532937D02*
G03*
X532937Y240000I-2937J0D01*
G01*
X522937D02*
G03*
X522937Y240000I-2937J0D01*
G01*
X512937D02*
G03*
X512937Y240000I-2937J0D01*
G01*
X502937D02*
G03*
X502937Y240000I-2937J0D01*
G01*
X492937D02*
G03*
X492937Y240000I-2937J0D01*
G01*
X482937D02*
G03*
X482937Y240000I-2937J0D01*
G01*
X612937D02*
G03*
X612937Y240000I-2937J0D01*
G01*
X602937D02*
G03*
X602937Y240000I-2937J0D01*
G01*
X592937D02*
G03*
X592937Y240000I-2937J0D01*
G01*
X582937D02*
G03*
X582937Y240000I-2937J0D01*
G01*
X572937D02*
G03*
X572937Y240000I-2937J0D01*
G01*
X562937D02*
G03*
X562937Y240000I-2937J0D01*
G01*
X552937D02*
G03*
X552937Y240000I-2937J0D01*
G01*
X682937D02*
G03*
X682937Y240000I-2937J0D01*
G01*
X672937D02*
G03*
X672937Y240000I-2937J0D01*
G01*
X662937D02*
G03*
X662937Y240000I-2937J0D01*
G01*
X652937D02*
G03*
X652937Y240000I-2937J0D01*
G01*
X642937D02*
G03*
X642937Y240000I-2937J0D01*
G01*
X632937D02*
G03*
X632937Y240000I-2937J0D01*
G01*
X622937D02*
G03*
X622937Y240000I-2937J0D01*
G01*
X692937D02*
G03*
X692937Y240000I-2937J0D01*
G01*
X702937D02*
G03*
X702937Y240000I-2937J0D01*
G01*
Y230000D02*
G03*
X702937Y230000I-2937J0D01*
G01*
X692937D02*
G03*
X692937Y230000I-2937J0D01*
G01*
X622937D02*
G03*
X622937Y230000I-2937J0D01*
G01*
X632937D02*
G03*
X632937Y230000I-2937J0D01*
G01*
X642937D02*
G03*
X642937Y230000I-2937J0D01*
G01*
X652937D02*
G03*
X652937Y230000I-2937J0D01*
G01*
X662937D02*
G03*
X662937Y230000I-2937J0D01*
G01*
X672937D02*
G03*
X672937Y230000I-2937J0D01*
G01*
X682937D02*
G03*
X682937Y230000I-2937J0D01*
G01*
X552937D02*
G03*
X552937Y230000I-2937J0D01*
G01*
X562937D02*
G03*
X562937Y230000I-2937J0D01*
G01*
X572937D02*
G03*
X572937Y230000I-2937J0D01*
G01*
X582937D02*
G03*
X582937Y230000I-2937J0D01*
G01*
X592937D02*
G03*
X592937Y230000I-2937J0D01*
G01*
X602937D02*
G03*
X602937Y230000I-2937J0D01*
G01*
X612937D02*
G03*
X612937Y230000I-2937J0D01*
G01*
X482937D02*
G03*
X482937Y230000I-2937J0D01*
G01*
X492937D02*
G03*
X492937Y230000I-2937J0D01*
G01*
X502937D02*
G03*
X502937Y230000I-2937J0D01*
G01*
X512937D02*
G03*
X512937Y230000I-2937J0D01*
G01*
X522937D02*
G03*
X522937Y230000I-2937J0D01*
G01*
X532937D02*
G03*
X532937Y230000I-2937J0D01*
G01*
X542937D02*
G03*
X542937Y230000I-2937J0D01*
G01*
X412937D02*
G03*
X412937Y230000I-2937J0D01*
G01*
X422937D02*
G03*
X422937Y230000I-2937J0D01*
G01*
X432937D02*
G03*
X432937Y230000I-2937J0D01*
G01*
X442937D02*
G03*
X442937Y230000I-2937J0D01*
G01*
X452937D02*
G03*
X452937Y230000I-2937J0D01*
G01*
X462937D02*
G03*
X462937Y230000I-2937J0D01*
G01*
X472937D02*
G03*
X472937Y230000I-2937J0D01*
G01*
X342937D02*
G03*
X342937Y230000I-2937J0D01*
G01*
X352937D02*
G03*
X352937Y230000I-2937J0D01*
G01*
X362937D02*
G03*
X362937Y230000I-2937J0D01*
G01*
X372937D02*
G03*
X372937Y230000I-2937J0D01*
G01*
X382937D02*
G03*
X382937Y230000I-2937J0D01*
G01*
X392937D02*
G03*
X392937Y230000I-2937J0D01*
G01*
X402937D02*
G03*
X402937Y230000I-2937J0D01*
G01*
X272937D02*
G03*
X272937Y230000I-2937J0D01*
G01*
X282937D02*
G03*
X282937Y230000I-2937J0D01*
G01*
X292937D02*
G03*
X292937Y230000I-2937J0D01*
G01*
X302937D02*
G03*
X302937Y230000I-2937J0D01*
G01*
X312937D02*
G03*
X312937Y230000I-2937J0D01*
G01*
X322937D02*
G03*
X322937Y230000I-2937J0D01*
G01*
X332937D02*
G03*
X332937Y230000I-2937J0D01*
G01*
X202937D02*
G03*
X202937Y230000I-2937J0D01*
G01*
X212937D02*
G03*
X212937Y230000I-2937J0D01*
G01*
X222937D02*
G03*
X222937Y230000I-2937J0D01*
G01*
X232937D02*
G03*
X232937Y230000I-2937J0D01*
G01*
X242937D02*
G03*
X242937Y230000I-2937J0D01*
G01*
X252937D02*
G03*
X252937Y230000I-2937J0D01*
G01*
X262937D02*
G03*
X262937Y230000I-2937J0D01*
G01*
X192937D02*
G03*
X192937Y230000I-2937J0D01*
G01*
X182937D02*
G03*
X182937Y230000I-2937J0D01*
G01*
X172937D02*
G03*
X172937Y230000I-2937J0D01*
G01*
X162937D02*
G03*
X162937Y230000I-2937J0D01*
G01*
X152937D02*
G03*
X152937Y230000I-2937J0D01*
G01*
X142937D02*
G03*
X142937Y230000I-2937J0D01*
G01*
X132937D02*
G03*
X132937Y230000I-2937J0D01*
G01*
X702937Y220000D02*
G03*
X702937Y220000I-2937J0D01*
G01*
X692937D02*
G03*
X692937Y220000I-2937J0D01*
G01*
X622937D02*
G03*
X622937Y220000I-2937J0D01*
G01*
X632937D02*
G03*
X632937Y220000I-2937J0D01*
G01*
X642937D02*
G03*
X642937Y220000I-2937J0D01*
G01*
X652937D02*
G03*
X652937Y220000I-2937J0D01*
G01*
X662937D02*
G03*
X662937Y220000I-2937J0D01*
G01*
X672937D02*
G03*
X672937Y220000I-2937J0D01*
G01*
X682937D02*
G03*
X682937Y220000I-2937J0D01*
G01*
X552937D02*
G03*
X552937Y220000I-2937J0D01*
G01*
X562937D02*
G03*
X562937Y220000I-2937J0D01*
G01*
X572937D02*
G03*
X572937Y220000I-2937J0D01*
G01*
X582937D02*
G03*
X582937Y220000I-2937J0D01*
G01*
X592937D02*
G03*
X592937Y220000I-2937J0D01*
G01*
X602937D02*
G03*
X602937Y220000I-2937J0D01*
G01*
X612937D02*
G03*
X612937Y220000I-2937J0D01*
G01*
X482937D02*
G03*
X482937Y220000I-2937J0D01*
G01*
X492937D02*
G03*
X492937Y220000I-2937J0D01*
G01*
X502937D02*
G03*
X502937Y220000I-2937J0D01*
G01*
X512937D02*
G03*
X512937Y220000I-2937J0D01*
G01*
X522937D02*
G03*
X522937Y220000I-2937J0D01*
G01*
X532937D02*
G03*
X532937Y220000I-2937J0D01*
G01*
X542937D02*
G03*
X542937Y220000I-2937J0D01*
G01*
X412937D02*
G03*
X412937Y220000I-2937J0D01*
G01*
X422937D02*
G03*
X422937Y220000I-2937J0D01*
G01*
X432937D02*
G03*
X432937Y220000I-2937J0D01*
G01*
X442937D02*
G03*
X442937Y220000I-2937J0D01*
G01*
X452937D02*
G03*
X452937Y220000I-2937J0D01*
G01*
X462937D02*
G03*
X462937Y220000I-2937J0D01*
G01*
X472937D02*
G03*
X472937Y220000I-2937J0D01*
G01*
X342937D02*
G03*
X342937Y220000I-2937J0D01*
G01*
X352937D02*
G03*
X352937Y220000I-2937J0D01*
G01*
X362937D02*
G03*
X362937Y220000I-2937J0D01*
G01*
X372937D02*
G03*
X372937Y220000I-2937J0D01*
G01*
X382937D02*
G03*
X382937Y220000I-2937J0D01*
G01*
X392937D02*
G03*
X392937Y220000I-2937J0D01*
G01*
X402937D02*
G03*
X402937Y220000I-2937J0D01*
G01*
X272937D02*
G03*
X272937Y220000I-2937J0D01*
G01*
X282937D02*
G03*
X282937Y220000I-2937J0D01*
G01*
X292937D02*
G03*
X292937Y220000I-2937J0D01*
G01*
X302937D02*
G03*
X302937Y220000I-2937J0D01*
G01*
X312937D02*
G03*
X312937Y220000I-2937J0D01*
G01*
X322937D02*
G03*
X322937Y220000I-2937J0D01*
G01*
X332937D02*
G03*
X332937Y220000I-2937J0D01*
G01*
X202937D02*
G03*
X202937Y220000I-2937J0D01*
G01*
X212937D02*
G03*
X212937Y220000I-2937J0D01*
G01*
X222937D02*
G03*
X222937Y220000I-2937J0D01*
G01*
X232937D02*
G03*
X232937Y220000I-2937J0D01*
G01*
X242937D02*
G03*
X242937Y220000I-2937J0D01*
G01*
X252937D02*
G03*
X252937Y220000I-2937J0D01*
G01*
X262937D02*
G03*
X262937Y220000I-2937J0D01*
G01*
X192937D02*
G03*
X192937Y220000I-2937J0D01*
G01*
X182937D02*
G03*
X182937Y220000I-2937J0D01*
G01*
X172937D02*
G03*
X172937Y220000I-2937J0D01*
G01*
X162937D02*
G03*
X162937Y220000I-2937J0D01*
G01*
X152937D02*
G03*
X152937Y220000I-2937J0D01*
G01*
X142937D02*
G03*
X142937Y220000I-2937J0D01*
G01*
X132937D02*
G03*
X132937Y220000I-2937J0D01*
G01*
X702937Y210000D02*
G03*
X702937Y210000I-2937J0D01*
G01*
X692937D02*
G03*
X692937Y210000I-2937J0D01*
G01*
X622937D02*
G03*
X622937Y210000I-2937J0D01*
G01*
X632937D02*
G03*
X632937Y210000I-2937J0D01*
G01*
X642937D02*
G03*
X642937Y210000I-2937J0D01*
G01*
X652937D02*
G03*
X652937Y210000I-2937J0D01*
G01*
X662937D02*
G03*
X662937Y210000I-2937J0D01*
G01*
X672937D02*
G03*
X672937Y210000I-2937J0D01*
G01*
X682937D02*
G03*
X682937Y210000I-2937J0D01*
G01*
X552937D02*
G03*
X552937Y210000I-2937J0D01*
G01*
X562937D02*
G03*
X562937Y210000I-2937J0D01*
G01*
X572937D02*
G03*
X572937Y210000I-2937J0D01*
G01*
X582937D02*
G03*
X582937Y210000I-2937J0D01*
G01*
X592937D02*
G03*
X592937Y210000I-2937J0D01*
G01*
X602937D02*
G03*
X602937Y210000I-2937J0D01*
G01*
X612937D02*
G03*
X612937Y210000I-2937J0D01*
G01*
X482937D02*
G03*
X482937Y210000I-2937J0D01*
G01*
X492937D02*
G03*
X492937Y210000I-2937J0D01*
G01*
X502937D02*
G03*
X502937Y210000I-2937J0D01*
G01*
X512937D02*
G03*
X512937Y210000I-2937J0D01*
G01*
X522937D02*
G03*
X522937Y210000I-2937J0D01*
G01*
X532937D02*
G03*
X532937Y210000I-2937J0D01*
G01*
X542937D02*
G03*
X542937Y210000I-2937J0D01*
G01*
X412937D02*
G03*
X412937Y210000I-2937J0D01*
G01*
X422937D02*
G03*
X422937Y210000I-2937J0D01*
G01*
X432937D02*
G03*
X432937Y210000I-2937J0D01*
G01*
X442937D02*
G03*
X442937Y210000I-2937J0D01*
G01*
X452937D02*
G03*
X452937Y210000I-2937J0D01*
G01*
X462937D02*
G03*
X462937Y210000I-2937J0D01*
G01*
X472937D02*
G03*
X472937Y210000I-2937J0D01*
G01*
X342937D02*
G03*
X342937Y210000I-2937J0D01*
G01*
X352937D02*
G03*
X352937Y210000I-2937J0D01*
G01*
X362937D02*
G03*
X362937Y210000I-2937J0D01*
G01*
X372937D02*
G03*
X372937Y210000I-2937J0D01*
G01*
X382937D02*
G03*
X382937Y210000I-2937J0D01*
G01*
X392937D02*
G03*
X392937Y210000I-2937J0D01*
G01*
X402937D02*
G03*
X402937Y210000I-2937J0D01*
G01*
X272937D02*
G03*
X272937Y210000I-2937J0D01*
G01*
X282937D02*
G03*
X282937Y210000I-2937J0D01*
G01*
X292937D02*
G03*
X292937Y210000I-2937J0D01*
G01*
X302937D02*
G03*
X302937Y210000I-2937J0D01*
G01*
X312937D02*
G03*
X312937Y210000I-2937J0D01*
G01*
X322937D02*
G03*
X322937Y210000I-2937J0D01*
G01*
X332937D02*
G03*
X332937Y210000I-2937J0D01*
G01*
X202937D02*
G03*
X202937Y210000I-2937J0D01*
G01*
X212937D02*
G03*
X212937Y210000I-2937J0D01*
G01*
X222937D02*
G03*
X222937Y210000I-2937J0D01*
G01*
X232937D02*
G03*
X232937Y210000I-2937J0D01*
G01*
X242937D02*
G03*
X242937Y210000I-2937J0D01*
G01*
X252937D02*
G03*
X252937Y210000I-2937J0D01*
G01*
X262937D02*
G03*
X262937Y210000I-2937J0D01*
G01*
X192937D02*
G03*
X192937Y210000I-2937J0D01*
G01*
X182937D02*
G03*
X182937Y210000I-2937J0D01*
G01*
X172937D02*
G03*
X172937Y210000I-2937J0D01*
G01*
X162937D02*
G03*
X162937Y210000I-2937J0D01*
G01*
X152937D02*
G03*
X152937Y210000I-2937J0D01*
G01*
X142937D02*
G03*
X142937Y210000I-2937J0D01*
G01*
X132937D02*
G03*
X132937Y210000I-2937J0D01*
G01*
Y280000D02*
G03*
X132937Y280000I-2937J0D01*
G01*
X142937D02*
G03*
X142937Y280000I-2937J0D01*
G01*
X152937D02*
G03*
X152937Y280000I-2937J0D01*
G01*
X162937D02*
G03*
X162937Y280000I-2937J0D01*
G01*
X172937D02*
G03*
X172937Y280000I-2937J0D01*
G01*
X182937D02*
G03*
X182937Y280000I-2937J0D01*
G01*
X192937D02*
G03*
X192937Y280000I-2937J0D01*
G01*
X262937D02*
G03*
X262937Y280000I-2937J0D01*
G01*
X252937D02*
G03*
X252937Y280000I-2937J0D01*
G01*
X242937D02*
G03*
X242937Y280000I-2937J0D01*
G01*
X232937D02*
G03*
X232937Y280000I-2937J0D01*
G01*
X222937D02*
G03*
X222937Y280000I-2937J0D01*
G01*
X212937D02*
G03*
X212937Y280000I-2937J0D01*
G01*
X202937D02*
G03*
X202937Y280000I-2937J0D01*
G01*
X332937D02*
G03*
X332937Y280000I-2937J0D01*
G01*
X322937D02*
G03*
X322937Y280000I-2937J0D01*
G01*
X312937D02*
G03*
X312937Y280000I-2937J0D01*
G01*
X302937D02*
G03*
X302937Y280000I-2937J0D01*
G01*
X292937D02*
G03*
X292937Y280000I-2937J0D01*
G01*
X282937D02*
G03*
X282937Y280000I-2937J0D01*
G01*
X272937D02*
G03*
X272937Y280000I-2937J0D01*
G01*
X402937D02*
G03*
X402937Y280000I-2937J0D01*
G01*
X392937D02*
G03*
X392937Y280000I-2937J0D01*
G01*
X382937D02*
G03*
X382937Y280000I-2937J0D01*
G01*
X372937D02*
G03*
X372937Y280000I-2937J0D01*
G01*
X362937D02*
G03*
X362937Y280000I-2937J0D01*
G01*
X352937D02*
G03*
X352937Y280000I-2937J0D01*
G01*
X342937D02*
G03*
X342937Y280000I-2937J0D01*
G01*
X472937D02*
G03*
X472937Y280000I-2937J0D01*
G01*
X462937D02*
G03*
X462937Y280000I-2937J0D01*
G01*
X452937D02*
G03*
X452937Y280000I-2937J0D01*
G01*
X442937D02*
G03*
X442937Y280000I-2937J0D01*
G01*
X432937D02*
G03*
X432937Y280000I-2937J0D01*
G01*
X422937D02*
G03*
X422937Y280000I-2937J0D01*
G01*
X412937D02*
G03*
X412937Y280000I-2937J0D01*
G01*
X542937D02*
G03*
X542937Y280000I-2937J0D01*
G01*
X532937D02*
G03*
X532937Y280000I-2937J0D01*
G01*
X522937D02*
G03*
X522937Y280000I-2937J0D01*
G01*
X512937D02*
G03*
X512937Y280000I-2937J0D01*
G01*
X502937D02*
G03*
X502937Y280000I-2937J0D01*
G01*
X492937D02*
G03*
X492937Y280000I-2937J0D01*
G01*
X482937D02*
G03*
X482937Y280000I-2937J0D01*
G01*
X612937D02*
G03*
X612937Y280000I-2937J0D01*
G01*
X602937D02*
G03*
X602937Y280000I-2937J0D01*
G01*
X592937D02*
G03*
X592937Y280000I-2937J0D01*
G01*
X582937D02*
G03*
X582937Y280000I-2937J0D01*
G01*
X572937D02*
G03*
X572937Y280000I-2937J0D01*
G01*
X562937D02*
G03*
X562937Y280000I-2937J0D01*
G01*
X552937D02*
G03*
X552937Y280000I-2937J0D01*
G01*
X682937D02*
G03*
X682937Y280000I-2937J0D01*
G01*
X672937D02*
G03*
X672937Y280000I-2937J0D01*
G01*
X662937D02*
G03*
X662937Y280000I-2937J0D01*
G01*
X652937D02*
G03*
X652937Y280000I-2937J0D01*
G01*
X642937D02*
G03*
X642937Y280000I-2937J0D01*
G01*
X632937D02*
G03*
X632937Y280000I-2937J0D01*
G01*
X622937D02*
G03*
X622937Y280000I-2937J0D01*
G01*
X692937D02*
G03*
X692937Y280000I-2937J0D01*
G01*
X702937D02*
G03*
X702937Y280000I-2937J0D01*
G01*
Y270000D02*
G03*
X702937Y270000I-2937J0D01*
G01*
X692937D02*
G03*
X692937Y270000I-2937J0D01*
G01*
X622937D02*
G03*
X622937Y270000I-2937J0D01*
G01*
X632937D02*
G03*
X632937Y270000I-2937J0D01*
G01*
X642937D02*
G03*
X642937Y270000I-2937J0D01*
G01*
X652937D02*
G03*
X652937Y270000I-2937J0D01*
G01*
X662937D02*
G03*
X662937Y270000I-2937J0D01*
G01*
X672937D02*
G03*
X672937Y270000I-2937J0D01*
G01*
X682937D02*
G03*
X682937Y270000I-2937J0D01*
G01*
X552937D02*
G03*
X552937Y270000I-2937J0D01*
G01*
X562937D02*
G03*
X562937Y270000I-2937J0D01*
G01*
X572937D02*
G03*
X572937Y270000I-2937J0D01*
G01*
X582937D02*
G03*
X582937Y270000I-2937J0D01*
G01*
X592937D02*
G03*
X592937Y270000I-2937J0D01*
G01*
X602937D02*
G03*
X602937Y270000I-2937J0D01*
G01*
X612937D02*
G03*
X612937Y270000I-2937J0D01*
G01*
X482937D02*
G03*
X482937Y270000I-2937J0D01*
G01*
X492937D02*
G03*
X492937Y270000I-2937J0D01*
G01*
X502937D02*
G03*
X502937Y270000I-2937J0D01*
G01*
X512937D02*
G03*
X512937Y270000I-2937J0D01*
G01*
X522937D02*
G03*
X522937Y270000I-2937J0D01*
G01*
X532937D02*
G03*
X532937Y270000I-2937J0D01*
G01*
X542937D02*
G03*
X542937Y270000I-2937J0D01*
G01*
X412937D02*
G03*
X412937Y270000I-2937J0D01*
G01*
X422937D02*
G03*
X422937Y270000I-2937J0D01*
G01*
X432937D02*
G03*
X432937Y270000I-2937J0D01*
G01*
X442937D02*
G03*
X442937Y270000I-2937J0D01*
G01*
X452937D02*
G03*
X452937Y270000I-2937J0D01*
G01*
X462937D02*
G03*
X462937Y270000I-2937J0D01*
G01*
X472937D02*
G03*
X472937Y270000I-2937J0D01*
G01*
X342937D02*
G03*
X342937Y270000I-2937J0D01*
G01*
X352937D02*
G03*
X352937Y270000I-2937J0D01*
G01*
X362937D02*
G03*
X362937Y270000I-2937J0D01*
G01*
X372937D02*
G03*
X372937Y270000I-2937J0D01*
G01*
X382937D02*
G03*
X382937Y270000I-2937J0D01*
G01*
X392937D02*
G03*
X392937Y270000I-2937J0D01*
G01*
X402937D02*
G03*
X402937Y270000I-2937J0D01*
G01*
X272937D02*
G03*
X272937Y270000I-2937J0D01*
G01*
X282937D02*
G03*
X282937Y270000I-2937J0D01*
G01*
X292937D02*
G03*
X292937Y270000I-2937J0D01*
G01*
X302937D02*
G03*
X302937Y270000I-2937J0D01*
G01*
X312937D02*
G03*
X312937Y270000I-2937J0D01*
G01*
X322937D02*
G03*
X322937Y270000I-2937J0D01*
G01*
X332937D02*
G03*
X332937Y270000I-2937J0D01*
G01*
X202937D02*
G03*
X202937Y270000I-2937J0D01*
G01*
X212937D02*
G03*
X212937Y270000I-2937J0D01*
G01*
X222937D02*
G03*
X222937Y270000I-2937J0D01*
G01*
X232937D02*
G03*
X232937Y270000I-2937J0D01*
G01*
X242937D02*
G03*
X242937Y270000I-2937J0D01*
G01*
X252937D02*
G03*
X252937Y270000I-2937J0D01*
G01*
X262937D02*
G03*
X262937Y270000I-2937J0D01*
G01*
X192937D02*
G03*
X192937Y270000I-2937J0D01*
G01*
X182937D02*
G03*
X182937Y270000I-2937J0D01*
G01*
X172937D02*
G03*
X172937Y270000I-2937J0D01*
G01*
X162937D02*
G03*
X162937Y270000I-2937J0D01*
G01*
X152937D02*
G03*
X152937Y270000I-2937J0D01*
G01*
X142937D02*
G03*
X142937Y270000I-2937J0D01*
G01*
X132937D02*
G03*
X132937Y270000I-2937J0D01*
G01*
X702937Y260000D02*
G03*
X702937Y260000I-2937J0D01*
G01*
X692937D02*
G03*
X692937Y260000I-2937J0D01*
G01*
X622937D02*
G03*
X622937Y260000I-2937J0D01*
G01*
X632937D02*
G03*
X632937Y260000I-2937J0D01*
G01*
X642937D02*
G03*
X642937Y260000I-2937J0D01*
G01*
X652937D02*
G03*
X652937Y260000I-2937J0D01*
G01*
X662937D02*
G03*
X662937Y260000I-2937J0D01*
G01*
X672937D02*
G03*
X672937Y260000I-2937J0D01*
G01*
X682937D02*
G03*
X682937Y260000I-2937J0D01*
G01*
X552937D02*
G03*
X552937Y260000I-2937J0D01*
G01*
X562937D02*
G03*
X562937Y260000I-2937J0D01*
G01*
X572937D02*
G03*
X572937Y260000I-2937J0D01*
G01*
X582937D02*
G03*
X582937Y260000I-2937J0D01*
G01*
X592937D02*
G03*
X592937Y260000I-2937J0D01*
G01*
X602937D02*
G03*
X602937Y260000I-2937J0D01*
G01*
X612937D02*
G03*
X612937Y260000I-2937J0D01*
G01*
X482937D02*
G03*
X482937Y260000I-2937J0D01*
G01*
X492937D02*
G03*
X492937Y260000I-2937J0D01*
G01*
X502937D02*
G03*
X502937Y260000I-2937J0D01*
G01*
X512937D02*
G03*
X512937Y260000I-2937J0D01*
G01*
X522937D02*
G03*
X522937Y260000I-2937J0D01*
G01*
X532937D02*
G03*
X532937Y260000I-2937J0D01*
G01*
X542937D02*
G03*
X542937Y260000I-2937J0D01*
G01*
X412937D02*
G03*
X412937Y260000I-2937J0D01*
G01*
X422937D02*
G03*
X422937Y260000I-2937J0D01*
G01*
X432937D02*
G03*
X432937Y260000I-2937J0D01*
G01*
X442937D02*
G03*
X442937Y260000I-2937J0D01*
G01*
X452937D02*
G03*
X452937Y260000I-2937J0D01*
G01*
X462937D02*
G03*
X462937Y260000I-2937J0D01*
G01*
X472937D02*
G03*
X472937Y260000I-2937J0D01*
G01*
X342937D02*
G03*
X342937Y260000I-2937J0D01*
G01*
X352937D02*
G03*
X352937Y260000I-2937J0D01*
G01*
X362937D02*
G03*
X362937Y260000I-2937J0D01*
G01*
X372937D02*
G03*
X372937Y260000I-2937J0D01*
G01*
X382937D02*
G03*
X382937Y260000I-2937J0D01*
G01*
X392937D02*
G03*
X392937Y260000I-2937J0D01*
G01*
X402937D02*
G03*
X402937Y260000I-2937J0D01*
G01*
X272937D02*
G03*
X272937Y260000I-2937J0D01*
G01*
X282937D02*
G03*
X282937Y260000I-2937J0D01*
G01*
X292937D02*
G03*
X292937Y260000I-2937J0D01*
G01*
X302937D02*
G03*
X302937Y260000I-2937J0D01*
G01*
X312937D02*
G03*
X312937Y260000I-2937J0D01*
G01*
X322937D02*
G03*
X322937Y260000I-2937J0D01*
G01*
X332937D02*
G03*
X332937Y260000I-2937J0D01*
G01*
X202937D02*
G03*
X202937Y260000I-2937J0D01*
G01*
X212937D02*
G03*
X212937Y260000I-2937J0D01*
G01*
X222937D02*
G03*
X222937Y260000I-2937J0D01*
G01*
X232937D02*
G03*
X232937Y260000I-2937J0D01*
G01*
X242937D02*
G03*
X242937Y260000I-2937J0D01*
G01*
X252937D02*
G03*
X252937Y260000I-2937J0D01*
G01*
X262937D02*
G03*
X262937Y260000I-2937J0D01*
G01*
X192937D02*
G03*
X192937Y260000I-2937J0D01*
G01*
X182937D02*
G03*
X182937Y260000I-2937J0D01*
G01*
X172937D02*
G03*
X172937Y260000I-2937J0D01*
G01*
X162937D02*
G03*
X162937Y260000I-2937J0D01*
G01*
X152937D02*
G03*
X152937Y260000I-2937J0D01*
G01*
X142937D02*
G03*
X142937Y260000I-2937J0D01*
G01*
X132937D02*
G03*
X132937Y260000I-2937J0D01*
G01*
X702937Y250000D02*
G03*
X702937Y250000I-2937J0D01*
G01*
X692937D02*
G03*
X692937Y250000I-2937J0D01*
G01*
X622937D02*
G03*
X622937Y250000I-2937J0D01*
G01*
X632937D02*
G03*
X632937Y250000I-2937J0D01*
G01*
X642937D02*
G03*
X642937Y250000I-2937J0D01*
G01*
X652937D02*
G03*
X652937Y250000I-2937J0D01*
G01*
X662937D02*
G03*
X662937Y250000I-2937J0D01*
G01*
X672937D02*
G03*
X672937Y250000I-2937J0D01*
G01*
X682937D02*
G03*
X682937Y250000I-2937J0D01*
G01*
X552937D02*
G03*
X552937Y250000I-2937J0D01*
G01*
X562937D02*
G03*
X562937Y250000I-2937J0D01*
G01*
X572937D02*
G03*
X572937Y250000I-2937J0D01*
G01*
X582937D02*
G03*
X582937Y250000I-2937J0D01*
G01*
X592937D02*
G03*
X592937Y250000I-2937J0D01*
G01*
X602937D02*
G03*
X602937Y250000I-2937J0D01*
G01*
X612937D02*
G03*
X612937Y250000I-2937J0D01*
G01*
X482937D02*
G03*
X482937Y250000I-2937J0D01*
G01*
X492937D02*
G03*
X492937Y250000I-2937J0D01*
G01*
X502937D02*
G03*
X502937Y250000I-2937J0D01*
G01*
X512937D02*
G03*
X512937Y250000I-2937J0D01*
G01*
X522937D02*
G03*
X522937Y250000I-2937J0D01*
G01*
X532937D02*
G03*
X532937Y250000I-2937J0D01*
G01*
X542937D02*
G03*
X542937Y250000I-2937J0D01*
G01*
X412937D02*
G03*
X412937Y250000I-2937J0D01*
G01*
X422937D02*
G03*
X422937Y250000I-2937J0D01*
G01*
X432937D02*
G03*
X432937Y250000I-2937J0D01*
G01*
X442937D02*
G03*
X442937Y250000I-2937J0D01*
G01*
X452937D02*
G03*
X452937Y250000I-2937J0D01*
G01*
X462937D02*
G03*
X462937Y250000I-2937J0D01*
G01*
X472937D02*
G03*
X472937Y250000I-2937J0D01*
G01*
X342937D02*
G03*
X342937Y250000I-2937J0D01*
G01*
X352937D02*
G03*
X352937Y250000I-2937J0D01*
G01*
X362937D02*
G03*
X362937Y250000I-2937J0D01*
G01*
X372937D02*
G03*
X372937Y250000I-2937J0D01*
G01*
X382937D02*
G03*
X382937Y250000I-2937J0D01*
G01*
X392937D02*
G03*
X392937Y250000I-2937J0D01*
G01*
X402937D02*
G03*
X402937Y250000I-2937J0D01*
G01*
X272937D02*
G03*
X272937Y250000I-2937J0D01*
G01*
X282937D02*
G03*
X282937Y250000I-2937J0D01*
G01*
X292937D02*
G03*
X292937Y250000I-2937J0D01*
G01*
X302937D02*
G03*
X302937Y250000I-2937J0D01*
G01*
X312937D02*
G03*
X312937Y250000I-2937J0D01*
G01*
X322937D02*
G03*
X322937Y250000I-2937J0D01*
G01*
X332937D02*
G03*
X332937Y250000I-2937J0D01*
G01*
X202937D02*
G03*
X202937Y250000I-2937J0D01*
G01*
X212937D02*
G03*
X212937Y250000I-2937J0D01*
G01*
X222937D02*
G03*
X222937Y250000I-2937J0D01*
G01*
X232937D02*
G03*
X232937Y250000I-2937J0D01*
G01*
X242937D02*
G03*
X242937Y250000I-2937J0D01*
G01*
X252937D02*
G03*
X252937Y250000I-2937J0D01*
G01*
X262937D02*
G03*
X262937Y250000I-2937J0D01*
G01*
X192937D02*
G03*
X192937Y250000I-2937J0D01*
G01*
X182937D02*
G03*
X182937Y250000I-2937J0D01*
G01*
X172937D02*
G03*
X172937Y250000I-2937J0D01*
G01*
X162937D02*
G03*
X162937Y250000I-2937J0D01*
G01*
X152937D02*
G03*
X152937Y250000I-2937J0D01*
G01*
X142937D02*
G03*
X142937Y250000I-2937J0D01*
G01*
X132937D02*
G03*
X132937Y250000I-2937J0D01*
G01*
Y320000D02*
G03*
X132937Y320000I-2937J0D01*
G01*
X142937D02*
G03*
X142937Y320000I-2937J0D01*
G01*
X152937D02*
G03*
X152937Y320000I-2937J0D01*
G01*
X162937D02*
G03*
X162937Y320000I-2937J0D01*
G01*
X172937D02*
G03*
X172937Y320000I-2937J0D01*
G01*
X182937D02*
G03*
X182937Y320000I-2937J0D01*
G01*
X192937D02*
G03*
X192937Y320000I-2937J0D01*
G01*
X262937D02*
G03*
X262937Y320000I-2937J0D01*
G01*
X252937D02*
G03*
X252937Y320000I-2937J0D01*
G01*
X242937D02*
G03*
X242937Y320000I-2937J0D01*
G01*
X232937D02*
G03*
X232937Y320000I-2937J0D01*
G01*
X222937D02*
G03*
X222937Y320000I-2937J0D01*
G01*
X212937D02*
G03*
X212937Y320000I-2937J0D01*
G01*
X202937D02*
G03*
X202937Y320000I-2937J0D01*
G01*
X332937D02*
G03*
X332937Y320000I-2937J0D01*
G01*
X322937D02*
G03*
X322937Y320000I-2937J0D01*
G01*
X312937D02*
G03*
X312937Y320000I-2937J0D01*
G01*
X302937D02*
G03*
X302937Y320000I-2937J0D01*
G01*
X292937D02*
G03*
X292937Y320000I-2937J0D01*
G01*
X282937D02*
G03*
X282937Y320000I-2937J0D01*
G01*
X272937D02*
G03*
X272937Y320000I-2937J0D01*
G01*
X402937D02*
G03*
X402937Y320000I-2937J0D01*
G01*
X392937D02*
G03*
X392937Y320000I-2937J0D01*
G01*
X382937D02*
G03*
X382937Y320000I-2937J0D01*
G01*
X372937D02*
G03*
X372937Y320000I-2937J0D01*
G01*
X362937D02*
G03*
X362937Y320000I-2937J0D01*
G01*
X352937D02*
G03*
X352937Y320000I-2937J0D01*
G01*
X342937D02*
G03*
X342937Y320000I-2937J0D01*
G01*
X472937D02*
G03*
X472937Y320000I-2937J0D01*
G01*
X462937D02*
G03*
X462937Y320000I-2937J0D01*
G01*
X452937D02*
G03*
X452937Y320000I-2937J0D01*
G01*
X442937D02*
G03*
X442937Y320000I-2937J0D01*
G01*
X432937D02*
G03*
X432937Y320000I-2937J0D01*
G01*
X422937D02*
G03*
X422937Y320000I-2937J0D01*
G01*
X412937D02*
G03*
X412937Y320000I-2937J0D01*
G01*
X542937D02*
G03*
X542937Y320000I-2937J0D01*
G01*
X532937D02*
G03*
X532937Y320000I-2937J0D01*
G01*
X522937D02*
G03*
X522937Y320000I-2937J0D01*
G01*
X512937D02*
G03*
X512937Y320000I-2937J0D01*
G01*
X502937D02*
G03*
X502937Y320000I-2937J0D01*
G01*
X492937D02*
G03*
X492937Y320000I-2937J0D01*
G01*
X482937D02*
G03*
X482937Y320000I-2937J0D01*
G01*
X612937D02*
G03*
X612937Y320000I-2937J0D01*
G01*
X602937D02*
G03*
X602937Y320000I-2937J0D01*
G01*
X592937D02*
G03*
X592937Y320000I-2937J0D01*
G01*
X582937D02*
G03*
X582937Y320000I-2937J0D01*
G01*
X572937D02*
G03*
X572937Y320000I-2937J0D01*
G01*
X562937D02*
G03*
X562937Y320000I-2937J0D01*
G01*
X552937D02*
G03*
X552937Y320000I-2937J0D01*
G01*
X682937D02*
G03*
X682937Y320000I-2937J0D01*
G01*
X672937D02*
G03*
X672937Y320000I-2937J0D01*
G01*
X662937D02*
G03*
X662937Y320000I-2937J0D01*
G01*
X652937D02*
G03*
X652937Y320000I-2937J0D01*
G01*
X642937D02*
G03*
X642937Y320000I-2937J0D01*
G01*
X632937D02*
G03*
X632937Y320000I-2937J0D01*
G01*
X622937D02*
G03*
X622937Y320000I-2937J0D01*
G01*
X692937D02*
G03*
X692937Y320000I-2937J0D01*
G01*
X702937D02*
G03*
X702937Y320000I-2937J0D01*
G01*
Y310000D02*
G03*
X702937Y310000I-2937J0D01*
G01*
X692937D02*
G03*
X692937Y310000I-2937J0D01*
G01*
X622937D02*
G03*
X622937Y310000I-2937J0D01*
G01*
X632937D02*
G03*
X632937Y310000I-2937J0D01*
G01*
X642937D02*
G03*
X642937Y310000I-2937J0D01*
G01*
X652937D02*
G03*
X652937Y310000I-2937J0D01*
G01*
X662937D02*
G03*
X662937Y310000I-2937J0D01*
G01*
X672937D02*
G03*
X672937Y310000I-2937J0D01*
G01*
X682937D02*
G03*
X682937Y310000I-2937J0D01*
G01*
X552937D02*
G03*
X552937Y310000I-2937J0D01*
G01*
X562937D02*
G03*
X562937Y310000I-2937J0D01*
G01*
X572937D02*
G03*
X572937Y310000I-2937J0D01*
G01*
X582937D02*
G03*
X582937Y310000I-2937J0D01*
G01*
X592937D02*
G03*
X592937Y310000I-2937J0D01*
G01*
X602937D02*
G03*
X602937Y310000I-2937J0D01*
G01*
X612937D02*
G03*
X612937Y310000I-2937J0D01*
G01*
X482937D02*
G03*
X482937Y310000I-2937J0D01*
G01*
X492937D02*
G03*
X492937Y310000I-2937J0D01*
G01*
X502937D02*
G03*
X502937Y310000I-2937J0D01*
G01*
X512937D02*
G03*
X512937Y310000I-2937J0D01*
G01*
X522937D02*
G03*
X522937Y310000I-2937J0D01*
G01*
X532937D02*
G03*
X532937Y310000I-2937J0D01*
G01*
X542937D02*
G03*
X542937Y310000I-2937J0D01*
G01*
X412937D02*
G03*
X412937Y310000I-2937J0D01*
G01*
X422937D02*
G03*
X422937Y310000I-2937J0D01*
G01*
X432937D02*
G03*
X432937Y310000I-2937J0D01*
G01*
X442937D02*
G03*
X442937Y310000I-2937J0D01*
G01*
X452937D02*
G03*
X452937Y310000I-2937J0D01*
G01*
X462937D02*
G03*
X462937Y310000I-2937J0D01*
G01*
X472937D02*
G03*
X472937Y310000I-2937J0D01*
G01*
X342937D02*
G03*
X342937Y310000I-2937J0D01*
G01*
X352937D02*
G03*
X352937Y310000I-2937J0D01*
G01*
X362937D02*
G03*
X362937Y310000I-2937J0D01*
G01*
X372937D02*
G03*
X372937Y310000I-2937J0D01*
G01*
X382937D02*
G03*
X382937Y310000I-2937J0D01*
G01*
X392937D02*
G03*
X392937Y310000I-2937J0D01*
G01*
X402937D02*
G03*
X402937Y310000I-2937J0D01*
G01*
X272937D02*
G03*
X272937Y310000I-2937J0D01*
G01*
X282937D02*
G03*
X282937Y310000I-2937J0D01*
G01*
X292937D02*
G03*
X292937Y310000I-2937J0D01*
G01*
X302937D02*
G03*
X302937Y310000I-2937J0D01*
G01*
X312937D02*
G03*
X312937Y310000I-2937J0D01*
G01*
X322937D02*
G03*
X322937Y310000I-2937J0D01*
G01*
X332937D02*
G03*
X332937Y310000I-2937J0D01*
G01*
X202937D02*
G03*
X202937Y310000I-2937J0D01*
G01*
X212937D02*
G03*
X212937Y310000I-2937J0D01*
G01*
X222937D02*
G03*
X222937Y310000I-2937J0D01*
G01*
X232937D02*
G03*
X232937Y310000I-2937J0D01*
G01*
X242937D02*
G03*
X242937Y310000I-2937J0D01*
G01*
X252937D02*
G03*
X252937Y310000I-2937J0D01*
G01*
X262937D02*
G03*
X262937Y310000I-2937J0D01*
G01*
X192937D02*
G03*
X192937Y310000I-2937J0D01*
G01*
X182937D02*
G03*
X182937Y310000I-2937J0D01*
G01*
X172937D02*
G03*
X172937Y310000I-2937J0D01*
G01*
X162937D02*
G03*
X162937Y310000I-2937J0D01*
G01*
X152937D02*
G03*
X152937Y310000I-2937J0D01*
G01*
X142937D02*
G03*
X142937Y310000I-2937J0D01*
G01*
X132937D02*
G03*
X132937Y310000I-2937J0D01*
G01*
X702937Y300000D02*
G03*
X702937Y300000I-2937J0D01*
G01*
X692937D02*
G03*
X692937Y300000I-2937J0D01*
G01*
X622937D02*
G03*
X622937Y300000I-2937J0D01*
G01*
X632937D02*
G03*
X632937Y300000I-2937J0D01*
G01*
X642937D02*
G03*
X642937Y300000I-2937J0D01*
G01*
X652937D02*
G03*
X652937Y300000I-2937J0D01*
G01*
X662937D02*
G03*
X662937Y300000I-2937J0D01*
G01*
X672937D02*
G03*
X672937Y300000I-2937J0D01*
G01*
X682937D02*
G03*
X682937Y300000I-2937J0D01*
G01*
X552937D02*
G03*
X552937Y300000I-2937J0D01*
G01*
X562937D02*
G03*
X562937Y300000I-2937J0D01*
G01*
X572937D02*
G03*
X572937Y300000I-2937J0D01*
G01*
X582937D02*
G03*
X582937Y300000I-2937J0D01*
G01*
X592937D02*
G03*
X592937Y300000I-2937J0D01*
G01*
X602937D02*
G03*
X602937Y300000I-2937J0D01*
G01*
X612937D02*
G03*
X612937Y300000I-2937J0D01*
G01*
X482937D02*
G03*
X482937Y300000I-2937J0D01*
G01*
X492937D02*
G03*
X492937Y300000I-2937J0D01*
G01*
X502937D02*
G03*
X502937Y300000I-2937J0D01*
G01*
X512937D02*
G03*
X512937Y300000I-2937J0D01*
G01*
X522937D02*
G03*
X522937Y300000I-2937J0D01*
G01*
X532937D02*
G03*
X532937Y300000I-2937J0D01*
G01*
X542937D02*
G03*
X542937Y300000I-2937J0D01*
G01*
X412937D02*
G03*
X412937Y300000I-2937J0D01*
G01*
X422937D02*
G03*
X422937Y300000I-2937J0D01*
G01*
X432937D02*
G03*
X432937Y300000I-2937J0D01*
G01*
X442937D02*
G03*
X442937Y300000I-2937J0D01*
G01*
X452937D02*
G03*
X452937Y300000I-2937J0D01*
G01*
X462937D02*
G03*
X462937Y300000I-2937J0D01*
G01*
X472937D02*
G03*
X472937Y300000I-2937J0D01*
G01*
X342937D02*
G03*
X342937Y300000I-2937J0D01*
G01*
X352937D02*
G03*
X352937Y300000I-2937J0D01*
G01*
X362937D02*
G03*
X362937Y300000I-2937J0D01*
G01*
X372937D02*
G03*
X372937Y300000I-2937J0D01*
G01*
X382937D02*
G03*
X382937Y300000I-2937J0D01*
G01*
X392937D02*
G03*
X392937Y300000I-2937J0D01*
G01*
X402937D02*
G03*
X402937Y300000I-2937J0D01*
G01*
X272937D02*
G03*
X272937Y300000I-2937J0D01*
G01*
X282937D02*
G03*
X282937Y300000I-2937J0D01*
G01*
X292937D02*
G03*
X292937Y300000I-2937J0D01*
G01*
X302937D02*
G03*
X302937Y300000I-2937J0D01*
G01*
X312937D02*
G03*
X312937Y300000I-2937J0D01*
G01*
X322937D02*
G03*
X322937Y300000I-2937J0D01*
G01*
X332937D02*
G03*
X332937Y300000I-2937J0D01*
G01*
X202937D02*
G03*
X202937Y300000I-2937J0D01*
G01*
X212937D02*
G03*
X212937Y300000I-2937J0D01*
G01*
X222937D02*
G03*
X222937Y300000I-2937J0D01*
G01*
X232937D02*
G03*
X232937Y300000I-2937J0D01*
G01*
X242937D02*
G03*
X242937Y300000I-2937J0D01*
G01*
X252937D02*
G03*
X252937Y300000I-2937J0D01*
G01*
X262937D02*
G03*
X262937Y300000I-2937J0D01*
G01*
X192937D02*
G03*
X192937Y300000I-2937J0D01*
G01*
X182937D02*
G03*
X182937Y300000I-2937J0D01*
G01*
X172937D02*
G03*
X172937Y300000I-2937J0D01*
G01*
X162937D02*
G03*
X162937Y300000I-2937J0D01*
G01*
X152937D02*
G03*
X152937Y300000I-2937J0D01*
G01*
X142937D02*
G03*
X142937Y300000I-2937J0D01*
G01*
X132937D02*
G03*
X132937Y300000I-2937J0D01*
G01*
X702937Y290000D02*
G03*
X702937Y290000I-2937J0D01*
G01*
X692937D02*
G03*
X692937Y290000I-2937J0D01*
G01*
X622937D02*
G03*
X622937Y290000I-2937J0D01*
G01*
X632937D02*
G03*
X632937Y290000I-2937J0D01*
G01*
X642937D02*
G03*
X642937Y290000I-2937J0D01*
G01*
X652937D02*
G03*
X652937Y290000I-2937J0D01*
G01*
X662937D02*
G03*
X662937Y290000I-2937J0D01*
G01*
X672937D02*
G03*
X672937Y290000I-2937J0D01*
G01*
X682937D02*
G03*
X682937Y290000I-2937J0D01*
G01*
X552937D02*
G03*
X552937Y290000I-2937J0D01*
G01*
X562937D02*
G03*
X562937Y290000I-2937J0D01*
G01*
X572937D02*
G03*
X572937Y290000I-2937J0D01*
G01*
X582937D02*
G03*
X582937Y290000I-2937J0D01*
G01*
X592937D02*
G03*
X592937Y290000I-2937J0D01*
G01*
X602937D02*
G03*
X602937Y290000I-2937J0D01*
G01*
X612937D02*
G03*
X612937Y290000I-2937J0D01*
G01*
X482937D02*
G03*
X482937Y290000I-2937J0D01*
G01*
X492937D02*
G03*
X492937Y290000I-2937J0D01*
G01*
X502937D02*
G03*
X502937Y290000I-2937J0D01*
G01*
X512937D02*
G03*
X512937Y290000I-2937J0D01*
G01*
X522937D02*
G03*
X522937Y290000I-2937J0D01*
G01*
X532937D02*
G03*
X532937Y290000I-2937J0D01*
G01*
X542937D02*
G03*
X542937Y290000I-2937J0D01*
G01*
X412937D02*
G03*
X412937Y290000I-2937J0D01*
G01*
X422937D02*
G03*
X422937Y290000I-2937J0D01*
G01*
X432937D02*
G03*
X432937Y290000I-2937J0D01*
G01*
X442937D02*
G03*
X442937Y290000I-2937J0D01*
G01*
X452937D02*
G03*
X452937Y290000I-2937J0D01*
G01*
X462937D02*
G03*
X462937Y290000I-2937J0D01*
G01*
X472937D02*
G03*
X472937Y290000I-2937J0D01*
G01*
X342937D02*
G03*
X342937Y290000I-2937J0D01*
G01*
X352937D02*
G03*
X352937Y290000I-2937J0D01*
G01*
X362937D02*
G03*
X362937Y290000I-2937J0D01*
G01*
X372937D02*
G03*
X372937Y290000I-2937J0D01*
G01*
X382937D02*
G03*
X382937Y290000I-2937J0D01*
G01*
X392937D02*
G03*
X392937Y290000I-2937J0D01*
G01*
X402937D02*
G03*
X402937Y290000I-2937J0D01*
G01*
X272937D02*
G03*
X272937Y290000I-2937J0D01*
G01*
X282937D02*
G03*
X282937Y290000I-2937J0D01*
G01*
X292937D02*
G03*
X292937Y290000I-2937J0D01*
G01*
X302937D02*
G03*
X302937Y290000I-2937J0D01*
G01*
X312937D02*
G03*
X312937Y290000I-2937J0D01*
G01*
X322937D02*
G03*
X322937Y290000I-2937J0D01*
G01*
X332937D02*
G03*
X332937Y290000I-2937J0D01*
G01*
X202937D02*
G03*
X202937Y290000I-2937J0D01*
G01*
X212937D02*
G03*
X212937Y290000I-2937J0D01*
G01*
X222937D02*
G03*
X222937Y290000I-2937J0D01*
G01*
X232937D02*
G03*
X232937Y290000I-2937J0D01*
G01*
X242937D02*
G03*
X242937Y290000I-2937J0D01*
G01*
X252937D02*
G03*
X252937Y290000I-2937J0D01*
G01*
X262937D02*
G03*
X262937Y290000I-2937J0D01*
G01*
X192937D02*
G03*
X192937Y290000I-2937J0D01*
G01*
X182937D02*
G03*
X182937Y290000I-2937J0D01*
G01*
X172937D02*
G03*
X172937Y290000I-2937J0D01*
G01*
X162937D02*
G03*
X162937Y290000I-2937J0D01*
G01*
X152937D02*
G03*
X152937Y290000I-2937J0D01*
G01*
X142937D02*
G03*
X142937Y290000I-2937J0D01*
G01*
X132937D02*
G03*
X132937Y290000I-2937J0D01*
G01*
Y360000D02*
G03*
X132937Y360000I-2937J0D01*
G01*
X142937D02*
G03*
X142937Y360000I-2937J0D01*
G01*
X152937D02*
G03*
X152937Y360000I-2937J0D01*
G01*
X162937D02*
G03*
X162937Y360000I-2937J0D01*
G01*
X172937D02*
G03*
X172937Y360000I-2937J0D01*
G01*
X182937D02*
G03*
X182937Y360000I-2937J0D01*
G01*
X192937D02*
G03*
X192937Y360000I-2937J0D01*
G01*
X262937D02*
G03*
X262937Y360000I-2937J0D01*
G01*
X252937D02*
G03*
X252937Y360000I-2937J0D01*
G01*
X242937D02*
G03*
X242937Y360000I-2937J0D01*
G01*
X232937D02*
G03*
X232937Y360000I-2937J0D01*
G01*
X222937D02*
G03*
X222937Y360000I-2937J0D01*
G01*
X212937D02*
G03*
X212937Y360000I-2937J0D01*
G01*
X202937D02*
G03*
X202937Y360000I-2937J0D01*
G01*
X332937D02*
G03*
X332937Y360000I-2937J0D01*
G01*
X322937D02*
G03*
X322937Y360000I-2937J0D01*
G01*
X312937D02*
G03*
X312937Y360000I-2937J0D01*
G01*
X302937D02*
G03*
X302937Y360000I-2937J0D01*
G01*
X292937D02*
G03*
X292937Y360000I-2937J0D01*
G01*
X282937D02*
G03*
X282937Y360000I-2937J0D01*
G01*
X272937D02*
G03*
X272937Y360000I-2937J0D01*
G01*
X402937D02*
G03*
X402937Y360000I-2937J0D01*
G01*
X392937D02*
G03*
X392937Y360000I-2937J0D01*
G01*
X382937D02*
G03*
X382937Y360000I-2937J0D01*
G01*
X372937D02*
G03*
X372937Y360000I-2937J0D01*
G01*
X362937D02*
G03*
X362937Y360000I-2937J0D01*
G01*
X352937D02*
G03*
X352937Y360000I-2937J0D01*
G01*
X342937D02*
G03*
X342937Y360000I-2937J0D01*
G01*
X472937D02*
G03*
X472937Y360000I-2937J0D01*
G01*
X462937D02*
G03*
X462937Y360000I-2937J0D01*
G01*
X452937D02*
G03*
X452937Y360000I-2937J0D01*
G01*
X442937D02*
G03*
X442937Y360000I-2937J0D01*
G01*
X432937D02*
G03*
X432937Y360000I-2937J0D01*
G01*
X422937D02*
G03*
X422937Y360000I-2937J0D01*
G01*
X412937D02*
G03*
X412937Y360000I-2937J0D01*
G01*
X542937D02*
G03*
X542937Y360000I-2937J0D01*
G01*
X532937D02*
G03*
X532937Y360000I-2937J0D01*
G01*
X522937D02*
G03*
X522937Y360000I-2937J0D01*
G01*
X512937D02*
G03*
X512937Y360000I-2937J0D01*
G01*
X502937D02*
G03*
X502937Y360000I-2937J0D01*
G01*
X492937D02*
G03*
X492937Y360000I-2937J0D01*
G01*
X482937D02*
G03*
X482937Y360000I-2937J0D01*
G01*
X612937D02*
G03*
X612937Y360000I-2937J0D01*
G01*
X602937D02*
G03*
X602937Y360000I-2937J0D01*
G01*
X592937D02*
G03*
X592937Y360000I-2937J0D01*
G01*
X582937D02*
G03*
X582937Y360000I-2937J0D01*
G01*
X572937D02*
G03*
X572937Y360000I-2937J0D01*
G01*
X562937D02*
G03*
X562937Y360000I-2937J0D01*
G01*
X552937D02*
G03*
X552937Y360000I-2937J0D01*
G01*
X682937D02*
G03*
X682937Y360000I-2937J0D01*
G01*
X672937D02*
G03*
X672937Y360000I-2937J0D01*
G01*
X662937D02*
G03*
X662937Y360000I-2937J0D01*
G01*
X652937D02*
G03*
X652937Y360000I-2937J0D01*
G01*
X642937D02*
G03*
X642937Y360000I-2937J0D01*
G01*
X632937D02*
G03*
X632937Y360000I-2937J0D01*
G01*
X622937D02*
G03*
X622937Y360000I-2937J0D01*
G01*
X692937D02*
G03*
X692937Y360000I-2937J0D01*
G01*
X702937D02*
G03*
X702937Y360000I-2937J0D01*
G01*
Y350000D02*
G03*
X702937Y350000I-2937J0D01*
G01*
X692937D02*
G03*
X692937Y350000I-2937J0D01*
G01*
X622937D02*
G03*
X622937Y350000I-2937J0D01*
G01*
X632937D02*
G03*
X632937Y350000I-2937J0D01*
G01*
X642937D02*
G03*
X642937Y350000I-2937J0D01*
G01*
X652937D02*
G03*
X652937Y350000I-2937J0D01*
G01*
X662937D02*
G03*
X662937Y350000I-2937J0D01*
G01*
X672937D02*
G03*
X672937Y350000I-2937J0D01*
G01*
X682937D02*
G03*
X682937Y350000I-2937J0D01*
G01*
X552937D02*
G03*
X552937Y350000I-2937J0D01*
G01*
X562937D02*
G03*
X562937Y350000I-2937J0D01*
G01*
X572937D02*
G03*
X572937Y350000I-2937J0D01*
G01*
X582937D02*
G03*
X582937Y350000I-2937J0D01*
G01*
X592937D02*
G03*
X592937Y350000I-2937J0D01*
G01*
X602937D02*
G03*
X602937Y350000I-2937J0D01*
G01*
X612937D02*
G03*
X612937Y350000I-2937J0D01*
G01*
X482937D02*
G03*
X482937Y350000I-2937J0D01*
G01*
X492937D02*
G03*
X492937Y350000I-2937J0D01*
G01*
X502937D02*
G03*
X502937Y350000I-2937J0D01*
G01*
X512937D02*
G03*
X512937Y350000I-2937J0D01*
G01*
X522937D02*
G03*
X522937Y350000I-2937J0D01*
G01*
X532937D02*
G03*
X532937Y350000I-2937J0D01*
G01*
X542937D02*
G03*
X542937Y350000I-2937J0D01*
G01*
X412937D02*
G03*
X412937Y350000I-2937J0D01*
G01*
X422937D02*
G03*
X422937Y350000I-2937J0D01*
G01*
X432937D02*
G03*
X432937Y350000I-2937J0D01*
G01*
X442937D02*
G03*
X442937Y350000I-2937J0D01*
G01*
X452937D02*
G03*
X452937Y350000I-2937J0D01*
G01*
X462937D02*
G03*
X462937Y350000I-2937J0D01*
G01*
X472937D02*
G03*
X472937Y350000I-2937J0D01*
G01*
X342937D02*
G03*
X342937Y350000I-2937J0D01*
G01*
X352937D02*
G03*
X352937Y350000I-2937J0D01*
G01*
X362937D02*
G03*
X362937Y350000I-2937J0D01*
G01*
X372937D02*
G03*
X372937Y350000I-2937J0D01*
G01*
X382937D02*
G03*
X382937Y350000I-2937J0D01*
G01*
X392937D02*
G03*
X392937Y350000I-2937J0D01*
G01*
X402937D02*
G03*
X402937Y350000I-2937J0D01*
G01*
X272937D02*
G03*
X272937Y350000I-2937J0D01*
G01*
X282937D02*
G03*
X282937Y350000I-2937J0D01*
G01*
X292937D02*
G03*
X292937Y350000I-2937J0D01*
G01*
X302937D02*
G03*
X302937Y350000I-2937J0D01*
G01*
X312937D02*
G03*
X312937Y350000I-2937J0D01*
G01*
X322937D02*
G03*
X322937Y350000I-2937J0D01*
G01*
X332937D02*
G03*
X332937Y350000I-2937J0D01*
G01*
X202937D02*
G03*
X202937Y350000I-2937J0D01*
G01*
X212937D02*
G03*
X212937Y350000I-2937J0D01*
G01*
X222937D02*
G03*
X222937Y350000I-2937J0D01*
G01*
X232937D02*
G03*
X232937Y350000I-2937J0D01*
G01*
X242937D02*
G03*
X242937Y350000I-2937J0D01*
G01*
X252937D02*
G03*
X252937Y350000I-2937J0D01*
G01*
X262937D02*
G03*
X262937Y350000I-2937J0D01*
G01*
X192937D02*
G03*
X192937Y350000I-2937J0D01*
G01*
X182937D02*
G03*
X182937Y350000I-2937J0D01*
G01*
X172937D02*
G03*
X172937Y350000I-2937J0D01*
G01*
X162937D02*
G03*
X162937Y350000I-2937J0D01*
G01*
X152937D02*
G03*
X152937Y350000I-2937J0D01*
G01*
X142937D02*
G03*
X142937Y350000I-2937J0D01*
G01*
X132937D02*
G03*
X132937Y350000I-2937J0D01*
G01*
X702937Y340000D02*
G03*
X702937Y340000I-2937J0D01*
G01*
X692937D02*
G03*
X692937Y340000I-2937J0D01*
G01*
X622937D02*
G03*
X622937Y340000I-2937J0D01*
G01*
X632937D02*
G03*
X632937Y340000I-2937J0D01*
G01*
X642937D02*
G03*
X642937Y340000I-2937J0D01*
G01*
X652937D02*
G03*
X652937Y340000I-2937J0D01*
G01*
X662937D02*
G03*
X662937Y340000I-2937J0D01*
G01*
X672937D02*
G03*
X672937Y340000I-2937J0D01*
G01*
X682937D02*
G03*
X682937Y340000I-2937J0D01*
G01*
X552937D02*
G03*
X552937Y340000I-2937J0D01*
G01*
X562937D02*
G03*
X562937Y340000I-2937J0D01*
G01*
X572937D02*
G03*
X572937Y340000I-2937J0D01*
G01*
X582937D02*
G03*
X582937Y340000I-2937J0D01*
G01*
X592937D02*
G03*
X592937Y340000I-2937J0D01*
G01*
X602937D02*
G03*
X602937Y340000I-2937J0D01*
G01*
X612937D02*
G03*
X612937Y340000I-2937J0D01*
G01*
X482937D02*
G03*
X482937Y340000I-2937J0D01*
G01*
X492937D02*
G03*
X492937Y340000I-2937J0D01*
G01*
X502937D02*
G03*
X502937Y340000I-2937J0D01*
G01*
X512937D02*
G03*
X512937Y340000I-2937J0D01*
G01*
X522937D02*
G03*
X522937Y340000I-2937J0D01*
G01*
X532937D02*
G03*
X532937Y340000I-2937J0D01*
G01*
X542937D02*
G03*
X542937Y340000I-2937J0D01*
G01*
X412937D02*
G03*
X412937Y340000I-2937J0D01*
G01*
X422937D02*
G03*
X422937Y340000I-2937J0D01*
G01*
X432937D02*
G03*
X432937Y340000I-2937J0D01*
G01*
X442937D02*
G03*
X442937Y340000I-2937J0D01*
G01*
X452937D02*
G03*
X452937Y340000I-2937J0D01*
G01*
X462937D02*
G03*
X462937Y340000I-2937J0D01*
G01*
X472937D02*
G03*
X472937Y340000I-2937J0D01*
G01*
X342937D02*
G03*
X342937Y340000I-2937J0D01*
G01*
X352937D02*
G03*
X352937Y340000I-2937J0D01*
G01*
X362937D02*
G03*
X362937Y340000I-2937J0D01*
G01*
X372937D02*
G03*
X372937Y340000I-2937J0D01*
G01*
X382937D02*
G03*
X382937Y340000I-2937J0D01*
G01*
X392937D02*
G03*
X392937Y340000I-2937J0D01*
G01*
X402937D02*
G03*
X402937Y340000I-2937J0D01*
G01*
X272937D02*
G03*
X272937Y340000I-2937J0D01*
G01*
X282937D02*
G03*
X282937Y340000I-2937J0D01*
G01*
X292937D02*
G03*
X292937Y340000I-2937J0D01*
G01*
X302937D02*
G03*
X302937Y340000I-2937J0D01*
G01*
X312937D02*
G03*
X312937Y340000I-2937J0D01*
G01*
X322937D02*
G03*
X322937Y340000I-2937J0D01*
G01*
X332937D02*
G03*
X332937Y340000I-2937J0D01*
G01*
X202937D02*
G03*
X202937Y340000I-2937J0D01*
G01*
X212937D02*
G03*
X212937Y340000I-2937J0D01*
G01*
X222937D02*
G03*
X222937Y340000I-2937J0D01*
G01*
X232937D02*
G03*
X232937Y340000I-2937J0D01*
G01*
X242937D02*
G03*
X242937Y340000I-2937J0D01*
G01*
X252937D02*
G03*
X252937Y340000I-2937J0D01*
G01*
X262937D02*
G03*
X262937Y340000I-2937J0D01*
G01*
X192937D02*
G03*
X192937Y340000I-2937J0D01*
G01*
X182937D02*
G03*
X182937Y340000I-2937J0D01*
G01*
X172937D02*
G03*
X172937Y340000I-2937J0D01*
G01*
X162937D02*
G03*
X162937Y340000I-2937J0D01*
G01*
X152937D02*
G03*
X152937Y340000I-2937J0D01*
G01*
X142937D02*
G03*
X142937Y340000I-2937J0D01*
G01*
X132937D02*
G03*
X132937Y340000I-2937J0D01*
G01*
X702937Y330000D02*
G03*
X702937Y330000I-2937J0D01*
G01*
X692937D02*
G03*
X692937Y330000I-2937J0D01*
G01*
X622937D02*
G03*
X622937Y330000I-2937J0D01*
G01*
X632937D02*
G03*
X632937Y330000I-2937J0D01*
G01*
X642937D02*
G03*
X642937Y330000I-2937J0D01*
G01*
X652937D02*
G03*
X652937Y330000I-2937J0D01*
G01*
X662937D02*
G03*
X662937Y330000I-2937J0D01*
G01*
X672937D02*
G03*
X672937Y330000I-2937J0D01*
G01*
X682937D02*
G03*
X682937Y330000I-2937J0D01*
G01*
X552937D02*
G03*
X552937Y330000I-2937J0D01*
G01*
X562937D02*
G03*
X562937Y330000I-2937J0D01*
G01*
X572937D02*
G03*
X572937Y330000I-2937J0D01*
G01*
X582937D02*
G03*
X582937Y330000I-2937J0D01*
G01*
X592937D02*
G03*
X592937Y330000I-2937J0D01*
G01*
X602937D02*
G03*
X602937Y330000I-2937J0D01*
G01*
X612937D02*
G03*
X612937Y330000I-2937J0D01*
G01*
X482937D02*
G03*
X482937Y330000I-2937J0D01*
G01*
X492937D02*
G03*
X492937Y330000I-2937J0D01*
G01*
X502937D02*
G03*
X502937Y330000I-2937J0D01*
G01*
X512937D02*
G03*
X512937Y330000I-2937J0D01*
G01*
X522937D02*
G03*
X522937Y330000I-2937J0D01*
G01*
X532937D02*
G03*
X532937Y330000I-2937J0D01*
G01*
X542937D02*
G03*
X542937Y330000I-2937J0D01*
G01*
X412937D02*
G03*
X412937Y330000I-2937J0D01*
G01*
X422937D02*
G03*
X422937Y330000I-2937J0D01*
G01*
X432937D02*
G03*
X432937Y330000I-2937J0D01*
G01*
X442937D02*
G03*
X442937Y330000I-2937J0D01*
G01*
X452937D02*
G03*
X452937Y330000I-2937J0D01*
G01*
X462937D02*
G03*
X462937Y330000I-2937J0D01*
G01*
X472937D02*
G03*
X472937Y330000I-2937J0D01*
G01*
X342937D02*
G03*
X342937Y330000I-2937J0D01*
G01*
X352937D02*
G03*
X352937Y330000I-2937J0D01*
G01*
X362937D02*
G03*
X362937Y330000I-2937J0D01*
G01*
X372937D02*
G03*
X372937Y330000I-2937J0D01*
G01*
X382937D02*
G03*
X382937Y330000I-2937J0D01*
G01*
X392937D02*
G03*
X392937Y330000I-2937J0D01*
G01*
X402937D02*
G03*
X402937Y330000I-2937J0D01*
G01*
X272937D02*
G03*
X272937Y330000I-2937J0D01*
G01*
X282937D02*
G03*
X282937Y330000I-2937J0D01*
G01*
X292937D02*
G03*
X292937Y330000I-2937J0D01*
G01*
X302937D02*
G03*
X302937Y330000I-2937J0D01*
G01*
X312937D02*
G03*
X312937Y330000I-2937J0D01*
G01*
X322937D02*
G03*
X322937Y330000I-2937J0D01*
G01*
X332937D02*
G03*
X332937Y330000I-2937J0D01*
G01*
X202937D02*
G03*
X202937Y330000I-2937J0D01*
G01*
X212937D02*
G03*
X212937Y330000I-2937J0D01*
G01*
X222937D02*
G03*
X222937Y330000I-2937J0D01*
G01*
X232937D02*
G03*
X232937Y330000I-2937J0D01*
G01*
X242937D02*
G03*
X242937Y330000I-2937J0D01*
G01*
X252937D02*
G03*
X252937Y330000I-2937J0D01*
G01*
X262937D02*
G03*
X262937Y330000I-2937J0D01*
G01*
X192937D02*
G03*
X192937Y330000I-2937J0D01*
G01*
X182937D02*
G03*
X182937Y330000I-2937J0D01*
G01*
X172937D02*
G03*
X172937Y330000I-2937J0D01*
G01*
X162937D02*
G03*
X162937Y330000I-2937J0D01*
G01*
X152937D02*
G03*
X152937Y330000I-2937J0D01*
G01*
X142937D02*
G03*
X142937Y330000I-2937J0D01*
G01*
X132937D02*
G03*
X132937Y330000I-2937J0D01*
G01*
Y400000D02*
G03*
X132937Y400000I-2937J0D01*
G01*
X142937D02*
G03*
X142937Y400000I-2937J0D01*
G01*
X152937D02*
G03*
X152937Y400000I-2937J0D01*
G01*
X162937D02*
G03*
X162937Y400000I-2937J0D01*
G01*
X172937D02*
G03*
X172937Y400000I-2937J0D01*
G01*
X182937D02*
G03*
X182937Y400000I-2937J0D01*
G01*
X192937D02*
G03*
X192937Y400000I-2937J0D01*
G01*
X262937D02*
G03*
X262937Y400000I-2937J0D01*
G01*
X252937D02*
G03*
X252937Y400000I-2937J0D01*
G01*
X242937D02*
G03*
X242937Y400000I-2937J0D01*
G01*
X232937D02*
G03*
X232937Y400000I-2937J0D01*
G01*
X222937D02*
G03*
X222937Y400000I-2937J0D01*
G01*
X212937D02*
G03*
X212937Y400000I-2937J0D01*
G01*
X202937D02*
G03*
X202937Y400000I-2937J0D01*
G01*
X332937D02*
G03*
X332937Y400000I-2937J0D01*
G01*
X322937D02*
G03*
X322937Y400000I-2937J0D01*
G01*
X312937D02*
G03*
X312937Y400000I-2937J0D01*
G01*
X302937D02*
G03*
X302937Y400000I-2937J0D01*
G01*
X292937D02*
G03*
X292937Y400000I-2937J0D01*
G01*
X282937D02*
G03*
X282937Y400000I-2937J0D01*
G01*
X272937D02*
G03*
X272937Y400000I-2937J0D01*
G01*
X402937D02*
G03*
X402937Y400000I-2937J0D01*
G01*
X392937D02*
G03*
X392937Y400000I-2937J0D01*
G01*
X382937D02*
G03*
X382937Y400000I-2937J0D01*
G01*
X372937D02*
G03*
X372937Y400000I-2937J0D01*
G01*
X362937D02*
G03*
X362937Y400000I-2937J0D01*
G01*
X352937D02*
G03*
X352937Y400000I-2937J0D01*
G01*
X342937D02*
G03*
X342937Y400000I-2937J0D01*
G01*
X472937D02*
G03*
X472937Y400000I-2937J0D01*
G01*
X462937D02*
G03*
X462937Y400000I-2937J0D01*
G01*
X452937D02*
G03*
X452937Y400000I-2937J0D01*
G01*
X442937D02*
G03*
X442937Y400000I-2937J0D01*
G01*
X432937D02*
G03*
X432937Y400000I-2937J0D01*
G01*
X422937D02*
G03*
X422937Y400000I-2937J0D01*
G01*
X412937D02*
G03*
X412937Y400000I-2937J0D01*
G01*
X542937D02*
G03*
X542937Y400000I-2937J0D01*
G01*
X532937D02*
G03*
X532937Y400000I-2937J0D01*
G01*
X522937D02*
G03*
X522937Y400000I-2937J0D01*
G01*
X512937D02*
G03*
X512937Y400000I-2937J0D01*
G01*
X502937D02*
G03*
X502937Y400000I-2937J0D01*
G01*
X492937D02*
G03*
X492937Y400000I-2937J0D01*
G01*
X482937D02*
G03*
X482937Y400000I-2937J0D01*
G01*
X612937D02*
G03*
X612937Y400000I-2937J0D01*
G01*
X602937D02*
G03*
X602937Y400000I-2937J0D01*
G01*
X592937D02*
G03*
X592937Y400000I-2937J0D01*
G01*
X582937D02*
G03*
X582937Y400000I-2937J0D01*
G01*
X572937D02*
G03*
X572937Y400000I-2937J0D01*
G01*
X562937D02*
G03*
X562937Y400000I-2937J0D01*
G01*
X552937D02*
G03*
X552937Y400000I-2937J0D01*
G01*
X682937D02*
G03*
X682937Y400000I-2937J0D01*
G01*
X672937D02*
G03*
X672937Y400000I-2937J0D01*
G01*
X662937D02*
G03*
X662937Y400000I-2937J0D01*
G01*
X652937D02*
G03*
X652937Y400000I-2937J0D01*
G01*
X642937D02*
G03*
X642937Y400000I-2937J0D01*
G01*
X632937D02*
G03*
X632937Y400000I-2937J0D01*
G01*
X622937D02*
G03*
X622937Y400000I-2937J0D01*
G01*
X692937D02*
G03*
X692937Y400000I-2937J0D01*
G01*
X702937D02*
G03*
X702937Y400000I-2937J0D01*
G01*
Y390000D02*
G03*
X702937Y390000I-2937J0D01*
G01*
X692937D02*
G03*
X692937Y390000I-2937J0D01*
G01*
X622937D02*
G03*
X622937Y390000I-2937J0D01*
G01*
X632937D02*
G03*
X632937Y390000I-2937J0D01*
G01*
X642937D02*
G03*
X642937Y390000I-2937J0D01*
G01*
X652937D02*
G03*
X652937Y390000I-2937J0D01*
G01*
X662937D02*
G03*
X662937Y390000I-2937J0D01*
G01*
X672937D02*
G03*
X672937Y390000I-2937J0D01*
G01*
X682937D02*
G03*
X682937Y390000I-2937J0D01*
G01*
X552937D02*
G03*
X552937Y390000I-2937J0D01*
G01*
X562937D02*
G03*
X562937Y390000I-2937J0D01*
G01*
X572937D02*
G03*
X572937Y390000I-2937J0D01*
G01*
X582937D02*
G03*
X582937Y390000I-2937J0D01*
G01*
X592937D02*
G03*
X592937Y390000I-2937J0D01*
G01*
X602937D02*
G03*
X602937Y390000I-2937J0D01*
G01*
X612937D02*
G03*
X612937Y390000I-2937J0D01*
G01*
X482937D02*
G03*
X482937Y390000I-2937J0D01*
G01*
X492937D02*
G03*
X492937Y390000I-2937J0D01*
G01*
X502937D02*
G03*
X502937Y390000I-2937J0D01*
G01*
X512937D02*
G03*
X512937Y390000I-2937J0D01*
G01*
X522937D02*
G03*
X522937Y390000I-2937J0D01*
G01*
X532937D02*
G03*
X532937Y390000I-2937J0D01*
G01*
X542937D02*
G03*
X542937Y390000I-2937J0D01*
G01*
X412937D02*
G03*
X412937Y390000I-2937J0D01*
G01*
X422937D02*
G03*
X422937Y390000I-2937J0D01*
G01*
X432937D02*
G03*
X432937Y390000I-2937J0D01*
G01*
X442937D02*
G03*
X442937Y390000I-2937J0D01*
G01*
X452937D02*
G03*
X452937Y390000I-2937J0D01*
G01*
X462937D02*
G03*
X462937Y390000I-2937J0D01*
G01*
X472937D02*
G03*
X472937Y390000I-2937J0D01*
G01*
X342937D02*
G03*
X342937Y390000I-2937J0D01*
G01*
X352937D02*
G03*
X352937Y390000I-2937J0D01*
G01*
X362937D02*
G03*
X362937Y390000I-2937J0D01*
G01*
X372937D02*
G03*
X372937Y390000I-2937J0D01*
G01*
X382937D02*
G03*
X382937Y390000I-2937J0D01*
G01*
X392937D02*
G03*
X392937Y390000I-2937J0D01*
G01*
X402937D02*
G03*
X402937Y390000I-2937J0D01*
G01*
X272937D02*
G03*
X272937Y390000I-2937J0D01*
G01*
X282937D02*
G03*
X282937Y390000I-2937J0D01*
G01*
X292937D02*
G03*
X292937Y390000I-2937J0D01*
G01*
X302937D02*
G03*
X302937Y390000I-2937J0D01*
G01*
X312937D02*
G03*
X312937Y390000I-2937J0D01*
G01*
X322937D02*
G03*
X322937Y390000I-2937J0D01*
G01*
X332937D02*
G03*
X332937Y390000I-2937J0D01*
G01*
X202937D02*
G03*
X202937Y390000I-2937J0D01*
G01*
X212937D02*
G03*
X212937Y390000I-2937J0D01*
G01*
X222937D02*
G03*
X222937Y390000I-2937J0D01*
G01*
X232937D02*
G03*
X232937Y390000I-2937J0D01*
G01*
X242937D02*
G03*
X242937Y390000I-2937J0D01*
G01*
X252937D02*
G03*
X252937Y390000I-2937J0D01*
G01*
X262937D02*
G03*
X262937Y390000I-2937J0D01*
G01*
X192937D02*
G03*
X192937Y390000I-2937J0D01*
G01*
X182937D02*
G03*
X182937Y390000I-2937J0D01*
G01*
X172937D02*
G03*
X172937Y390000I-2937J0D01*
G01*
X162937D02*
G03*
X162937Y390000I-2937J0D01*
G01*
X152937D02*
G03*
X152937Y390000I-2937J0D01*
G01*
X142937D02*
G03*
X142937Y390000I-2937J0D01*
G01*
X132937D02*
G03*
X132937Y390000I-2937J0D01*
G01*
X702937Y380000D02*
G03*
X702937Y380000I-2937J0D01*
G01*
X692937D02*
G03*
X692937Y380000I-2937J0D01*
G01*
X622937D02*
G03*
X622937Y380000I-2937J0D01*
G01*
X632937D02*
G03*
X632937Y380000I-2937J0D01*
G01*
X642937D02*
G03*
X642937Y380000I-2937J0D01*
G01*
X652937D02*
G03*
X652937Y380000I-2937J0D01*
G01*
X662937D02*
G03*
X662937Y380000I-2937J0D01*
G01*
X672937D02*
G03*
X672937Y380000I-2937J0D01*
G01*
X682937D02*
G03*
X682937Y380000I-2937J0D01*
G01*
X552937D02*
G03*
X552937Y380000I-2937J0D01*
G01*
X562937D02*
G03*
X562937Y380000I-2937J0D01*
G01*
X572937D02*
G03*
X572937Y380000I-2937J0D01*
G01*
X582937D02*
G03*
X582937Y380000I-2937J0D01*
G01*
X592937D02*
G03*
X592937Y380000I-2937J0D01*
G01*
X602937D02*
G03*
X602937Y380000I-2937J0D01*
G01*
X612937D02*
G03*
X612937Y380000I-2937J0D01*
G01*
X482937D02*
G03*
X482937Y380000I-2937J0D01*
G01*
X492937D02*
G03*
X492937Y380000I-2937J0D01*
G01*
X502937D02*
G03*
X502937Y380000I-2937J0D01*
G01*
X512937D02*
G03*
X512937Y380000I-2937J0D01*
G01*
X522937D02*
G03*
X522937Y380000I-2937J0D01*
G01*
X532937D02*
G03*
X532937Y380000I-2937J0D01*
G01*
X542937D02*
G03*
X542937Y380000I-2937J0D01*
G01*
X412937D02*
G03*
X412937Y380000I-2937J0D01*
G01*
X422937D02*
G03*
X422937Y380000I-2937J0D01*
G01*
X432937D02*
G03*
X432937Y380000I-2937J0D01*
G01*
X442937D02*
G03*
X442937Y380000I-2937J0D01*
G01*
X452937D02*
G03*
X452937Y380000I-2937J0D01*
G01*
X462937D02*
G03*
X462937Y380000I-2937J0D01*
G01*
X472937D02*
G03*
X472937Y380000I-2937J0D01*
G01*
X342937D02*
G03*
X342937Y380000I-2937J0D01*
G01*
X352937D02*
G03*
X352937Y380000I-2937J0D01*
G01*
X362937D02*
G03*
X362937Y380000I-2937J0D01*
G01*
X372937D02*
G03*
X372937Y380000I-2937J0D01*
G01*
X382937D02*
G03*
X382937Y380000I-2937J0D01*
G01*
X392937D02*
G03*
X392937Y380000I-2937J0D01*
G01*
X402937D02*
G03*
X402937Y380000I-2937J0D01*
G01*
X272937D02*
G03*
X272937Y380000I-2937J0D01*
G01*
X282937D02*
G03*
X282937Y380000I-2937J0D01*
G01*
X292937D02*
G03*
X292937Y380000I-2937J0D01*
G01*
X302937D02*
G03*
X302937Y380000I-2937J0D01*
G01*
X312937D02*
G03*
X312937Y380000I-2937J0D01*
G01*
X322937D02*
G03*
X322937Y380000I-2937J0D01*
G01*
X332937D02*
G03*
X332937Y380000I-2937J0D01*
G01*
X202937D02*
G03*
X202937Y380000I-2937J0D01*
G01*
X212937D02*
G03*
X212937Y380000I-2937J0D01*
G01*
X222937D02*
G03*
X222937Y380000I-2937J0D01*
G01*
X232937D02*
G03*
X232937Y380000I-2937J0D01*
G01*
X242937D02*
G03*
X242937Y380000I-2937J0D01*
G01*
X252937D02*
G03*
X252937Y380000I-2937J0D01*
G01*
X262937D02*
G03*
X262937Y380000I-2937J0D01*
G01*
X192937D02*
G03*
X192937Y380000I-2937J0D01*
G01*
X182937D02*
G03*
X182937Y380000I-2937J0D01*
G01*
X172937D02*
G03*
X172937Y380000I-2937J0D01*
G01*
X162937D02*
G03*
X162937Y380000I-2937J0D01*
G01*
X152937D02*
G03*
X152937Y380000I-2937J0D01*
G01*
X142937D02*
G03*
X142937Y380000I-2937J0D01*
G01*
X132937D02*
G03*
X132937Y380000I-2937J0D01*
G01*
X702937Y370000D02*
G03*
X702937Y370000I-2937J0D01*
G01*
X692937D02*
G03*
X692937Y370000I-2937J0D01*
G01*
X622937D02*
G03*
X622937Y370000I-2937J0D01*
G01*
X632937D02*
G03*
X632937Y370000I-2937J0D01*
G01*
X642937D02*
G03*
X642937Y370000I-2937J0D01*
G01*
X652937D02*
G03*
X652937Y370000I-2937J0D01*
G01*
X662937D02*
G03*
X662937Y370000I-2937J0D01*
G01*
X672937D02*
G03*
X672937Y370000I-2937J0D01*
G01*
X682937D02*
G03*
X682937Y370000I-2937J0D01*
G01*
X552937D02*
G03*
X552937Y370000I-2937J0D01*
G01*
X562937D02*
G03*
X562937Y370000I-2937J0D01*
G01*
X572937D02*
G03*
X572937Y370000I-2937J0D01*
G01*
X582937D02*
G03*
X582937Y370000I-2937J0D01*
G01*
X592937D02*
G03*
X592937Y370000I-2937J0D01*
G01*
X602937D02*
G03*
X602937Y370000I-2937J0D01*
G01*
X612937D02*
G03*
X612937Y370000I-2937J0D01*
G01*
X482937D02*
G03*
X482937Y370000I-2937J0D01*
G01*
X492937D02*
G03*
X492937Y370000I-2937J0D01*
G01*
X502937D02*
G03*
X502937Y370000I-2937J0D01*
G01*
X512937D02*
G03*
X512937Y370000I-2937J0D01*
G01*
X522937D02*
G03*
X522937Y370000I-2937J0D01*
G01*
X532937D02*
G03*
X532937Y370000I-2937J0D01*
G01*
X542937D02*
G03*
X542937Y370000I-2937J0D01*
G01*
X412937D02*
G03*
X412937Y370000I-2937J0D01*
G01*
X422937D02*
G03*
X422937Y370000I-2937J0D01*
G01*
X432937D02*
G03*
X432937Y370000I-2937J0D01*
G01*
X442937D02*
G03*
X442937Y370000I-2937J0D01*
G01*
X452937D02*
G03*
X452937Y370000I-2937J0D01*
G01*
X462937D02*
G03*
X462937Y370000I-2937J0D01*
G01*
X472937D02*
G03*
X472937Y370000I-2937J0D01*
G01*
X342937D02*
G03*
X342937Y370000I-2937J0D01*
G01*
X352937D02*
G03*
X352937Y370000I-2937J0D01*
G01*
X362937D02*
G03*
X362937Y370000I-2937J0D01*
G01*
X372937D02*
G03*
X372937Y370000I-2937J0D01*
G01*
X382937D02*
G03*
X382937Y370000I-2937J0D01*
G01*
X392937D02*
G03*
X392937Y370000I-2937J0D01*
G01*
X402937D02*
G03*
X402937Y370000I-2937J0D01*
G01*
X272937D02*
G03*
X272937Y370000I-2937J0D01*
G01*
X282937D02*
G03*
X282937Y370000I-2937J0D01*
G01*
X292937D02*
G03*
X292937Y370000I-2937J0D01*
G01*
X302937D02*
G03*
X302937Y370000I-2937J0D01*
G01*
X312937D02*
G03*
X312937Y370000I-2937J0D01*
G01*
X322937D02*
G03*
X322937Y370000I-2937J0D01*
G01*
X332937D02*
G03*
X332937Y370000I-2937J0D01*
G01*
X202937D02*
G03*
X202937Y370000I-2937J0D01*
G01*
X212937D02*
G03*
X212937Y370000I-2937J0D01*
G01*
X222937D02*
G03*
X222937Y370000I-2937J0D01*
G01*
X232937D02*
G03*
X232937Y370000I-2937J0D01*
G01*
X242937D02*
G03*
X242937Y370000I-2937J0D01*
G01*
X252937D02*
G03*
X252937Y370000I-2937J0D01*
G01*
X262937D02*
G03*
X262937Y370000I-2937J0D01*
G01*
X192937D02*
G03*
X192937Y370000I-2937J0D01*
G01*
X182937D02*
G03*
X182937Y370000I-2937J0D01*
G01*
X172937D02*
G03*
X172937Y370000I-2937J0D01*
G01*
X162937D02*
G03*
X162937Y370000I-2937J0D01*
G01*
X152937D02*
G03*
X152937Y370000I-2937J0D01*
G01*
X142937D02*
G03*
X142937Y370000I-2937J0D01*
G01*
X132937D02*
G03*
X132937Y370000I-2937J0D01*
G01*
Y410000D02*
G03*
X132937Y410000I-2937J0D01*
G01*
X142937D02*
G03*
X142937Y410000I-2937J0D01*
G01*
X152937D02*
G03*
X152937Y410000I-2937J0D01*
G01*
X162937D02*
G03*
X162937Y410000I-2937J0D01*
G01*
X172937D02*
G03*
X172937Y410000I-2937J0D01*
G01*
X182937D02*
G03*
X182937Y410000I-2937J0D01*
G01*
X192937D02*
G03*
X192937Y410000I-2937J0D01*
G01*
X262937D02*
G03*
X262937Y410000I-2937J0D01*
G01*
X252937D02*
G03*
X252937Y410000I-2937J0D01*
G01*
X242937D02*
G03*
X242937Y410000I-2937J0D01*
G01*
X232937D02*
G03*
X232937Y410000I-2937J0D01*
G01*
X222937D02*
G03*
X222937Y410000I-2937J0D01*
G01*
X212937D02*
G03*
X212937Y410000I-2937J0D01*
G01*
X202937D02*
G03*
X202937Y410000I-2937J0D01*
G01*
X332937D02*
G03*
X332937Y410000I-2937J0D01*
G01*
X322937D02*
G03*
X322937Y410000I-2937J0D01*
G01*
X312937D02*
G03*
X312937Y410000I-2937J0D01*
G01*
X302937D02*
G03*
X302937Y410000I-2937J0D01*
G01*
X292937D02*
G03*
X292937Y410000I-2937J0D01*
G01*
X282937D02*
G03*
X282937Y410000I-2937J0D01*
G01*
X272937D02*
G03*
X272937Y410000I-2937J0D01*
G01*
X402937D02*
G03*
X402937Y410000I-2937J0D01*
G01*
X392937D02*
G03*
X392937Y410000I-2937J0D01*
G01*
X382937D02*
G03*
X382937Y410000I-2937J0D01*
G01*
X372937D02*
G03*
X372937Y410000I-2937J0D01*
G01*
X362937D02*
G03*
X362937Y410000I-2937J0D01*
G01*
X352937D02*
G03*
X352937Y410000I-2937J0D01*
G01*
X342937D02*
G03*
X342937Y410000I-2937J0D01*
G01*
X472937D02*
G03*
X472937Y410000I-2937J0D01*
G01*
X462937D02*
G03*
X462937Y410000I-2937J0D01*
G01*
X452937D02*
G03*
X452937Y410000I-2937J0D01*
G01*
X442937D02*
G03*
X442937Y410000I-2937J0D01*
G01*
X432937D02*
G03*
X432937Y410000I-2937J0D01*
G01*
X422937D02*
G03*
X422937Y410000I-2937J0D01*
G01*
X412937D02*
G03*
X412937Y410000I-2937J0D01*
G01*
X542937D02*
G03*
X542937Y410000I-2937J0D01*
G01*
X532937D02*
G03*
X532937Y410000I-2937J0D01*
G01*
X522937D02*
G03*
X522937Y410000I-2937J0D01*
G01*
X512937D02*
G03*
X512937Y410000I-2937J0D01*
G01*
X502937D02*
G03*
X502937Y410000I-2937J0D01*
G01*
X492937D02*
G03*
X492937Y410000I-2937J0D01*
G01*
X482937D02*
G03*
X482937Y410000I-2937J0D01*
G01*
X612937D02*
G03*
X612937Y410000I-2937J0D01*
G01*
X602937D02*
G03*
X602937Y410000I-2937J0D01*
G01*
X592937D02*
G03*
X592937Y410000I-2937J0D01*
G01*
X582937D02*
G03*
X582937Y410000I-2937J0D01*
G01*
X572937D02*
G03*
X572937Y410000I-2937J0D01*
G01*
X562937D02*
G03*
X562937Y410000I-2937J0D01*
G01*
X552937D02*
G03*
X552937Y410000I-2937J0D01*
G01*
X682937D02*
G03*
X682937Y410000I-2937J0D01*
G01*
X672937D02*
G03*
X672937Y410000I-2937J0D01*
G01*
X662937D02*
G03*
X662937Y410000I-2937J0D01*
G01*
X652937D02*
G03*
X652937Y410000I-2937J0D01*
G01*
X642937D02*
G03*
X642937Y410000I-2937J0D01*
G01*
X632937D02*
G03*
X632937Y410000I-2937J0D01*
G01*
X622937D02*
G03*
X622937Y410000I-2937J0D01*
G01*
X692937D02*
G03*
X692937Y410000I-2937J0D01*
G01*
X702937D02*
G03*
X702937Y410000I-2937J0D01*
G01*
X132937Y420000D02*
G03*
X132937Y420000I-2937J0D01*
G01*
X142937D02*
G03*
X142937Y420000I-2937J0D01*
G01*
X152937D02*
G03*
X152937Y420000I-2937J0D01*
G01*
X162937D02*
G03*
X162937Y420000I-2937J0D01*
G01*
X172937D02*
G03*
X172937Y420000I-2937J0D01*
G01*
X182937D02*
G03*
X182937Y420000I-2937J0D01*
G01*
X192937D02*
G03*
X192937Y420000I-2937J0D01*
G01*
X262937D02*
G03*
X262937Y420000I-2937J0D01*
G01*
X252937D02*
G03*
X252937Y420000I-2937J0D01*
G01*
X242937D02*
G03*
X242937Y420000I-2937J0D01*
G01*
X232937D02*
G03*
X232937Y420000I-2937J0D01*
G01*
X222937D02*
G03*
X222937Y420000I-2937J0D01*
G01*
X212937D02*
G03*
X212937Y420000I-2937J0D01*
G01*
X202937D02*
G03*
X202937Y420000I-2937J0D01*
G01*
X332937D02*
G03*
X332937Y420000I-2937J0D01*
G01*
X322937D02*
G03*
X322937Y420000I-2937J0D01*
G01*
X312937D02*
G03*
X312937Y420000I-2937J0D01*
G01*
X302937D02*
G03*
X302937Y420000I-2937J0D01*
G01*
X292937D02*
G03*
X292937Y420000I-2937J0D01*
G01*
X282937D02*
G03*
X282937Y420000I-2937J0D01*
G01*
X272937D02*
G03*
X272937Y420000I-2937J0D01*
G01*
X402937D02*
G03*
X402937Y420000I-2937J0D01*
G01*
X392937D02*
G03*
X392937Y420000I-2937J0D01*
G01*
X382937D02*
G03*
X382937Y420000I-2937J0D01*
G01*
X372937D02*
G03*
X372937Y420000I-2937J0D01*
G01*
X362937D02*
G03*
X362937Y420000I-2937J0D01*
G01*
X352937D02*
G03*
X352937Y420000I-2937J0D01*
G01*
X342937D02*
G03*
X342937Y420000I-2937J0D01*
G01*
X472937D02*
G03*
X472937Y420000I-2937J0D01*
G01*
X462937D02*
G03*
X462937Y420000I-2937J0D01*
G01*
X452937D02*
G03*
X452937Y420000I-2937J0D01*
G01*
X442937D02*
G03*
X442937Y420000I-2937J0D01*
G01*
X432937D02*
G03*
X432937Y420000I-2937J0D01*
G01*
X422937D02*
G03*
X422937Y420000I-2937J0D01*
G01*
X412937D02*
G03*
X412937Y420000I-2937J0D01*
G01*
X542937D02*
G03*
X542937Y420000I-2937J0D01*
G01*
X532937D02*
G03*
X532937Y420000I-2937J0D01*
G01*
X522937D02*
G03*
X522937Y420000I-2937J0D01*
G01*
X512937D02*
G03*
X512937Y420000I-2937J0D01*
G01*
X502937D02*
G03*
X502937Y420000I-2937J0D01*
G01*
X492937D02*
G03*
X492937Y420000I-2937J0D01*
G01*
X482937D02*
G03*
X482937Y420000I-2937J0D01*
G01*
X612937D02*
G03*
X612937Y420000I-2937J0D01*
G01*
X602937D02*
G03*
X602937Y420000I-2937J0D01*
G01*
X592937D02*
G03*
X592937Y420000I-2937J0D01*
G01*
X582937D02*
G03*
X582937Y420000I-2937J0D01*
G01*
X572937D02*
G03*
X572937Y420000I-2937J0D01*
G01*
X562937D02*
G03*
X562937Y420000I-2937J0D01*
G01*
X552937D02*
G03*
X552937Y420000I-2937J0D01*
G01*
X682937D02*
G03*
X682937Y420000I-2937J0D01*
G01*
X672937D02*
G03*
X672937Y420000I-2937J0D01*
G01*
X662937D02*
G03*
X662937Y420000I-2937J0D01*
G01*
X652937D02*
G03*
X652937Y420000I-2937J0D01*
G01*
X642937D02*
G03*
X642937Y420000I-2937J0D01*
G01*
X632937D02*
G03*
X632937Y420000I-2937J0D01*
G01*
X622937D02*
G03*
X622937Y420000I-2937J0D01*
G01*
X692937D02*
G03*
X692937Y420000I-2937J0D01*
G01*
X702937D02*
G03*
X702937Y420000I-2937J0D01*
G01*
X132937Y430000D02*
G03*
X132937Y430000I-2937J0D01*
G01*
X142937D02*
G03*
X142937Y430000I-2937J0D01*
G01*
X152937D02*
G03*
X152937Y430000I-2937J0D01*
G01*
X162937D02*
G03*
X162937Y430000I-2937J0D01*
G01*
X172937D02*
G03*
X172937Y430000I-2937J0D01*
G01*
X182937D02*
G03*
X182937Y430000I-2937J0D01*
G01*
X192937D02*
G03*
X192937Y430000I-2937J0D01*
G01*
X262937D02*
G03*
X262937Y430000I-2937J0D01*
G01*
X252937D02*
G03*
X252937Y430000I-2937J0D01*
G01*
X242937D02*
G03*
X242937Y430000I-2937J0D01*
G01*
X232937D02*
G03*
X232937Y430000I-2937J0D01*
G01*
X222937D02*
G03*
X222937Y430000I-2937J0D01*
G01*
X212937D02*
G03*
X212937Y430000I-2937J0D01*
G01*
X202937D02*
G03*
X202937Y430000I-2937J0D01*
G01*
X332937D02*
G03*
X332937Y430000I-2937J0D01*
G01*
X322937D02*
G03*
X322937Y430000I-2937J0D01*
G01*
X312937D02*
G03*
X312937Y430000I-2937J0D01*
G01*
X302937D02*
G03*
X302937Y430000I-2937J0D01*
G01*
X292937D02*
G03*
X292937Y430000I-2937J0D01*
G01*
X282937D02*
G03*
X282937Y430000I-2937J0D01*
G01*
X272937D02*
G03*
X272937Y430000I-2937J0D01*
G01*
X402937D02*
G03*
X402937Y430000I-2937J0D01*
G01*
X392937D02*
G03*
X392937Y430000I-2937J0D01*
G01*
X382937D02*
G03*
X382937Y430000I-2937J0D01*
G01*
X372937D02*
G03*
X372937Y430000I-2937J0D01*
G01*
X362937D02*
G03*
X362937Y430000I-2937J0D01*
G01*
X352937D02*
G03*
X352937Y430000I-2937J0D01*
G01*
X342937D02*
G03*
X342937Y430000I-2937J0D01*
G01*
X472937D02*
G03*
X472937Y430000I-2937J0D01*
G01*
X462937D02*
G03*
X462937Y430000I-2937J0D01*
G01*
X452937D02*
G03*
X452937Y430000I-2937J0D01*
G01*
X442937D02*
G03*
X442937Y430000I-2937J0D01*
G01*
X432937D02*
G03*
X432937Y430000I-2937J0D01*
G01*
X422937D02*
G03*
X422937Y430000I-2937J0D01*
G01*
X412937D02*
G03*
X412937Y430000I-2937J0D01*
G01*
X542937D02*
G03*
X542937Y430000I-2937J0D01*
G01*
X532937D02*
G03*
X532937Y430000I-2937J0D01*
G01*
X522937D02*
G03*
X522937Y430000I-2937J0D01*
G01*
X512937D02*
G03*
X512937Y430000I-2937J0D01*
G01*
X502937D02*
G03*
X502937Y430000I-2937J0D01*
G01*
X492937D02*
G03*
X492937Y430000I-2937J0D01*
G01*
X482937D02*
G03*
X482937Y430000I-2937J0D01*
G01*
X612937D02*
G03*
X612937Y430000I-2937J0D01*
G01*
X602937D02*
G03*
X602937Y430000I-2937J0D01*
G01*
X592937D02*
G03*
X592937Y430000I-2937J0D01*
G01*
X582937D02*
G03*
X582937Y430000I-2937J0D01*
G01*
X572937D02*
G03*
X572937Y430000I-2937J0D01*
G01*
X562937D02*
G03*
X562937Y430000I-2937J0D01*
G01*
X552937D02*
G03*
X552937Y430000I-2937J0D01*
G01*
X682937D02*
G03*
X682937Y430000I-2937J0D01*
G01*
X672937D02*
G03*
X672937Y430000I-2937J0D01*
G01*
X662937D02*
G03*
X662937Y430000I-2937J0D01*
G01*
X652937D02*
G03*
X652937Y430000I-2937J0D01*
G01*
X642937D02*
G03*
X642937Y430000I-2937J0D01*
G01*
X632937D02*
G03*
X632937Y430000I-2937J0D01*
G01*
X622937D02*
G03*
X622937Y430000I-2937J0D01*
G01*
X692937D02*
G03*
X692937Y430000I-2937J0D01*
G01*
X702937D02*
G03*
X702937Y430000I-2937J0D01*
G01*
Y440000D02*
G03*
X702937Y440000I-2937J0D01*
G01*
X692937D02*
G03*
X692937Y440000I-2937J0D01*
G01*
X622937D02*
G03*
X622937Y440000I-2937J0D01*
G01*
X632937D02*
G03*
X632937Y440000I-2937J0D01*
G01*
X642937D02*
G03*
X642937Y440000I-2937J0D01*
G01*
X652937D02*
G03*
X652937Y440000I-2937J0D01*
G01*
X662937D02*
G03*
X662937Y440000I-2937J0D01*
G01*
X672937D02*
G03*
X672937Y440000I-2937J0D01*
G01*
X682937D02*
G03*
X682937Y440000I-2937J0D01*
G01*
X552937D02*
G03*
X552937Y440000I-2937J0D01*
G01*
X562937D02*
G03*
X562937Y440000I-2937J0D01*
G01*
X572937D02*
G03*
X572937Y440000I-2937J0D01*
G01*
X582937D02*
G03*
X582937Y440000I-2937J0D01*
G01*
X592937D02*
G03*
X592937Y440000I-2937J0D01*
G01*
X602937D02*
G03*
X602937Y440000I-2937J0D01*
G01*
X612937D02*
G03*
X612937Y440000I-2937J0D01*
G01*
X482937D02*
G03*
X482937Y440000I-2937J0D01*
G01*
X492937D02*
G03*
X492937Y440000I-2937J0D01*
G01*
X502937D02*
G03*
X502937Y440000I-2937J0D01*
G01*
X512937D02*
G03*
X512937Y440000I-2937J0D01*
G01*
X522937D02*
G03*
X522937Y440000I-2937J0D01*
G01*
X532937D02*
G03*
X532937Y440000I-2937J0D01*
G01*
X542937D02*
G03*
X542937Y440000I-2937J0D01*
G01*
X412937D02*
G03*
X412937Y440000I-2937J0D01*
G01*
X422937D02*
G03*
X422937Y440000I-2937J0D01*
G01*
X432937D02*
G03*
X432937Y440000I-2937J0D01*
G01*
X442937D02*
G03*
X442937Y440000I-2937J0D01*
G01*
X452937D02*
G03*
X452937Y440000I-2937J0D01*
G01*
X462937D02*
G03*
X462937Y440000I-2937J0D01*
G01*
X472937D02*
G03*
X472937Y440000I-2937J0D01*
G01*
X342937D02*
G03*
X342937Y440000I-2937J0D01*
G01*
X352937D02*
G03*
X352937Y440000I-2937J0D01*
G01*
X362937D02*
G03*
X362937Y440000I-2937J0D01*
G01*
X372937D02*
G03*
X372937Y440000I-2937J0D01*
G01*
X382937D02*
G03*
X382937Y440000I-2937J0D01*
G01*
X392937D02*
G03*
X392937Y440000I-2937J0D01*
G01*
X402937D02*
G03*
X402937Y440000I-2937J0D01*
G01*
X272937D02*
G03*
X272937Y440000I-2937J0D01*
G01*
X282937D02*
G03*
X282937Y440000I-2937J0D01*
G01*
X292937D02*
G03*
X292937Y440000I-2937J0D01*
G01*
X302937D02*
G03*
X302937Y440000I-2937J0D01*
G01*
X312937D02*
G03*
X312937Y440000I-2937J0D01*
G01*
X322937D02*
G03*
X322937Y440000I-2937J0D01*
G01*
X332937D02*
G03*
X332937Y440000I-2937J0D01*
G01*
X202937D02*
G03*
X202937Y440000I-2937J0D01*
G01*
X212937D02*
G03*
X212937Y440000I-2937J0D01*
G01*
X222937D02*
G03*
X222937Y440000I-2937J0D01*
G01*
X232937D02*
G03*
X232937Y440000I-2937J0D01*
G01*
X242937D02*
G03*
X242937Y440000I-2937J0D01*
G01*
X252937D02*
G03*
X252937Y440000I-2937J0D01*
G01*
X262937D02*
G03*
X262937Y440000I-2937J0D01*
G01*
X192937D02*
G03*
X192937Y440000I-2937J0D01*
G01*
X182937D02*
G03*
X182937Y440000I-2937J0D01*
G01*
X172937D02*
G03*
X172937Y440000I-2937J0D01*
G01*
X162937D02*
G03*
X162937Y440000I-2937J0D01*
G01*
X152937D02*
G03*
X152937Y440000I-2937J0D01*
G01*
X142937D02*
G03*
X142937Y440000I-2937J0D01*
G01*
X132937D02*
G03*
X132937Y440000I-2937J0D01*
G01*
M02*
