G04*
G04 #@! TF.GenerationSoftware,Altium Limited,Altium Designer,20.0.1 (14)*
G04*
G04 Layer_Physical_Order=2*
G04 Layer_Color=16711680*
%FSLAX25Y25*%
%MOIN*%
G70*
G01*
G75*
G36*
X706984Y119994D02*
X707073Y119983D01*
X707156Y119967D01*
X707240Y119945D01*
X707378Y119889D01*
X707445Y119861D01*
X707501Y119828D01*
X707556Y119795D01*
X707600Y119767D01*
X707639Y119734D01*
X707673Y119711D01*
X707700Y119689D01*
X707717Y119673D01*
X707728Y119661D01*
X707734Y119656D01*
X707795Y119589D01*
X707845Y119517D01*
X707889Y119439D01*
X707928Y119362D01*
X707956Y119290D01*
X707983Y119212D01*
X708022Y119062D01*
X708039Y118995D01*
X708050Y118934D01*
X708055Y118879D01*
X708061Y118829D01*
X708067Y118790D01*
Y118735D01*
X708061Y118629D01*
X708050Y118535D01*
X708033Y118440D01*
X708017Y118352D01*
X707989Y118274D01*
X707961Y118196D01*
X707933Y118124D01*
X707900Y118063D01*
X707867Y118008D01*
X707839Y117958D01*
X707811Y117919D01*
X707784Y117880D01*
X707767Y117852D01*
X707750Y117835D01*
X707739Y117824D01*
X707734Y117819D01*
X707667Y117758D01*
X707600Y117702D01*
X707534Y117658D01*
X707462Y117619D01*
X707395Y117580D01*
X707323Y117552D01*
X707195Y117514D01*
X707134Y117497D01*
X707079Y117486D01*
X707029Y117480D01*
X706990Y117475D01*
X706957Y117469D01*
X706929D01*
X706912D01*
X706907D01*
X706779Y117475D01*
X706662Y117497D01*
X706557Y117530D01*
X706468Y117564D01*
X706396Y117597D01*
X706341Y117630D01*
X706307Y117652D01*
X706302Y117658D01*
X706296D01*
X706207Y117736D01*
X706130Y117819D01*
X706069Y117908D01*
X706013Y117991D01*
X705974Y118069D01*
X705946Y118135D01*
X705935Y118157D01*
X705930Y118174D01*
X705924Y118185D01*
Y118191D01*
X705880Y118091D01*
X705830Y118008D01*
X705780Y117935D01*
X705730Y117874D01*
X705686Y117830D01*
X705652Y117797D01*
X705630Y117774D01*
X705619Y117769D01*
X705541Y117719D01*
X705464Y117686D01*
X705386Y117658D01*
X705308Y117641D01*
X705247Y117630D01*
X705197Y117625D01*
X705164D01*
X705158D01*
X705153D01*
X705075Y117630D01*
X705003Y117636D01*
X704864Y117675D01*
X704742Y117725D01*
X704637Y117780D01*
X704553Y117835D01*
X704520Y117863D01*
X704487Y117885D01*
X704465Y117908D01*
X704448Y117924D01*
X704443Y117930D01*
X704437Y117935D01*
X704387Y117997D01*
X704337Y118058D01*
X704298Y118124D01*
X704265Y118191D01*
X704215Y118324D01*
X704182Y118457D01*
X704165Y118513D01*
X704159Y118568D01*
X704154Y118618D01*
X704148Y118662D01*
X704143Y118696D01*
Y118746D01*
X704148Y118834D01*
X704154Y118923D01*
X704187Y119079D01*
X704209Y119151D01*
X704232Y119218D01*
X704259Y119279D01*
X704287Y119334D01*
X704315Y119378D01*
X704343Y119423D01*
X704365Y119462D01*
X704387Y119489D01*
X704404Y119512D01*
X704420Y119528D01*
X704426Y119539D01*
X704431Y119545D01*
X704487Y119595D01*
X704542Y119645D01*
X704603Y119684D01*
X704665Y119717D01*
X704781Y119773D01*
X704892Y119806D01*
X704986Y119828D01*
X705031Y119834D01*
X705064Y119839D01*
X705097Y119845D01*
X705120D01*
X705131D01*
X705136D01*
X705236Y119839D01*
X705331Y119822D01*
X705414Y119800D01*
X705486Y119773D01*
X705541Y119750D01*
X705586Y119728D01*
X705608Y119711D01*
X705619Y119706D01*
X705686Y119645D01*
X705747Y119578D01*
X705802Y119506D01*
X705847Y119434D01*
X705880Y119367D01*
X705902Y119317D01*
X705913Y119295D01*
X705919Y119279D01*
X705924Y119273D01*
Y119267D01*
X705963Y119395D01*
X706013Y119501D01*
X706074Y119595D01*
X706130Y119673D01*
X706185Y119734D01*
X706230Y119778D01*
X706257Y119800D01*
X706263Y119811D01*
X706268D01*
X706368Y119872D01*
X706474Y119922D01*
X706574Y119956D01*
X706673Y119978D01*
X706762Y119989D01*
X706801Y119994D01*
X706835D01*
X706857Y120000D01*
X706879D01*
X706890D01*
X706896D01*
X706984Y119994D01*
D02*
G37*
G36*
Y117008D02*
X707073Y116998D01*
X707156Y116981D01*
X707240Y116959D01*
X707378Y116903D01*
X707445Y116875D01*
X707501Y116842D01*
X707556Y116809D01*
X707600Y116781D01*
X707639Y116748D01*
X707673Y116726D01*
X707700Y116703D01*
X707717Y116687D01*
X707728Y116675D01*
X707734Y116670D01*
X707795Y116603D01*
X707845Y116531D01*
X707889Y116454D01*
X707928Y116376D01*
X707956Y116304D01*
X707983Y116226D01*
X708022Y116076D01*
X708039Y116009D01*
X708050Y115948D01*
X708055Y115893D01*
X708061Y115843D01*
X708067Y115804D01*
Y115749D01*
X708061Y115643D01*
X708050Y115549D01*
X708033Y115454D01*
X708017Y115366D01*
X707989Y115288D01*
X707961Y115210D01*
X707933Y115138D01*
X707900Y115077D01*
X707867Y115022D01*
X707839Y114972D01*
X707811Y114933D01*
X707784Y114894D01*
X707767Y114866D01*
X707750Y114850D01*
X707739Y114839D01*
X707734Y114833D01*
X707667Y114772D01*
X707600Y114716D01*
X707534Y114672D01*
X707462Y114633D01*
X707395Y114594D01*
X707323Y114567D01*
X707195Y114528D01*
X707134Y114511D01*
X707079Y114500D01*
X707029Y114494D01*
X706990Y114489D01*
X706957Y114483D01*
X706929D01*
X706912D01*
X706907D01*
X706779Y114489D01*
X706662Y114511D01*
X706557Y114544D01*
X706468Y114578D01*
X706396Y114611D01*
X706341Y114644D01*
X706307Y114666D01*
X706302Y114672D01*
X706296D01*
X706207Y114750D01*
X706130Y114833D01*
X706069Y114922D01*
X706013Y115005D01*
X705974Y115083D01*
X705946Y115149D01*
X705935Y115172D01*
X705930Y115188D01*
X705924Y115199D01*
Y115205D01*
X705880Y115105D01*
X705830Y115022D01*
X705780Y114950D01*
X705730Y114888D01*
X705686Y114844D01*
X705652Y114811D01*
X705630Y114789D01*
X705619Y114783D01*
X705541Y114733D01*
X705464Y114700D01*
X705386Y114672D01*
X705308Y114655D01*
X705247Y114644D01*
X705197Y114639D01*
X705164D01*
X705158D01*
X705153D01*
X705075Y114644D01*
X705003Y114650D01*
X704864Y114689D01*
X704742Y114739D01*
X704637Y114794D01*
X704553Y114850D01*
X704520Y114877D01*
X704487Y114900D01*
X704465Y114922D01*
X704448Y114938D01*
X704443Y114944D01*
X704437Y114950D01*
X704387Y115010D01*
X704337Y115072D01*
X704298Y115138D01*
X704265Y115205D01*
X704215Y115338D01*
X704182Y115471D01*
X704165Y115527D01*
X704159Y115582D01*
X704154Y115632D01*
X704148Y115676D01*
X704143Y115710D01*
Y115760D01*
X704148Y115849D01*
X704154Y115937D01*
X704187Y116093D01*
X704209Y116165D01*
X704232Y116232D01*
X704259Y116293D01*
X704287Y116348D01*
X704315Y116393D01*
X704343Y116437D01*
X704365Y116476D01*
X704387Y116504D01*
X704404Y116526D01*
X704420Y116542D01*
X704426Y116553D01*
X704431Y116559D01*
X704487Y116609D01*
X704542Y116659D01*
X704603Y116698D01*
X704665Y116731D01*
X704781Y116787D01*
X704892Y116820D01*
X704986Y116842D01*
X705031Y116848D01*
X705064Y116853D01*
X705097Y116859D01*
X705120D01*
X705131D01*
X705136D01*
X705236Y116853D01*
X705331Y116837D01*
X705414Y116814D01*
X705486Y116787D01*
X705541Y116764D01*
X705586Y116742D01*
X705608Y116726D01*
X705619Y116720D01*
X705686Y116659D01*
X705747Y116592D01*
X705802Y116520D01*
X705847Y116448D01*
X705880Y116381D01*
X705902Y116331D01*
X705913Y116309D01*
X705919Y116293D01*
X705924Y116287D01*
Y116281D01*
X705963Y116409D01*
X706013Y116515D01*
X706074Y116609D01*
X706130Y116687D01*
X706185Y116748D01*
X706230Y116792D01*
X706257Y116814D01*
X706263Y116825D01*
X706268D01*
X706368Y116886D01*
X706474Y116936D01*
X706574Y116970D01*
X706673Y116992D01*
X706762Y117003D01*
X706801Y117008D01*
X706835D01*
X706857Y117014D01*
X706879D01*
X706890D01*
X706896D01*
X706984Y117008D01*
D02*
G37*
G36*
X708000Y113218D02*
X707462D01*
Y113756D01*
X708000D01*
Y113218D01*
D02*
G37*
G36*
X705547Y112524D02*
X705641Y112513D01*
X705736Y112502D01*
X705824Y112480D01*
X705902Y112452D01*
X705980Y112424D01*
X706046Y112397D01*
X706107Y112363D01*
X706163Y112335D01*
X706213Y112308D01*
X706252Y112280D01*
X706291Y112252D01*
X706318Y112230D01*
X706335Y112219D01*
X706346Y112208D01*
X706352Y112202D01*
X706413Y112141D01*
X706463Y112075D01*
X706513Y112008D01*
X706552Y111936D01*
X706585Y111869D01*
X706612Y111803D01*
X706651Y111675D01*
X706668Y111619D01*
X706679Y111564D01*
X706685Y111520D01*
X706690Y111475D01*
X706696Y111442D01*
Y111398D01*
X706690Y111292D01*
X706673Y111192D01*
X706651Y111103D01*
X706624Y111020D01*
X706601Y110959D01*
X706579Y110909D01*
X706563Y110876D01*
X706557Y110865D01*
X706501Y110776D01*
X706440Y110698D01*
X706379Y110632D01*
X706324Y110576D01*
X706268Y110537D01*
X706230Y110504D01*
X706202Y110482D01*
X706191Y110476D01*
X706235D01*
X706263D01*
X706280D01*
X706285D01*
X706396Y110482D01*
X706501Y110487D01*
X706596Y110498D01*
X706685Y110510D01*
X706757Y110526D01*
X706812Y110537D01*
X706835Y110543D01*
X706851D01*
X706857Y110548D01*
X706862D01*
X706962Y110576D01*
X707051Y110604D01*
X707129Y110632D01*
X707195Y110659D01*
X707245Y110681D01*
X707284Y110704D01*
X707312Y110715D01*
X707317Y110720D01*
X707378Y110765D01*
X707428Y110809D01*
X707473Y110854D01*
X707512Y110898D01*
X707545Y110931D01*
X707567Y110965D01*
X707578Y110987D01*
X707584Y110992D01*
X707617Y111053D01*
X707639Y111120D01*
X707656Y111181D01*
X707667Y111242D01*
X707673Y111292D01*
X707678Y111331D01*
Y111370D01*
X707673Y111459D01*
X707656Y111542D01*
X707634Y111614D01*
X707606Y111675D01*
X707584Y111719D01*
X707561Y111758D01*
X707545Y111780D01*
X707539Y111786D01*
X707478Y111841D01*
X707406Y111886D01*
X707328Y111925D01*
X707251Y111952D01*
X707184Y111975D01*
X707123Y111991D01*
X707101Y111997D01*
X707090D01*
X707079Y112002D01*
X707073D01*
X707112Y112458D01*
X707273Y112424D01*
X707412Y112380D01*
X707534Y112324D01*
X707634Y112269D01*
X707711Y112213D01*
X707745Y112186D01*
X707772Y112163D01*
X707789Y112147D01*
X707806Y112130D01*
X707811Y112125D01*
X707817Y112119D01*
X707861Y112064D01*
X707900Y112002D01*
X707961Y111880D01*
X708006Y111758D01*
X708033Y111642D01*
X708055Y111536D01*
X708061Y111492D01*
Y111453D01*
X708067Y111425D01*
Y111381D01*
X708055Y111225D01*
X708033Y111087D01*
X707994Y110959D01*
X707950Y110854D01*
X707933Y110809D01*
X707911Y110765D01*
X707889Y110731D01*
X707872Y110698D01*
X707861Y110676D01*
X707850Y110659D01*
X707839Y110648D01*
Y110643D01*
X707745Y110532D01*
X707639Y110432D01*
X707528Y110354D01*
X707423Y110287D01*
X707328Y110232D01*
X707284Y110210D01*
X707251Y110193D01*
X707218Y110182D01*
X707195Y110171D01*
X707184Y110165D01*
X707179D01*
X707095Y110138D01*
X707001Y110110D01*
X706812Y110071D01*
X706612Y110043D01*
X706424Y110027D01*
X706341Y110016D01*
X706257Y110010D01*
X706185D01*
X706124Y110004D01*
X706074D01*
X706035D01*
X706007D01*
X706002D01*
X705874D01*
X705752Y110010D01*
X705641Y110021D01*
X705536Y110032D01*
X705441Y110043D01*
X705353Y110054D01*
X705269Y110071D01*
X705197Y110088D01*
X705136Y110104D01*
X705081Y110116D01*
X705031Y110132D01*
X704992Y110143D01*
X704964Y110154D01*
X704942Y110165D01*
X704931Y110171D01*
X704925D01*
X704792Y110238D01*
X704676Y110310D01*
X704576Y110393D01*
X704492Y110465D01*
X704431Y110537D01*
X704387Y110593D01*
X704370Y110615D01*
X704359Y110632D01*
X704348Y110637D01*
Y110643D01*
X704282Y110759D01*
X704232Y110876D01*
X704193Y110992D01*
X704171Y111098D01*
X704154Y111192D01*
X704148Y111231D01*
Y111259D01*
X704143Y111286D01*
Y111325D01*
X704148Y111420D01*
X704159Y111509D01*
X704176Y111597D01*
X704198Y111675D01*
X704259Y111825D01*
X704287Y111891D01*
X704320Y111947D01*
X704359Y112002D01*
X704387Y112047D01*
X704420Y112091D01*
X704448Y112125D01*
X704470Y112152D01*
X704487Y112169D01*
X704498Y112180D01*
X704503Y112186D01*
X704570Y112247D01*
X704648Y112297D01*
X704720Y112347D01*
X704798Y112385D01*
X704881Y112419D01*
X704959Y112446D01*
X705103Y112485D01*
X705175Y112502D01*
X705236Y112513D01*
X705297Y112519D01*
X705347Y112524D01*
X705386Y112530D01*
X705414D01*
X705436D01*
X705441D01*
X705547Y112524D01*
D02*
G37*
G36*
X708000Y108944D02*
X706557D01*
X706424Y108939D01*
X706307Y108933D01*
X706207Y108922D01*
X706124Y108905D01*
X706063Y108889D01*
X706019Y108878D01*
X705991Y108872D01*
X705980Y108867D01*
X705908Y108833D01*
X705847Y108795D01*
X705791Y108756D01*
X705747Y108717D01*
X705713Y108678D01*
X705691Y108650D01*
X705675Y108628D01*
X705669Y108623D01*
X705636Y108556D01*
X705608Y108495D01*
X705591Y108428D01*
X705575Y108373D01*
X705569Y108328D01*
X705564Y108290D01*
Y108256D01*
X705569Y108162D01*
X705586Y108084D01*
X705614Y108018D01*
X705641Y107968D01*
X705675Y107929D01*
X705697Y107901D01*
X705719Y107884D01*
X705724Y107879D01*
X705791Y107840D01*
X705863Y107812D01*
X705941Y107790D01*
X706019Y107779D01*
X706085Y107768D01*
X706146Y107762D01*
X706169D01*
X706180D01*
X706191D01*
X706196D01*
X708000D01*
Y107290D01*
X706385D01*
X706235Y107279D01*
X706107Y107257D01*
X706002Y107229D01*
X705913Y107191D01*
X705847Y107157D01*
X705802Y107124D01*
X705774Y107102D01*
X705763Y107096D01*
X705697Y107019D01*
X705647Y106935D01*
X705614Y106852D01*
X705586Y106774D01*
X705575Y106708D01*
X705569Y106652D01*
X705564Y106630D01*
Y106602D01*
X705569Y106541D01*
X705575Y106491D01*
X705586Y106441D01*
X705602Y106403D01*
X705619Y106364D01*
X705630Y106342D01*
X705636Y106325D01*
X705641Y106319D01*
X705675Y106275D01*
X705708Y106242D01*
X705741Y106214D01*
X705774Y106192D01*
X705802Y106175D01*
X705824Y106164D01*
X705841Y106153D01*
X705847D01*
X705897Y106136D01*
X705963Y106125D01*
X706030Y106120D01*
X706096Y106114D01*
X706157Y106108D01*
X706207D01*
X706241D01*
X706246D01*
X706252D01*
X708000D01*
Y105637D01*
X706091D01*
X706002D01*
X705924Y105648D01*
X705847Y105659D01*
X705780Y105670D01*
X705713Y105687D01*
X705658Y105709D01*
X705608Y105725D01*
X705558Y105748D01*
X705519Y105770D01*
X705480Y105786D01*
X705430Y105825D01*
X705397Y105848D01*
X705386Y105859D01*
X705308Y105947D01*
X705253Y106053D01*
X705208Y106158D01*
X705181Y106258D01*
X705164Y106352D01*
X705158Y106391D01*
Y106430D01*
X705153Y106458D01*
Y106497D01*
X705158Y106597D01*
X705175Y106685D01*
X705197Y106774D01*
X705231Y106858D01*
X705269Y106935D01*
X705308Y107007D01*
X705353Y107069D01*
X705397Y107130D01*
X705447Y107185D01*
X705491Y107229D01*
X705530Y107268D01*
X705569Y107302D01*
X705602Y107329D01*
X705625Y107346D01*
X705641Y107357D01*
X705647Y107363D01*
X705564Y107396D01*
X705491Y107440D01*
X705430Y107490D01*
X705380Y107535D01*
X705336Y107579D01*
X705308Y107612D01*
X705292Y107635D01*
X705286Y107646D01*
X705242Y107723D01*
X705208Y107807D01*
X705186Y107890D01*
X705169Y107973D01*
X705158Y108040D01*
X705153Y108101D01*
Y108151D01*
X705158Y108251D01*
X705175Y108345D01*
X705192Y108428D01*
X705214Y108500D01*
X705242Y108561D01*
X705258Y108606D01*
X705275Y108634D01*
X705280Y108645D01*
X705331Y108722D01*
X705386Y108789D01*
X705441Y108850D01*
X705497Y108900D01*
X705541Y108939D01*
X705580Y108972D01*
X705602Y108989D01*
X705614Y108994D01*
X705214D01*
Y109416D01*
X708000D01*
Y108944D01*
D02*
G37*
G36*
Y104471D02*
X706557D01*
X706424Y104466D01*
X706307Y104460D01*
X706207Y104449D01*
X706124Y104432D01*
X706063Y104416D01*
X706019Y104404D01*
X705991Y104399D01*
X705980Y104393D01*
X705908Y104360D01*
X705847Y104321D01*
X705791Y104282D01*
X705747Y104244D01*
X705713Y104205D01*
X705691Y104177D01*
X705675Y104155D01*
X705669Y104149D01*
X705636Y104083D01*
X705608Y104022D01*
X705591Y103955D01*
X705575Y103900D01*
X705569Y103855D01*
X705564Y103816D01*
Y103783D01*
X705569Y103689D01*
X705586Y103611D01*
X705614Y103544D01*
X705641Y103494D01*
X705675Y103455D01*
X705697Y103428D01*
X705719Y103411D01*
X705724Y103405D01*
X705791Y103367D01*
X705863Y103339D01*
X705941Y103317D01*
X706019Y103306D01*
X706085Y103295D01*
X706146Y103289D01*
X706169D01*
X706180D01*
X706191D01*
X706196D01*
X708000D01*
Y102817D01*
X706385D01*
X706235Y102806D01*
X706107Y102784D01*
X706002Y102756D01*
X705913Y102717D01*
X705847Y102684D01*
X705802Y102651D01*
X705774Y102629D01*
X705763Y102623D01*
X705697Y102545D01*
X705647Y102462D01*
X705614Y102379D01*
X705586Y102301D01*
X705575Y102234D01*
X705569Y102179D01*
X705564Y102157D01*
Y102129D01*
X705569Y102068D01*
X705575Y102018D01*
X705586Y101968D01*
X705602Y101929D01*
X705619Y101890D01*
X705630Y101868D01*
X705636Y101851D01*
X705641Y101846D01*
X705675Y101802D01*
X705708Y101768D01*
X705741Y101741D01*
X705774Y101718D01*
X705802Y101702D01*
X705824Y101690D01*
X705841Y101679D01*
X705847D01*
X705897Y101663D01*
X705963Y101652D01*
X706030Y101646D01*
X706096Y101641D01*
X706157Y101635D01*
X706207D01*
X706241D01*
X706246D01*
X706252D01*
X708000D01*
Y101163D01*
X706091D01*
X706002D01*
X705924Y101174D01*
X705847Y101186D01*
X705780Y101197D01*
X705713Y101213D01*
X705658Y101235D01*
X705608Y101252D01*
X705558Y101274D01*
X705519Y101296D01*
X705480Y101313D01*
X705430Y101352D01*
X705397Y101374D01*
X705386Y101385D01*
X705308Y101474D01*
X705253Y101579D01*
X705208Y101685D01*
X705181Y101785D01*
X705164Y101879D01*
X705158Y101918D01*
Y101957D01*
X705153Y101985D01*
Y102024D01*
X705158Y102123D01*
X705175Y102212D01*
X705197Y102301D01*
X705231Y102384D01*
X705269Y102462D01*
X705308Y102534D01*
X705353Y102595D01*
X705397Y102656D01*
X705447Y102712D01*
X705491Y102756D01*
X705530Y102795D01*
X705569Y102828D01*
X705602Y102856D01*
X705625Y102873D01*
X705641Y102884D01*
X705647Y102889D01*
X705564Y102923D01*
X705491Y102967D01*
X705430Y103017D01*
X705380Y103061D01*
X705336Y103106D01*
X705308Y103139D01*
X705292Y103161D01*
X705286Y103172D01*
X705242Y103250D01*
X705208Y103333D01*
X705186Y103417D01*
X705169Y103500D01*
X705158Y103567D01*
X705153Y103628D01*
Y103677D01*
X705158Y103777D01*
X705175Y103872D01*
X705192Y103955D01*
X705214Y104027D01*
X705242Y104088D01*
X705258Y104132D01*
X705275Y104160D01*
X705280Y104171D01*
X705331Y104249D01*
X705386Y104316D01*
X705441Y104377D01*
X705497Y104427D01*
X705541Y104466D01*
X705580Y104499D01*
X705602Y104516D01*
X705614Y104521D01*
X705214D01*
Y104943D01*
X708000D01*
Y104471D01*
D02*
G37*
G36*
X707945Y448763D02*
X708006Y448674D01*
X708079Y448585D01*
X708145Y448508D01*
X708212Y448441D01*
X708262Y448385D01*
X708284Y448369D01*
X708301Y448352D01*
X708306Y448347D01*
X708312Y448341D01*
X708428Y448247D01*
X708545Y448158D01*
X708656Y448080D01*
X708767Y448019D01*
X708861Y447964D01*
X708900Y447941D01*
X708933Y447925D01*
X708961Y447908D01*
X708983Y447903D01*
X708994Y447892D01*
X709000D01*
Y447436D01*
X708917Y447470D01*
X708834Y447509D01*
X708750Y447547D01*
X708673Y447586D01*
X708606Y447620D01*
X708551Y447647D01*
X708517Y447670D01*
X708512Y447675D01*
X708506D01*
X708406Y447736D01*
X708317Y447797D01*
X708240Y447853D01*
X708179Y447903D01*
X708123Y447941D01*
X708090Y447975D01*
X708062Y447997D01*
X708056Y448002D01*
Y445000D01*
X707585D01*
Y448857D01*
X707890D01*
X707945Y448763D01*
D02*
G37*
G36*
X694631Y447842D02*
X694725Y447825D01*
X694809Y447808D01*
X694881Y447786D01*
X694942Y447758D01*
X694986Y447742D01*
X695014Y447725D01*
X695025Y447719D01*
X695103Y447670D01*
X695169Y447614D01*
X695230Y447559D01*
X695280Y447503D01*
X695319Y447459D01*
X695353Y447420D01*
X695369Y447398D01*
X695375Y447387D01*
Y447786D01*
X695797D01*
Y445000D01*
X695325D01*
Y446443D01*
X695319Y446576D01*
X695314Y446693D01*
X695303Y446793D01*
X695286Y446876D01*
X695269Y446937D01*
X695258Y446981D01*
X695253Y447009D01*
X695247Y447020D01*
X695214Y447092D01*
X695175Y447153D01*
X695136Y447209D01*
X695097Y447253D01*
X695058Y447287D01*
X695031Y447309D01*
X695008Y447326D01*
X695003Y447331D01*
X694936Y447364D01*
X694875Y447392D01*
X694809Y447409D01*
X694753Y447425D01*
X694709Y447431D01*
X694670Y447436D01*
X694637D01*
X694542Y447431D01*
X694464Y447414D01*
X694398Y447387D01*
X694348Y447359D01*
X694309Y447326D01*
X694281Y447303D01*
X694265Y447281D01*
X694259Y447275D01*
X694220Y447209D01*
X694193Y447137D01*
X694170Y447059D01*
X694159Y446981D01*
X694148Y446915D01*
X694143Y446854D01*
Y446832D01*
Y446820D01*
Y446809D01*
Y446804D01*
Y445000D01*
X693671D01*
Y446615D01*
X693660Y446765D01*
X693638Y446893D01*
X693610Y446998D01*
X693571Y447087D01*
X693538Y447153D01*
X693504Y447198D01*
X693482Y447226D01*
X693477Y447237D01*
X693399Y447303D01*
X693316Y447353D01*
X693232Y447387D01*
X693155Y447414D01*
X693088Y447425D01*
X693033Y447431D01*
X693011Y447436D01*
X692983D01*
X692922Y447431D01*
X692872Y447425D01*
X692822Y447414D01*
X692783Y447398D01*
X692744Y447381D01*
X692722Y447370D01*
X692705Y447364D01*
X692700Y447359D01*
X692655Y447326D01*
X692622Y447292D01*
X692594Y447259D01*
X692572Y447226D01*
X692555Y447198D01*
X692544Y447176D01*
X692533Y447159D01*
Y447153D01*
X692517Y447103D01*
X692505Y447037D01*
X692500Y446970D01*
X692494Y446904D01*
X692489Y446843D01*
Y446793D01*
Y446759D01*
Y446754D01*
Y446748D01*
Y445000D01*
X692017D01*
Y446909D01*
Y446998D01*
X692028Y447076D01*
X692039Y447153D01*
X692050Y447220D01*
X692067Y447287D01*
X692089Y447342D01*
X692106Y447392D01*
X692128Y447442D01*
X692150Y447481D01*
X692167Y447520D01*
X692206Y447570D01*
X692228Y447603D01*
X692239Y447614D01*
X692328Y447692D01*
X692433Y447747D01*
X692539Y447792D01*
X692639Y447819D01*
X692733Y447836D01*
X692772Y447842D01*
X692811D01*
X692838Y447847D01*
X692877D01*
X692977Y447842D01*
X693066Y447825D01*
X693155Y447803D01*
X693238Y447769D01*
X693316Y447731D01*
X693388Y447692D01*
X693449Y447647D01*
X693510Y447603D01*
X693565Y447553D01*
X693610Y447509D01*
X693649Y447470D01*
X693682Y447431D01*
X693710Y447398D01*
X693726Y447375D01*
X693738Y447359D01*
X693743Y447353D01*
X693776Y447436D01*
X693821Y447509D01*
X693871Y447570D01*
X693915Y447620D01*
X693960Y447664D01*
X693993Y447692D01*
X694015Y447708D01*
X694026Y447714D01*
X694104Y447758D01*
X694187Y447792D01*
X694270Y447814D01*
X694353Y447830D01*
X694420Y447842D01*
X694481Y447847D01*
X694531D01*
X694631Y447842D01*
D02*
G37*
G36*
X690158D02*
X690252Y447825D01*
X690335Y447808D01*
X690408Y447786D01*
X690469Y447758D01*
X690513Y447742D01*
X690541Y447725D01*
X690552Y447719D01*
X690629Y447670D01*
X690696Y447614D01*
X690757Y447559D01*
X690807Y447503D01*
X690846Y447459D01*
X690879Y447420D01*
X690896Y447398D01*
X690902Y447387D01*
Y447786D01*
X691323D01*
Y445000D01*
X690851D01*
Y446443D01*
X690846Y446576D01*
X690840Y446693D01*
X690829Y446793D01*
X690813Y446876D01*
X690796Y446937D01*
X690785Y446981D01*
X690779Y447009D01*
X690774Y447020D01*
X690740Y447092D01*
X690702Y447153D01*
X690663Y447209D01*
X690624Y447253D01*
X690585Y447287D01*
X690557Y447309D01*
X690535Y447326D01*
X690530Y447331D01*
X690463Y447364D01*
X690402Y447392D01*
X690335Y447409D01*
X690280Y447425D01*
X690236Y447431D01*
X690197Y447436D01*
X690163D01*
X690069Y447431D01*
X689991Y447414D01*
X689925Y447387D01*
X689875Y447359D01*
X689836Y447326D01*
X689808Y447303D01*
X689791Y447281D01*
X689786Y447275D01*
X689747Y447209D01*
X689719Y447137D01*
X689697Y447059D01*
X689686Y446981D01*
X689675Y446915D01*
X689669Y446854D01*
Y446832D01*
Y446820D01*
Y446809D01*
Y446804D01*
Y445000D01*
X689198D01*
Y446615D01*
X689186Y446765D01*
X689164Y446893D01*
X689137Y446998D01*
X689098Y447087D01*
X689064Y447153D01*
X689031Y447198D01*
X689009Y447226D01*
X689003Y447237D01*
X688926Y447303D01*
X688842Y447353D01*
X688759Y447387D01*
X688682Y447414D01*
X688615Y447425D01*
X688559Y447431D01*
X688537Y447436D01*
X688509D01*
X688448Y447431D01*
X688398Y447425D01*
X688348Y447414D01*
X688310Y447398D01*
X688271Y447381D01*
X688248Y447370D01*
X688232Y447364D01*
X688226Y447359D01*
X688182Y447326D01*
X688149Y447292D01*
X688121Y447259D01*
X688099Y447226D01*
X688082Y447198D01*
X688071Y447176D01*
X688060Y447159D01*
Y447153D01*
X688043Y447103D01*
X688032Y447037D01*
X688027Y446970D01*
X688021Y446904D01*
X688015Y446843D01*
Y446793D01*
Y446759D01*
Y446754D01*
Y446748D01*
Y445000D01*
X687544D01*
Y446909D01*
Y446998D01*
X687555Y447076D01*
X687566Y447153D01*
X687577Y447220D01*
X687594Y447287D01*
X687616Y447342D01*
X687633Y447392D01*
X687655Y447442D01*
X687677Y447481D01*
X687694Y447520D01*
X687732Y447570D01*
X687755Y447603D01*
X687766Y447614D01*
X687854Y447692D01*
X687960Y447747D01*
X688065Y447792D01*
X688165Y447819D01*
X688260Y447836D01*
X688299Y447842D01*
X688337D01*
X688365Y447847D01*
X688404D01*
X688504Y447842D01*
X688593Y447825D01*
X688682Y447803D01*
X688765Y447769D01*
X688842Y447731D01*
X688914Y447692D01*
X688976Y447647D01*
X689037Y447603D01*
X689092Y447553D01*
X689137Y447509D01*
X689175Y447470D01*
X689209Y447431D01*
X689236Y447398D01*
X689253Y447375D01*
X689264Y447359D01*
X689270Y447353D01*
X689303Y447436D01*
X689348Y447509D01*
X689397Y447570D01*
X689442Y447620D01*
X689486Y447664D01*
X689520Y447692D01*
X689542Y447708D01*
X689553Y447714D01*
X689631Y447758D01*
X689714Y447792D01*
X689797Y447814D01*
X689880Y447830D01*
X689947Y447842D01*
X690008Y447847D01*
X690058D01*
X690158Y447842D01*
D02*
G37*
G36*
X702279Y448852D02*
X702368Y448841D01*
X702457Y448824D01*
X702534Y448802D01*
X702684Y448741D01*
X702751Y448713D01*
X702806Y448680D01*
X702862Y448641D01*
X702906Y448613D01*
X702950Y448580D01*
X702984Y448552D01*
X703012Y448530D01*
X703028Y448513D01*
X703039Y448502D01*
X703045Y448496D01*
X703106Y448430D01*
X703156Y448352D01*
X703206Y448280D01*
X703245Y448202D01*
X703278Y448119D01*
X703306Y448041D01*
X703344Y447897D01*
X703361Y447825D01*
X703372Y447764D01*
X703378Y447703D01*
X703383Y447653D01*
X703389Y447614D01*
Y447586D01*
Y447564D01*
Y447559D01*
X703383Y447453D01*
X703372Y447359D01*
X703361Y447264D01*
X703339Y447176D01*
X703311Y447098D01*
X703284Y447020D01*
X703256Y446954D01*
X703223Y446893D01*
X703195Y446837D01*
X703167Y446787D01*
X703139Y446748D01*
X703111Y446709D01*
X703089Y446682D01*
X703078Y446665D01*
X703067Y446654D01*
X703061Y446648D01*
X703000Y446587D01*
X702934Y446537D01*
X702867Y446487D01*
X702795Y446449D01*
X702729Y446415D01*
X702662Y446387D01*
X702534Y446349D01*
X702479Y446332D01*
X702423Y446321D01*
X702379Y446315D01*
X702334Y446310D01*
X702301Y446304D01*
X702257D01*
X702151Y446310D01*
X702051Y446326D01*
X701963Y446349D01*
X701879Y446376D01*
X701818Y446399D01*
X701768Y446421D01*
X701735Y446437D01*
X701724Y446443D01*
X701635Y446498D01*
X701557Y446560D01*
X701491Y446621D01*
X701435Y446676D01*
X701397Y446732D01*
X701363Y446770D01*
X701341Y446798D01*
X701335Y446809D01*
Y446765D01*
Y446737D01*
Y446721D01*
Y446715D01*
X701341Y446604D01*
X701347Y446498D01*
X701358Y446404D01*
X701369Y446315D01*
X701385Y446243D01*
X701397Y446188D01*
X701402Y446166D01*
Y446149D01*
X701408Y446143D01*
Y446138D01*
X701435Y446038D01*
X701463Y445949D01*
X701491Y445871D01*
X701519Y445805D01*
X701541Y445755D01*
X701563Y445716D01*
X701574Y445688D01*
X701580Y445683D01*
X701624Y445622D01*
X701669Y445572D01*
X701713Y445527D01*
X701757Y445488D01*
X701791Y445455D01*
X701824Y445433D01*
X701846Y445422D01*
X701852Y445416D01*
X701913Y445383D01*
X701979Y445361D01*
X702040Y445344D01*
X702101Y445333D01*
X702151Y445328D01*
X702190Y445322D01*
X702229D01*
X702318Y445328D01*
X702401Y445344D01*
X702473Y445366D01*
X702534Y445394D01*
X702579Y445416D01*
X702618Y445438D01*
X702640Y445455D01*
X702645Y445461D01*
X702701Y445522D01*
X702745Y445594D01*
X702784Y445672D01*
X702812Y445749D01*
X702834Y445816D01*
X702851Y445877D01*
X702856Y445899D01*
Y445910D01*
X702862Y445921D01*
Y445927D01*
X703317Y445888D01*
X703284Y445727D01*
X703239Y445588D01*
X703184Y445466D01*
X703128Y445366D01*
X703073Y445289D01*
X703045Y445255D01*
X703023Y445227D01*
X703006Y445211D01*
X702989Y445194D01*
X702984Y445189D01*
X702978Y445183D01*
X702923Y445139D01*
X702862Y445100D01*
X702740Y445039D01*
X702618Y444994D01*
X702501Y444967D01*
X702395Y444944D01*
X702351Y444939D01*
X702312D01*
X702284Y444933D01*
X702240D01*
X702085Y444944D01*
X701946Y444967D01*
X701818Y445006D01*
X701713Y445050D01*
X701669Y445067D01*
X701624Y445089D01*
X701591Y445111D01*
X701557Y445128D01*
X701535Y445139D01*
X701519Y445150D01*
X701508Y445161D01*
X701502D01*
X701391Y445255D01*
X701291Y445361D01*
X701213Y445472D01*
X701147Y445577D01*
X701091Y445672D01*
X701069Y445716D01*
X701052Y445749D01*
X701041Y445783D01*
X701030Y445805D01*
X701025Y445816D01*
Y445821D01*
X700997Y445905D01*
X700969Y445999D01*
X700930Y446188D01*
X700903Y446387D01*
X700886Y446576D01*
X700875Y446660D01*
X700869Y446743D01*
Y446815D01*
X700864Y446876D01*
Y446926D01*
Y446965D01*
Y446992D01*
Y446998D01*
Y447126D01*
X700869Y447248D01*
X700880Y447359D01*
X700891Y447464D01*
X700903Y447559D01*
X700914Y447647D01*
X700930Y447731D01*
X700947Y447803D01*
X700964Y447864D01*
X700975Y447919D01*
X700991Y447969D01*
X701003Y448008D01*
X701014Y448036D01*
X701025Y448058D01*
X701030Y448069D01*
Y448075D01*
X701097Y448208D01*
X701169Y448324D01*
X701252Y448424D01*
X701324Y448508D01*
X701397Y448569D01*
X701452Y448613D01*
X701474Y448630D01*
X701491Y448641D01*
X701496Y448652D01*
X701502D01*
X701618Y448719D01*
X701735Y448769D01*
X701852Y448807D01*
X701957Y448830D01*
X702051Y448846D01*
X702090Y448852D01*
X702118D01*
X702146Y448857D01*
X702185D01*
X702279Y448852D01*
D02*
G37*
G36*
X697800D02*
X697889Y448841D01*
X697978Y448824D01*
X698055Y448802D01*
X698205Y448741D01*
X698272Y448713D01*
X698327Y448680D01*
X698383Y448641D01*
X698427Y448613D01*
X698472Y448580D01*
X698505Y448552D01*
X698533Y448530D01*
X698549Y448513D01*
X698560Y448502D01*
X698566Y448496D01*
X698627Y448430D01*
X698677Y448352D01*
X698727Y448280D01*
X698766Y448202D01*
X698799Y448119D01*
X698827Y448041D01*
X698866Y447897D01*
X698882Y447825D01*
X698893Y447764D01*
X698899Y447703D01*
X698905Y447653D01*
X698910Y447614D01*
Y447586D01*
Y447564D01*
Y447559D01*
X698905Y447453D01*
X698893Y447359D01*
X698882Y447264D01*
X698860Y447176D01*
X698832Y447098D01*
X698805Y447020D01*
X698777Y446954D01*
X698744Y446893D01*
X698716Y446837D01*
X698688Y446787D01*
X698660Y446748D01*
X698633Y446709D01*
X698610Y446682D01*
X698599Y446665D01*
X698588Y446654D01*
X698583Y446648D01*
X698522Y446587D01*
X698455Y446537D01*
X698388Y446487D01*
X698316Y446449D01*
X698250Y446415D01*
X698183Y446387D01*
X698055Y446349D01*
X698000Y446332D01*
X697944Y446321D01*
X697900Y446315D01*
X697856Y446310D01*
X697822Y446304D01*
X697778D01*
X697673Y446310D01*
X697573Y446326D01*
X697484Y446349D01*
X697401Y446376D01*
X697339Y446399D01*
X697290Y446421D01*
X697256Y446437D01*
X697245Y446443D01*
X697156Y446498D01*
X697079Y446560D01*
X697012Y446621D01*
X696956Y446676D01*
X696918Y446732D01*
X696884Y446770D01*
X696862Y446798D01*
X696857Y446809D01*
Y446765D01*
Y446737D01*
Y446721D01*
Y446715D01*
X696862Y446604D01*
X696868Y446498D01*
X696879Y446404D01*
X696890Y446315D01*
X696907Y446243D01*
X696918Y446188D01*
X696923Y446166D01*
Y446149D01*
X696929Y446143D01*
Y446138D01*
X696956Y446038D01*
X696984Y445949D01*
X697012Y445871D01*
X697040Y445805D01*
X697062Y445755D01*
X697084Y445716D01*
X697095Y445688D01*
X697101Y445683D01*
X697145Y445622D01*
X697190Y445572D01*
X697234Y445527D01*
X697278Y445488D01*
X697312Y445455D01*
X697345Y445433D01*
X697367Y445422D01*
X697373Y445416D01*
X697434Y445383D01*
X697500Y445361D01*
X697561Y445344D01*
X697622Y445333D01*
X697673Y445328D01*
X697711Y445322D01*
X697750D01*
X697839Y445328D01*
X697922Y445344D01*
X697994Y445366D01*
X698055Y445394D01*
X698100Y445416D01*
X698139Y445438D01*
X698161Y445455D01*
X698166Y445461D01*
X698222Y445522D01*
X698266Y445594D01*
X698305Y445672D01*
X698333Y445749D01*
X698355Y445816D01*
X698372Y445877D01*
X698377Y445899D01*
Y445910D01*
X698383Y445921D01*
Y445927D01*
X698838Y445888D01*
X698805Y445727D01*
X698760Y445588D01*
X698705Y445466D01*
X698649Y445366D01*
X698594Y445289D01*
X698566Y445255D01*
X698544Y445227D01*
X698527Y445211D01*
X698511Y445194D01*
X698505Y445189D01*
X698499Y445183D01*
X698444Y445139D01*
X698383Y445100D01*
X698261Y445039D01*
X698139Y444994D01*
X698022Y444967D01*
X697917Y444944D01*
X697872Y444939D01*
X697833D01*
X697806Y444933D01*
X697761D01*
X697606Y444944D01*
X697467Y444967D01*
X697339Y445006D01*
X697234Y445050D01*
X697190Y445067D01*
X697145Y445089D01*
X697112Y445111D01*
X697079Y445128D01*
X697056Y445139D01*
X697040Y445150D01*
X697029Y445161D01*
X697023D01*
X696912Y445255D01*
X696812Y445361D01*
X696735Y445472D01*
X696668Y445577D01*
X696612Y445672D01*
X696590Y445716D01*
X696573Y445749D01*
X696562Y445783D01*
X696551Y445805D01*
X696546Y445816D01*
Y445821D01*
X696518Y445905D01*
X696490Y445999D01*
X696452Y446188D01*
X696424Y446387D01*
X696407Y446576D01*
X696396Y446660D01*
X696390Y446743D01*
Y446815D01*
X696385Y446876D01*
Y446926D01*
Y446965D01*
Y446992D01*
Y446998D01*
Y447126D01*
X696390Y447248D01*
X696402Y447359D01*
X696413Y447464D01*
X696424Y447559D01*
X696435Y447647D01*
X696452Y447731D01*
X696468Y447803D01*
X696485Y447864D01*
X696496Y447919D01*
X696513Y447969D01*
X696524Y448008D01*
X696535Y448036D01*
X696546Y448058D01*
X696551Y448069D01*
Y448075D01*
X696618Y448208D01*
X696690Y448324D01*
X696773Y448424D01*
X696845Y448508D01*
X696918Y448569D01*
X696973Y448613D01*
X696995Y448630D01*
X697012Y448641D01*
X697018Y448652D01*
X697023D01*
X697140Y448719D01*
X697256Y448769D01*
X697373Y448807D01*
X697478Y448830D01*
X697573Y448846D01*
X697611Y448852D01*
X697639D01*
X697667Y448857D01*
X697706D01*
X697800Y448852D01*
D02*
G37*
G36*
X706536Y446354D02*
Y445921D01*
X704865D01*
Y445000D01*
X704393D01*
Y445921D01*
X703872D01*
Y446354D01*
X704393D01*
Y448841D01*
X704776D01*
X706536Y446354D01*
D02*
G37*
G36*
X700137Y445000D02*
X699598D01*
Y445538D01*
X700137D01*
Y445000D01*
D02*
G37*
G36*
X133412Y105868D02*
Y105824D01*
X133407Y105730D01*
X133396Y105619D01*
X133384Y105513D01*
X133379Y105413D01*
X133373Y105369D01*
X133368Y105330D01*
Y105297D01*
X133362Y105274D01*
Y105258D01*
Y105252D01*
X133440Y105291D01*
X133534Y105335D01*
X133634Y105380D01*
X133734Y105419D01*
X133823Y105452D01*
X133867Y105469D01*
X133900Y105485D01*
X133928Y105491D01*
X133950Y105502D01*
X133962Y105508D01*
X133967D01*
X134084Y105136D01*
X133856Y105075D01*
X133751Y105052D01*
X133651Y105030D01*
X133568Y105014D01*
X133534Y105002D01*
X133501Y104997D01*
X133479Y104991D01*
X133462D01*
X133451Y104986D01*
X133446D01*
X133473Y104964D01*
X133501Y104930D01*
X133568Y104858D01*
X133640Y104780D01*
X133712Y104697D01*
X133778Y104620D01*
X133828Y104553D01*
X133851Y104525D01*
X133867Y104509D01*
X133873Y104498D01*
X133878Y104492D01*
X133573Y104276D01*
X133518Y104353D01*
X133457Y104442D01*
X133401Y104536D01*
X133346Y104625D01*
X133301Y104703D01*
X133268Y104770D01*
X133251Y104797D01*
X133240Y104814D01*
X133235Y104825D01*
Y104831D01*
X133162Y104708D01*
X133090Y104597D01*
X133029Y104503D01*
X132979Y104420D01*
X132935Y104359D01*
X132902Y104314D01*
X132879Y104287D01*
X132874Y104276D01*
X132563Y104492D01*
X132663Y104614D01*
X132757Y104719D01*
X132829Y104803D01*
X132896Y104875D01*
X132946Y104925D01*
X132985Y104958D01*
X133007Y104980D01*
X133013Y104986D01*
X132890Y105002D01*
X132774Y105025D01*
X132663Y105052D01*
X132563Y105075D01*
X132480Y105097D01*
X132447Y105108D01*
X132413Y105119D01*
X132391Y105125D01*
X132374Y105130D01*
X132363Y105136D01*
X132358D01*
X132480Y105508D01*
X132607Y105463D01*
X132724Y105419D01*
X132829Y105374D01*
X132918Y105335D01*
X132990Y105302D01*
X133046Y105274D01*
X133068Y105263D01*
X133085Y105258D01*
X133090Y105252D01*
X133096D01*
X133079Y105391D01*
X133063Y105519D01*
X133057Y105635D01*
X133046Y105730D01*
X133040Y105802D01*
X133035Y105863D01*
Y105879D01*
Y105896D01*
Y105902D01*
Y105907D01*
X133412D01*
Y105868D01*
D02*
G37*
G36*
X130898Y105846D02*
X131048Y105818D01*
X131175Y105774D01*
X131287Y105730D01*
X131336Y105702D01*
X131375Y105680D01*
X131414Y105657D01*
X131442Y105635D01*
X131464Y105619D01*
X131481Y105607D01*
X131492Y105602D01*
X131497Y105596D01*
X131603Y105491D01*
X131686Y105374D01*
X131753Y105252D01*
X131808Y105130D01*
X131842Y105025D01*
X131858Y104980D01*
X131869Y104941D01*
X131875Y104908D01*
X131880Y104886D01*
X131886Y104869D01*
Y104864D01*
X131414Y104780D01*
X131392Y104903D01*
X131359Y105008D01*
X131320Y105097D01*
X131281Y105169D01*
X131242Y105225D01*
X131209Y105263D01*
X131187Y105291D01*
X131181Y105297D01*
X131109Y105352D01*
X131031Y105397D01*
X130959Y105424D01*
X130887Y105447D01*
X130820Y105458D01*
X130770Y105469D01*
X130726D01*
X130626Y105463D01*
X130537Y105441D01*
X130459Y105413D01*
X130393Y105385D01*
X130343Y105352D01*
X130304Y105324D01*
X130276Y105302D01*
X130271Y105297D01*
X130210Y105230D01*
X130165Y105158D01*
X130138Y105086D01*
X130115Y105019D01*
X130104Y104958D01*
X130093Y104914D01*
Y104880D01*
Y104875D01*
Y104869D01*
Y104808D01*
X130104Y104753D01*
X130132Y104658D01*
X130171Y104575D01*
X130215Y104503D01*
X130260Y104453D01*
X130299Y104414D01*
X130326Y104392D01*
X130332Y104386D01*
X130337D01*
X130432Y104337D01*
X130521Y104298D01*
X130615Y104270D01*
X130698Y104253D01*
X130770Y104242D01*
X130831Y104231D01*
X130903D01*
X130926Y104237D01*
X130954D01*
X131009Y103820D01*
X130937Y103837D01*
X130870Y103848D01*
X130815Y103859D01*
X130765Y103865D01*
X130726Y103870D01*
X130676D01*
X130559Y103859D01*
X130454Y103837D01*
X130360Y103804D01*
X130282Y103765D01*
X130221Y103726D01*
X130176Y103693D01*
X130149Y103671D01*
X130138Y103659D01*
X130066Y103576D01*
X130010Y103487D01*
X129971Y103399D01*
X129949Y103310D01*
X129932Y103238D01*
X129927Y103177D01*
X129921Y103154D01*
Y103138D01*
Y103127D01*
Y103121D01*
X129932Y102999D01*
X129960Y102888D01*
X129993Y102794D01*
X130038Y102710D01*
X130082Y102644D01*
X130115Y102594D01*
X130143Y102560D01*
X130154Y102550D01*
X130243Y102472D01*
X130337Y102416D01*
X130432Y102377D01*
X130521Y102350D01*
X130598Y102333D01*
X130659Y102327D01*
X130682Y102322D01*
X130715D01*
X130815Y102327D01*
X130909Y102350D01*
X130992Y102377D01*
X131059Y102411D01*
X131114Y102438D01*
X131159Y102466D01*
X131181Y102488D01*
X131192Y102494D01*
X131259Y102572D01*
X131314Y102660D01*
X131364Y102755D01*
X131403Y102855D01*
X131431Y102938D01*
X131442Y102977D01*
X131448Y103010D01*
X131453Y103038D01*
X131458Y103060D01*
X131464Y103071D01*
Y103077D01*
X131936Y103016D01*
X131925Y102927D01*
X131908Y102844D01*
X131858Y102688D01*
X131797Y102555D01*
X131764Y102499D01*
X131730Y102444D01*
X131697Y102394D01*
X131664Y102355D01*
X131636Y102316D01*
X131608Y102289D01*
X131592Y102266D01*
X131575Y102250D01*
X131564Y102239D01*
X131558Y102233D01*
X131492Y102183D01*
X131425Y102133D01*
X131359Y102094D01*
X131287Y102061D01*
X131148Y102006D01*
X131015Y101972D01*
X130954Y101961D01*
X130898Y101950D01*
X130848Y101944D01*
X130804Y101939D01*
X130770Y101933D01*
X130720D01*
X130615Y101939D01*
X130521Y101950D01*
X130426Y101967D01*
X130337Y101989D01*
X130254Y102017D01*
X130182Y102044D01*
X130110Y102078D01*
X130049Y102111D01*
X129988Y102139D01*
X129938Y102172D01*
X129894Y102200D01*
X129860Y102227D01*
X129832Y102250D01*
X129810Y102266D01*
X129799Y102278D01*
X129794Y102283D01*
X129727Y102350D01*
X129672Y102422D01*
X129622Y102494D01*
X129577Y102566D01*
X129544Y102633D01*
X129510Y102705D01*
X129466Y102838D01*
X129455Y102899D01*
X129444Y102955D01*
X129433Y103005D01*
X129427Y103049D01*
X129422Y103082D01*
Y103110D01*
Y103127D01*
Y103132D01*
X129427Y103265D01*
X129449Y103387D01*
X129483Y103493D01*
X129516Y103582D01*
X129549Y103654D01*
X129583Y103709D01*
X129605Y103743D01*
X129610Y103754D01*
X129688Y103837D01*
X129771Y103909D01*
X129860Y103965D01*
X129949Y104009D01*
X130027Y104042D01*
X130088Y104065D01*
X130110Y104070D01*
X130127Y104076D01*
X130138Y104081D01*
X130143D01*
X130049Y104131D01*
X129971Y104181D01*
X129904Y104237D01*
X129849Y104287D01*
X129805Y104331D01*
X129771Y104370D01*
X129755Y104392D01*
X129749Y104403D01*
X129705Y104481D01*
X129672Y104559D01*
X129644Y104636D01*
X129627Y104708D01*
X129616Y104770D01*
X129610Y104814D01*
Y104847D01*
Y104858D01*
X129616Y104953D01*
X129633Y105047D01*
X129655Y105130D01*
X129683Y105202D01*
X129710Y105263D01*
X129733Y105313D01*
X129749Y105341D01*
X129755Y105352D01*
X129810Y105435D01*
X129877Y105508D01*
X129943Y105569D01*
X130010Y105624D01*
X130066Y105663D01*
X130115Y105696D01*
X130149Y105713D01*
X130154Y105719D01*
X130160D01*
X130260Y105763D01*
X130360Y105796D01*
X130459Y105824D01*
X130548Y105841D01*
X130621Y105852D01*
X130682Y105857D01*
X130820D01*
X130898Y105846D01*
D02*
G37*
G36*
X139917Y103815D02*
X139473Y103754D01*
X139434Y103815D01*
X139384Y103865D01*
X139340Y103915D01*
X139295Y103954D01*
X139251Y103981D01*
X139217Y104009D01*
X139195Y104020D01*
X139190Y104026D01*
X139118Y104059D01*
X139045Y104087D01*
X138979Y104103D01*
X138912Y104120D01*
X138857Y104126D01*
X138812Y104131D01*
X138707D01*
X138640Y104120D01*
X138524Y104092D01*
X138424Y104053D01*
X138335Y104015D01*
X138268Y103970D01*
X138218Y103931D01*
X138191Y103904D01*
X138180Y103898D01*
Y103893D01*
X138102Y103798D01*
X138046Y103698D01*
X138007Y103593D01*
X137980Y103487D01*
X137963Y103399D01*
X137958Y103360D01*
Y103326D01*
X137952Y103299D01*
Y103277D01*
Y103265D01*
Y103260D01*
Y103182D01*
X137963Y103110D01*
X137991Y102971D01*
X138030Y102855D01*
X138069Y102760D01*
X138113Y102683D01*
X138152Y102622D01*
X138169Y102605D01*
X138180Y102588D01*
X138185Y102583D01*
X138191Y102577D01*
X138235Y102533D01*
X138279Y102494D01*
X138379Y102427D01*
X138474Y102383D01*
X138568Y102355D01*
X138646Y102333D01*
X138712Y102327D01*
X138735Y102322D01*
X138768D01*
X138873Y102327D01*
X138968Y102350D01*
X139051Y102377D01*
X139118Y102411D01*
X139179Y102444D01*
X139223Y102472D01*
X139245Y102494D01*
X139256Y102499D01*
X139323Y102577D01*
X139378Y102660D01*
X139423Y102755D01*
X139456Y102838D01*
X139478Y102921D01*
X139495Y102982D01*
X139500Y103010D01*
X139506Y103027D01*
Y103038D01*
Y103043D01*
X140000Y103005D01*
X139989Y102916D01*
X139972Y102832D01*
X139922Y102677D01*
X139861Y102544D01*
X139828Y102483D01*
X139795Y102433D01*
X139767Y102383D01*
X139734Y102339D01*
X139706Y102305D01*
X139678Y102278D01*
X139656Y102255D01*
X139645Y102233D01*
X139634Y102227D01*
X139628Y102222D01*
X139562Y102172D01*
X139495Y102128D01*
X139423Y102089D01*
X139351Y102056D01*
X139212Y102006D01*
X139073Y101972D01*
X139012Y101956D01*
X138951Y101950D01*
X138901Y101944D01*
X138857Y101939D01*
X138818Y101933D01*
X138768D01*
X138651Y101939D01*
X138540Y101956D01*
X138435Y101978D01*
X138341Y102006D01*
X138252Y102044D01*
X138169Y102083D01*
X138091Y102122D01*
X138024Y102166D01*
X137963Y102211D01*
X137908Y102250D01*
X137863Y102294D01*
X137824Y102327D01*
X137797Y102355D01*
X137775Y102377D01*
X137763Y102394D01*
X137758Y102400D01*
X137702Y102472D01*
X137658Y102550D01*
X137613Y102622D01*
X137580Y102699D01*
X137525Y102849D01*
X137491Y102994D01*
X137480Y103054D01*
X137469Y103116D01*
X137464Y103165D01*
X137458Y103210D01*
X137452Y103249D01*
Y103277D01*
Y103293D01*
Y103299D01*
X137458Y103399D01*
X137469Y103493D01*
X137486Y103587D01*
X137508Y103671D01*
X137536Y103748D01*
X137564Y103826D01*
X137597Y103893D01*
X137625Y103954D01*
X137658Y104009D01*
X137691Y104059D01*
X137719Y104098D01*
X137747Y104137D01*
X137769Y104165D01*
X137785Y104181D01*
X137797Y104192D01*
X137802Y104198D01*
X137869Y104259D01*
X137935Y104314D01*
X138007Y104359D01*
X138080Y104398D01*
X138152Y104436D01*
X138224Y104464D01*
X138357Y104503D01*
X138418Y104520D01*
X138474Y104531D01*
X138524Y104536D01*
X138568Y104542D01*
X138601Y104548D01*
X138724D01*
X138790Y104536D01*
X138923Y104509D01*
X139045Y104470D01*
X139156Y104425D01*
X139245Y104381D01*
X139284Y104359D01*
X139317Y104342D01*
X139345Y104325D01*
X139362Y104314D01*
X139373Y104309D01*
X139378Y104303D01*
X139173Y105341D01*
X137636D01*
Y105791D01*
X139545D01*
X139917Y103815D01*
D02*
G37*
G36*
X129116Y103354D02*
Y102921D01*
X127446D01*
Y102000D01*
X126974D01*
Y102921D01*
X126452D01*
Y103354D01*
X126974D01*
Y105841D01*
X127357D01*
X129116Y103354D01*
D02*
G37*
G36*
X135854Y105852D02*
X135943Y105846D01*
X136098Y105813D01*
X136170Y105791D01*
X136237Y105769D01*
X136298Y105741D01*
X136354Y105713D01*
X136398Y105685D01*
X136442Y105657D01*
X136481Y105635D01*
X136509Y105613D01*
X136531Y105596D01*
X136548Y105580D01*
X136559Y105574D01*
X136565Y105569D01*
X136615Y105513D01*
X136664Y105458D01*
X136703Y105397D01*
X136737Y105335D01*
X136792Y105219D01*
X136825Y105108D01*
X136848Y105014D01*
X136853Y104969D01*
X136859Y104936D01*
X136864Y104903D01*
Y104880D01*
Y104869D01*
Y104864D01*
X136859Y104764D01*
X136842Y104670D01*
X136820Y104586D01*
X136792Y104514D01*
X136770Y104459D01*
X136748Y104414D01*
X136731Y104392D01*
X136725Y104381D01*
X136664Y104314D01*
X136598Y104253D01*
X136526Y104198D01*
X136453Y104153D01*
X136387Y104120D01*
X136337Y104098D01*
X136315Y104087D01*
X136298Y104081D01*
X136293Y104076D01*
X136287D01*
X136415Y104037D01*
X136520Y103987D01*
X136615Y103926D01*
X136692Y103870D01*
X136753Y103815D01*
X136798Y103770D01*
X136820Y103743D01*
X136831Y103737D01*
Y103732D01*
X136892Y103632D01*
X136942Y103526D01*
X136975Y103426D01*
X136997Y103326D01*
X137009Y103238D01*
X137014Y103199D01*
Y103165D01*
X137020Y103143D01*
Y103121D01*
Y103110D01*
Y103104D01*
X137014Y103016D01*
X137003Y102927D01*
X136986Y102844D01*
X136964Y102760D01*
X136909Y102622D01*
X136881Y102555D01*
X136848Y102499D01*
X136814Y102444D01*
X136787Y102400D01*
X136753Y102361D01*
X136731Y102327D01*
X136709Y102300D01*
X136692Y102283D01*
X136681Y102272D01*
X136676Y102266D01*
X136609Y102205D01*
X136537Y102155D01*
X136459Y102111D01*
X136381Y102072D01*
X136309Y102044D01*
X136232Y102017D01*
X136082Y101978D01*
X136015Y101961D01*
X135954Y101950D01*
X135899Y101944D01*
X135849Y101939D01*
X135810Y101933D01*
X135754D01*
X135649Y101939D01*
X135554Y101950D01*
X135460Y101967D01*
X135371Y101983D01*
X135294Y102011D01*
X135216Y102039D01*
X135144Y102067D01*
X135083Y102100D01*
X135027Y102133D01*
X134977Y102161D01*
X134938Y102189D01*
X134899Y102216D01*
X134872Y102233D01*
X134855Y102250D01*
X134844Y102261D01*
X134838Y102266D01*
X134777Y102333D01*
X134722Y102400D01*
X134678Y102466D01*
X134639Y102538D01*
X134600Y102605D01*
X134572Y102677D01*
X134533Y102805D01*
X134517Y102866D01*
X134505Y102921D01*
X134500Y102971D01*
X134494Y103010D01*
X134489Y103043D01*
Y103071D01*
Y103088D01*
Y103093D01*
X134494Y103221D01*
X134517Y103338D01*
X134550Y103443D01*
X134583Y103532D01*
X134616Y103604D01*
X134650Y103659D01*
X134672Y103693D01*
X134678Y103698D01*
Y103704D01*
X134755Y103793D01*
X134838Y103870D01*
X134927Y103931D01*
X135011Y103987D01*
X135088Y104026D01*
X135155Y104053D01*
X135177Y104065D01*
X135194Y104070D01*
X135205Y104076D01*
X135210D01*
X135110Y104120D01*
X135027Y104170D01*
X134955Y104220D01*
X134894Y104270D01*
X134850Y104314D01*
X134816Y104348D01*
X134794Y104370D01*
X134789Y104381D01*
X134739Y104459D01*
X134705Y104536D01*
X134678Y104614D01*
X134661Y104692D01*
X134650Y104753D01*
X134644Y104803D01*
Y104836D01*
Y104842D01*
Y104847D01*
X134650Y104925D01*
X134655Y104997D01*
X134694Y105136D01*
X134744Y105258D01*
X134800Y105363D01*
X134855Y105447D01*
X134883Y105480D01*
X134905Y105513D01*
X134927Y105535D01*
X134944Y105552D01*
X134950Y105558D01*
X134955Y105563D01*
X135016Y105613D01*
X135077Y105663D01*
X135144Y105702D01*
X135210Y105735D01*
X135344Y105785D01*
X135477Y105818D01*
X135532Y105835D01*
X135588Y105841D01*
X135638Y105846D01*
X135682Y105852D01*
X135715Y105857D01*
X135765D01*
X135854Y105852D01*
D02*
G37*
%LPC*%
G36*
X705136Y119362D02*
X705131D01*
X705125D01*
X705036Y119356D01*
X704959Y119334D01*
X704886Y119306D01*
X704825Y119273D01*
X704775Y119245D01*
X704737Y119218D01*
X704714Y119195D01*
X704709Y119190D01*
X704648Y119118D01*
X704603Y119045D01*
X704576Y118968D01*
X704553Y118896D01*
X704542Y118829D01*
X704531Y118779D01*
Y118735D01*
X704537Y118640D01*
X704559Y118551D01*
X704587Y118479D01*
X704620Y118413D01*
X704653Y118363D01*
X704681Y118324D01*
X704703Y118296D01*
X704709Y118291D01*
X704781Y118229D01*
X704853Y118185D01*
X704925Y118152D01*
X704992Y118130D01*
X705053Y118119D01*
X705103Y118107D01*
X705136D01*
X705142D01*
X705147D01*
X705236Y118113D01*
X705319Y118135D01*
X705392Y118163D01*
X705452Y118196D01*
X705503Y118229D01*
X705536Y118257D01*
X705564Y118280D01*
X705569Y118285D01*
X705625Y118352D01*
X705669Y118429D01*
X705697Y118501D01*
X705719Y118574D01*
X705730Y118640D01*
X705736Y118690D01*
X705741Y118723D01*
Y118735D01*
X705736Y118834D01*
X705713Y118923D01*
X705686Y119001D01*
X705652Y119068D01*
X705625Y119118D01*
X705597Y119156D01*
X705575Y119184D01*
X705569Y119190D01*
X705503Y119245D01*
X705425Y119290D01*
X705353Y119317D01*
X705280Y119340D01*
X705219Y119351D01*
X705169Y119356D01*
X705136Y119362D01*
D02*
G37*
G36*
X706929Y119517D02*
X706907D01*
X706896D01*
X706779Y119506D01*
X706673Y119484D01*
X706579Y119450D01*
X706496Y119406D01*
X706435Y119367D01*
X706385Y119334D01*
X706357Y119312D01*
X706346Y119301D01*
X706274Y119218D01*
X706218Y119123D01*
X706180Y119034D01*
X706152Y118946D01*
X706135Y118868D01*
X706130Y118807D01*
X706124Y118784D01*
Y118751D01*
X706135Y118629D01*
X706157Y118518D01*
X706196Y118418D01*
X706235Y118335D01*
X706280Y118268D01*
X706318Y118219D01*
X706341Y118191D01*
X706352Y118180D01*
X706440Y118102D01*
X706535Y118046D01*
X706629Y118008D01*
X706712Y117980D01*
X706796Y117963D01*
X706857Y117958D01*
X706879Y117952D01*
X706896D01*
X706907D01*
X706912D01*
X707029Y117963D01*
X707140Y117985D01*
X707234Y118024D01*
X707312Y118063D01*
X707373Y118102D01*
X707423Y118141D01*
X707451Y118163D01*
X707462Y118174D01*
X707534Y118263D01*
X707589Y118352D01*
X707623Y118446D01*
X707650Y118535D01*
X707667Y118613D01*
X707673Y118679D01*
X707678Y118701D01*
Y118735D01*
X707673Y118812D01*
X707661Y118890D01*
X707645Y118962D01*
X707628Y119023D01*
X707612Y119073D01*
X707595Y119112D01*
X707584Y119134D01*
X707578Y119145D01*
X707534Y119212D01*
X707489Y119267D01*
X707440Y119317D01*
X707389Y119356D01*
X707351Y119389D01*
X707317Y119412D01*
X707290Y119423D01*
X707284Y119428D01*
X707212Y119456D01*
X707145Y119478D01*
X707079Y119495D01*
X707018Y119506D01*
X706968Y119512D01*
X706929Y119517D01*
D02*
G37*
G36*
X705136Y116376D02*
X705131D01*
X705125D01*
X705036Y116370D01*
X704959Y116348D01*
X704886Y116320D01*
X704825Y116287D01*
X704775Y116259D01*
X704737Y116232D01*
X704714Y116209D01*
X704709Y116204D01*
X704648Y116132D01*
X704603Y116060D01*
X704576Y115982D01*
X704553Y115910D01*
X704542Y115843D01*
X704531Y115793D01*
Y115749D01*
X704537Y115654D01*
X704559Y115566D01*
X704587Y115493D01*
X704620Y115427D01*
X704653Y115377D01*
X704681Y115338D01*
X704703Y115310D01*
X704709Y115305D01*
X704781Y115244D01*
X704853Y115199D01*
X704925Y115166D01*
X704992Y115144D01*
X705053Y115133D01*
X705103Y115122D01*
X705136D01*
X705142D01*
X705147D01*
X705236Y115127D01*
X705319Y115149D01*
X705392Y115177D01*
X705452Y115210D01*
X705503Y115244D01*
X705536Y115271D01*
X705564Y115294D01*
X705569Y115299D01*
X705625Y115366D01*
X705669Y115444D01*
X705697Y115516D01*
X705719Y115588D01*
X705730Y115654D01*
X705736Y115704D01*
X705741Y115738D01*
Y115749D01*
X705736Y115849D01*
X705713Y115937D01*
X705686Y116015D01*
X705652Y116082D01*
X705625Y116132D01*
X705597Y116171D01*
X705575Y116198D01*
X705569Y116204D01*
X705503Y116259D01*
X705425Y116304D01*
X705353Y116331D01*
X705280Y116354D01*
X705219Y116365D01*
X705169Y116370D01*
X705136Y116376D01*
D02*
G37*
G36*
X706929Y116531D02*
X706907D01*
X706896D01*
X706779Y116520D01*
X706673Y116498D01*
X706579Y116465D01*
X706496Y116420D01*
X706435Y116381D01*
X706385Y116348D01*
X706357Y116326D01*
X706346Y116315D01*
X706274Y116232D01*
X706218Y116137D01*
X706180Y116048D01*
X706152Y115960D01*
X706135Y115882D01*
X706130Y115821D01*
X706124Y115799D01*
Y115765D01*
X706135Y115643D01*
X706157Y115532D01*
X706196Y115432D01*
X706235Y115349D01*
X706280Y115282D01*
X706318Y115233D01*
X706341Y115205D01*
X706352Y115194D01*
X706440Y115116D01*
X706535Y115060D01*
X706629Y115022D01*
X706712Y114994D01*
X706796Y114977D01*
X706857Y114972D01*
X706879Y114966D01*
X706896D01*
X706907D01*
X706912D01*
X707029Y114977D01*
X707140Y114999D01*
X707234Y115038D01*
X707312Y115077D01*
X707373Y115116D01*
X707423Y115155D01*
X707451Y115177D01*
X707462Y115188D01*
X707534Y115277D01*
X707589Y115366D01*
X707623Y115460D01*
X707650Y115549D01*
X707667Y115627D01*
X707673Y115693D01*
X707678Y115715D01*
Y115749D01*
X707673Y115826D01*
X707661Y115904D01*
X707645Y115976D01*
X707628Y116037D01*
X707612Y116087D01*
X707595Y116126D01*
X707584Y116148D01*
X707578Y116159D01*
X707534Y116226D01*
X707489Y116281D01*
X707440Y116331D01*
X707389Y116370D01*
X707351Y116404D01*
X707317Y116426D01*
X707290Y116437D01*
X707284Y116443D01*
X707212Y116470D01*
X707145Y116492D01*
X707079Y116509D01*
X707018Y116520D01*
X706968Y116526D01*
X706929Y116531D01*
D02*
G37*
G36*
X705491Y112047D02*
X705475D01*
X705464D01*
X705458D01*
X705314Y112036D01*
X705181Y112014D01*
X705064Y111975D01*
X704970Y111930D01*
X704892Y111891D01*
X704837Y111853D01*
X704820Y111841D01*
X704803Y111830D01*
X704798Y111819D01*
X704792D01*
X704748Y111775D01*
X704703Y111731D01*
X704642Y111636D01*
X704592Y111542D01*
X704565Y111453D01*
X704542Y111381D01*
X704537Y111320D01*
X704531Y111298D01*
Y111209D01*
X704542Y111153D01*
X704570Y111053D01*
X704609Y110965D01*
X704648Y110887D01*
X704692Y110826D01*
X704731Y110781D01*
X704759Y110754D01*
X704764Y110743D01*
X704770D01*
X704864Y110670D01*
X704970Y110615D01*
X705081Y110576D01*
X705186Y110554D01*
X705275Y110537D01*
X705314Y110532D01*
X705353D01*
X705380Y110526D01*
X705403D01*
X705414D01*
X705419D01*
X705564Y110537D01*
X705691Y110559D01*
X705797Y110593D01*
X705886Y110632D01*
X705958Y110676D01*
X706007Y110709D01*
X706041Y110731D01*
X706052Y110743D01*
X706130Y110826D01*
X706185Y110915D01*
X706224Y111003D01*
X706252Y111092D01*
X706268Y111164D01*
X706274Y111225D01*
X706280Y111248D01*
Y111281D01*
X706268Y111398D01*
X706246Y111503D01*
X706207Y111597D01*
X706163Y111680D01*
X706124Y111742D01*
X706085Y111792D01*
X706063Y111819D01*
X706052Y111830D01*
X705963Y111902D01*
X705863Y111958D01*
X705763Y111991D01*
X705669Y112019D01*
X705586Y112036D01*
X705552Y112041D01*
X705519D01*
X705491Y112047D01*
D02*
G37*
G36*
X702157Y448469D02*
X702068D01*
X702013Y448458D01*
X701913Y448430D01*
X701824Y448391D01*
X701746Y448352D01*
X701685Y448308D01*
X701641Y448269D01*
X701613Y448241D01*
X701602Y448236D01*
Y448230D01*
X701530Y448136D01*
X701474Y448030D01*
X701435Y447919D01*
X701413Y447814D01*
X701397Y447725D01*
X701391Y447686D01*
Y447647D01*
X701385Y447620D01*
Y447597D01*
Y447586D01*
Y447581D01*
X701397Y447436D01*
X701419Y447309D01*
X701452Y447203D01*
X701491Y447115D01*
X701535Y447042D01*
X701569Y446992D01*
X701591Y446959D01*
X701602Y446948D01*
X701685Y446870D01*
X701774Y446815D01*
X701863Y446776D01*
X701952Y446748D01*
X702024Y446732D01*
X702085Y446726D01*
X702107Y446721D01*
X702140D01*
X702257Y446732D01*
X702362Y446754D01*
X702457Y446793D01*
X702540Y446837D01*
X702601Y446876D01*
X702651Y446915D01*
X702678Y446937D01*
X702690Y446948D01*
X702762Y447037D01*
X702817Y447137D01*
X702851Y447237D01*
X702878Y447331D01*
X702895Y447414D01*
X702901Y447447D01*
Y447481D01*
X702906Y447509D01*
Y447525D01*
Y447536D01*
Y447542D01*
X702895Y447686D01*
X702873Y447819D01*
X702834Y447936D01*
X702789Y448030D01*
X702751Y448108D01*
X702712Y448164D01*
X702701Y448180D01*
X702690Y448197D01*
X702678Y448202D01*
Y448208D01*
X702634Y448252D01*
X702590Y448297D01*
X702495Y448358D01*
X702401Y448408D01*
X702312Y448435D01*
X702240Y448458D01*
X702179Y448463D01*
X702157Y448469D01*
D02*
G37*
G36*
X697678D02*
X697589D01*
X697534Y448458D01*
X697434Y448430D01*
X697345Y448391D01*
X697267Y448352D01*
X697206Y448308D01*
X697162Y448269D01*
X697134Y448241D01*
X697123Y448236D01*
Y448230D01*
X697051Y448136D01*
X696995Y448030D01*
X696956Y447919D01*
X696934Y447814D01*
X696918Y447725D01*
X696912Y447686D01*
Y447647D01*
X696907Y447620D01*
Y447597D01*
Y447586D01*
Y447581D01*
X696918Y447436D01*
X696940Y447309D01*
X696973Y447203D01*
X697012Y447115D01*
X697056Y447042D01*
X697090Y446992D01*
X697112Y446959D01*
X697123Y446948D01*
X697206Y446870D01*
X697295Y446815D01*
X697384Y446776D01*
X697473Y446748D01*
X697545Y446732D01*
X697606Y446726D01*
X697628Y446721D01*
X697661D01*
X697778Y446732D01*
X697883Y446754D01*
X697978Y446793D01*
X698061Y446837D01*
X698122Y446876D01*
X698172Y446915D01*
X698200Y446937D01*
X698211Y446948D01*
X698283Y447037D01*
X698339Y447137D01*
X698372Y447237D01*
X698399Y447331D01*
X698416Y447414D01*
X698422Y447447D01*
Y447481D01*
X698427Y447509D01*
Y447525D01*
Y447536D01*
Y447542D01*
X698416Y447686D01*
X698394Y447819D01*
X698355Y447936D01*
X698311Y448030D01*
X698272Y448108D01*
X698233Y448164D01*
X698222Y448180D01*
X698211Y448197D01*
X698200Y448202D01*
Y448208D01*
X698155Y448252D01*
X698111Y448297D01*
X698017Y448358D01*
X697922Y448408D01*
X697833Y448435D01*
X697761Y448458D01*
X697700Y448463D01*
X697678Y448469D01*
D02*
G37*
G36*
X704865Y448075D02*
Y446354D01*
X706075D01*
X704865Y448075D01*
D02*
G37*
G36*
X127446Y105075D02*
Y103354D01*
X128656D01*
X127446Y105075D01*
D02*
G37*
G36*
X135799Y105469D02*
X135754D01*
X135660Y105463D01*
X135571Y105441D01*
X135499Y105413D01*
X135432Y105380D01*
X135382Y105347D01*
X135344Y105319D01*
X135316Y105297D01*
X135310Y105291D01*
X135249Y105219D01*
X135205Y105147D01*
X135171Y105075D01*
X135149Y105008D01*
X135138Y104947D01*
X135127Y104897D01*
Y104864D01*
Y104858D01*
Y104853D01*
X135133Y104764D01*
X135155Y104681D01*
X135183Y104609D01*
X135216Y104548D01*
X135249Y104498D01*
X135277Y104464D01*
X135299Y104436D01*
X135305Y104431D01*
X135371Y104375D01*
X135449Y104331D01*
X135521Y104303D01*
X135593Y104281D01*
X135660Y104270D01*
X135710Y104264D01*
X135743Y104259D01*
X135754D01*
X135854Y104264D01*
X135943Y104287D01*
X136021Y104314D01*
X136087Y104348D01*
X136137Y104375D01*
X136176Y104403D01*
X136204Y104425D01*
X136209Y104431D01*
X136265Y104498D01*
X136309Y104575D01*
X136337Y104647D01*
X136359Y104719D01*
X136370Y104780D01*
X136376Y104831D01*
X136381Y104864D01*
Y104869D01*
Y104875D01*
X136376Y104964D01*
X136354Y105041D01*
X136326Y105114D01*
X136293Y105175D01*
X136265Y105225D01*
X136237Y105263D01*
X136215Y105286D01*
X136209Y105291D01*
X136137Y105352D01*
X136065Y105397D01*
X135987Y105424D01*
X135915Y105447D01*
X135849Y105458D01*
X135799Y105469D01*
D02*
G37*
G36*
X135804Y103876D02*
X135771D01*
X135649Y103865D01*
X135538Y103843D01*
X135438Y103804D01*
X135355Y103765D01*
X135288Y103720D01*
X135238Y103682D01*
X135210Y103659D01*
X135199Y103648D01*
X135122Y103560D01*
X135066Y103465D01*
X135027Y103371D01*
X135000Y103288D01*
X134983Y103204D01*
X134977Y103143D01*
X134972Y103121D01*
Y103104D01*
Y103093D01*
Y103088D01*
X134983Y102971D01*
X135005Y102860D01*
X135044Y102766D01*
X135083Y102688D01*
X135122Y102627D01*
X135160Y102577D01*
X135183Y102550D01*
X135194Y102538D01*
X135283Y102466D01*
X135371Y102411D01*
X135466Y102377D01*
X135554Y102350D01*
X135632Y102333D01*
X135699Y102327D01*
X135721Y102322D01*
X135754D01*
X135832Y102327D01*
X135910Y102339D01*
X135982Y102355D01*
X136043Y102372D01*
X136093Y102389D01*
X136132Y102405D01*
X136154Y102416D01*
X136165Y102422D01*
X136232Y102466D01*
X136287Y102511D01*
X136337Y102560D01*
X136376Y102611D01*
X136409Y102649D01*
X136431Y102683D01*
X136442Y102710D01*
X136448Y102716D01*
X136476Y102788D01*
X136498Y102855D01*
X136515Y102921D01*
X136526Y102982D01*
X136531Y103032D01*
X136537Y103071D01*
Y103093D01*
Y103104D01*
X136526Y103221D01*
X136504Y103326D01*
X136470Y103421D01*
X136426Y103504D01*
X136387Y103565D01*
X136354Y103615D01*
X136331Y103643D01*
X136320Y103654D01*
X136237Y103726D01*
X136143Y103781D01*
X136054Y103820D01*
X135965Y103848D01*
X135887Y103865D01*
X135826Y103870D01*
X135804Y103876D01*
D02*
G37*
%LPD*%
M02*
